<svg width="102" height="30" viewBox="0 0 102 30" fill="none" xmlns="http://www.w3.org/2000/svg">
<rect y="0.5" width="102" height="29" rx="14.5" fill="#2081E2"/>
<g clip-path="url(#clip0_194_6381)">
<path d="M29 15C29 19.6942 25.1942 23.5 20.5 23.5C15.8058 23.5 12 19.6942 12 15C12 10.3058 15.8058 6.5 20.5 6.5C25.1951 6.5 29 10.3058 29 15Z" fill="white"/>
<path d="M16.1935 15.2857L16.2302 15.228L18.4414 11.7689C18.4737 11.7182 18.5497 11.7235 18.5741 11.7785C18.9435 12.6064 19.2623 13.636 19.113 14.277C19.0492 14.5407 18.8746 14.8979 18.6781 15.228C18.6527 15.2761 18.6248 15.3232 18.5951 15.3686C18.5811 15.3896 18.5575 15.4018 18.5322 15.4018H16.2582C16.197 15.4018 16.1612 15.3355 16.1935 15.2857Z" fill="#2081E2"/>
<path d="M26.0496 15.9283V16.4758C26.0496 16.5073 26.0304 16.5352 26.0025 16.5474C25.8313 16.6208 25.2453 16.8898 25.0017 17.2286C24.3799 18.094 23.9048 19.3315 22.8429 19.3315H18.4126C16.8425 19.3315 15.5701 18.0547 15.5701 16.4793V16.4287C15.5701 16.3867 15.6041 16.3527 15.646 16.3527H18.1157C18.1646 16.3527 18.2004 16.3981 18.1961 16.4461C18.1786 16.6068 18.2083 16.771 18.2843 16.9203C18.431 17.2181 18.7349 17.4041 19.0632 17.4041H20.2859V16.4496H19.0772C19.0152 16.4496 18.9785 16.378 19.0143 16.3274C19.0275 16.3073 19.0423 16.2863 19.058 16.2627C19.1724 16.1003 19.3357 15.8479 19.4981 15.5606C19.6091 15.3667 19.7165 15.1598 19.8029 14.9519C19.8204 14.9144 19.8344 14.876 19.8483 14.8384C19.8719 14.772 19.8964 14.71 19.9138 14.648C19.9313 14.5956 19.9453 14.5406 19.9593 14.4891C20.0003 14.3127 20.0178 14.1258 20.0178 13.9319C20.0178 13.8559 20.0143 13.7765 20.0073 13.7005C20.0038 13.6175 19.9933 13.5346 19.9828 13.4516C19.9758 13.3782 19.9628 13.3058 19.9488 13.2298C19.9313 13.1189 19.9069 13.0088 19.8789 12.8979L19.8693 12.856C19.8483 12.78 19.8309 12.7075 19.8064 12.6316C19.7374 12.3932 19.658 12.1609 19.5741 11.9434C19.5436 11.857 19.5086 11.774 19.4737 11.691C19.4222 11.5661 19.3698 11.4526 19.3217 11.3452C19.2973 11.2963 19.2763 11.2518 19.2554 11.2064C19.2318 11.1548 19.2074 11.1033 19.1829 11.0544C19.1654 11.0168 19.1453 10.9819 19.1314 10.947L18.982 10.671C18.9611 10.6335 18.996 10.5889 19.037 10.6003L19.9715 10.8535H19.9741C19.9758 10.8535 19.9767 10.8544 19.9776 10.8544L20.1007 10.8885L20.2361 10.9269L20.2859 10.9409V10.3855C20.2859 10.1174 20.5007 9.8999 20.7662 9.8999C20.8989 9.8999 21.0194 9.95404 21.1059 10.0422C21.1923 10.1305 21.2465 10.251 21.2465 10.3855V11.2098L21.346 11.2378C21.3539 11.2404 21.3618 11.2439 21.3687 11.2491C21.3932 11.2675 21.4281 11.2946 21.4727 11.3277C21.5076 11.3557 21.5452 11.3897 21.5906 11.4247C21.6805 11.4972 21.7879 11.5906 21.9058 11.698C21.9373 11.7251 21.9678 11.753 21.9958 11.781C22.1477 11.9224 22.318 12.0884 22.4805 12.2718C22.5259 12.3233 22.5704 12.3757 22.6158 12.4307C22.6612 12.4866 22.7093 12.5416 22.7512 12.5967C22.8062 12.67 22.8656 12.746 22.9171 12.8255C22.9416 12.863 22.9695 12.9014 22.9931 12.939C23.0595 13.0394 23.118 13.1433 23.1739 13.2472C23.1974 13.2953 23.2219 13.3477 23.2428 13.3992C23.3048 13.5381 23.3538 13.6795 23.3852 13.821C23.3948 13.8516 23.4018 13.8848 23.4053 13.9145V13.9214C23.4158 13.9634 23.4193 14.0079 23.4227 14.0533C23.4367 14.1983 23.4297 14.3432 23.3983 14.4891C23.3852 14.5511 23.3677 14.6096 23.3468 14.6716C23.3258 14.731 23.3048 14.793 23.2778 14.8515C23.2254 14.9729 23.1634 15.0943 23.09 15.2078C23.0664 15.2497 23.0385 15.2942 23.0106 15.3362C22.98 15.3807 22.9485 15.4226 22.9206 15.4637C22.8822 15.5161 22.8411 15.5711 22.7992 15.62C22.7617 15.6715 22.7232 15.723 22.6813 15.7685C22.6228 15.8374 22.5669 15.9029 22.5084 15.9658C22.4735 16.0069 22.4359 16.0488 22.3975 16.0863C22.3599 16.1282 22.3215 16.1658 22.2866 16.2007C22.2281 16.2592 22.1792 16.3047 22.1381 16.3422L22.0421 16.4304C22.0281 16.4426 22.0097 16.4496 21.9905 16.4496H21.2465V17.4041H22.1827C22.3923 17.4041 22.5914 17.3299 22.7521 17.1937C22.8071 17.1456 23.0472 16.9378 23.3311 16.6243C23.3407 16.6138 23.3529 16.6059 23.3669 16.6025L25.9527 15.8549C26.0007 15.8409 26.0496 15.8776 26.0496 15.9283Z" fill="#2081E2"/>
</g>
<path d="M36.9297 10.5605C37.6178 10.5605 38.2673 10.6904 38.8779 10.9502C39.4932 11.2054 40.0195 11.5563 40.457 12.0029C40.8991 12.445 41.2477 12.9759 41.5029 13.5957C41.7581 14.2155 41.8857 14.874 41.8857 15.5713C41.8857 16.2777 41.7581 16.9453 41.5029 17.5742C41.2477 18.1986 40.8991 18.7363 40.457 19.1875C40.0195 19.6341 39.4932 19.9873 38.8779 20.2471C38.2673 20.5068 37.6178 20.6367 36.9297 20.6367C36.237 20.6367 35.583 20.5068 34.9678 20.2471C34.3571 19.9873 33.833 19.6341 33.3955 19.1875C32.958 18.7363 32.6117 18.1986 32.3564 17.5742C32.1012 16.9453 31.9736 16.2777 31.9736 15.5713C31.9736 14.6416 32.1878 13.7939 32.6162 13.0283C33.0492 12.2627 33.6439 11.6611 34.4004 11.2236C35.1615 10.7816 36.0046 10.5605 36.9297 10.5605ZM38.7412 12.3516C38.1943 12.0234 37.5905 11.8594 36.9297 11.8594C36.2689 11.8594 35.665 12.0234 35.1182 12.3516C34.5713 12.6751 34.1406 13.1217 33.8262 13.6914C33.5163 14.2611 33.3613 14.8877 33.3613 15.5713C33.3613 16.6331 33.7031 17.5264 34.3867 18.251C35.0749 18.9756 35.9225 19.3379 36.9297 19.3379C37.9368 19.3379 38.7822 18.9756 39.4658 18.251C40.154 17.5264 40.498 16.6331 40.498 15.5713C40.498 14.8877 40.3408 14.2611 40.0264 13.6914C39.7165 13.1217 39.2881 12.6751 38.7412 12.3516ZM47.2998 13.5273C47.9105 13.5273 48.471 13.6846 48.9814 13.999C49.4919 14.3135 49.8952 14.7441 50.1914 15.291C50.4876 15.8379 50.6357 16.4349 50.6357 17.082C50.6357 17.7292 50.4876 18.3262 50.1914 18.873C49.8952 19.4199 49.4919 19.8506 48.9814 20.165C48.471 20.4795 47.9105 20.6367 47.2998 20.6367C46.7119 20.6367 46.1969 20.5068 45.7549 20.2471C45.3174 19.9827 44.971 19.609 44.7158 19.126V22.9746H43.4102V13.6709H44.7158V15.0381C44.971 14.555 45.3174 14.1836 45.7549 13.9238C46.1969 13.6595 46.7119 13.5273 47.2998 13.5273ZM47.04 19.4062C47.6872 19.4062 48.234 19.1829 48.6807 18.7363C49.1318 18.2852 49.3574 17.7337 49.3574 17.082C49.3574 16.4303 49.1318 15.8812 48.6807 15.4346C48.234 14.9834 47.6872 14.7578 47.04 14.7578C46.3701 14.7578 45.8141 14.9788 45.3721 15.4209C44.9346 15.8584 44.7158 16.4121 44.7158 17.082C44.7158 17.752 44.9346 18.3079 45.3721 18.75C45.8141 19.1875 46.3701 19.4062 47.04 19.4062ZM58.2988 16.918C58.2988 17.1139 58.2897 17.2848 58.2715 17.4307H52.7822C52.8597 18.055 53.099 18.5518 53.5 18.9209C53.9056 19.29 54.4229 19.4746 55.0518 19.4746C55.5303 19.4746 55.9427 19.3675 56.2891 19.1533C56.6354 18.9346 56.8519 18.6452 56.9385 18.2852H58.2305C58.1029 18.9961 57.7428 19.5658 57.1504 19.9941C56.5579 20.4225 55.8447 20.6367 55.0107 20.6367C54.0173 20.6367 53.1855 20.2949 52.5156 19.6113C51.8457 18.9232 51.5107 18.071 51.5107 17.0547C51.5107 16.4076 51.6634 15.8151 51.9688 15.2773C52.2741 14.735 52.6934 14.3089 53.2266 13.999C53.7643 13.6846 54.3545 13.5273 54.9971 13.5273C55.9222 13.5273 56.7038 13.8486 57.3418 14.4912C57.9798 15.1338 58.2988 15.9427 58.2988 16.918ZM52.8232 16.3438H56.8975C56.8428 15.8607 56.6354 15.4665 56.2754 15.1611C55.9199 14.8558 55.4756 14.7031 54.9424 14.7031C54.4046 14.7031 53.9466 14.849 53.5684 15.1406C53.1901 15.4323 52.9417 15.8333 52.8232 16.3438ZM63.207 13.5273C64.0866 13.5273 64.7816 13.8031 65.292 14.3545C65.807 14.9059 66.0645 15.6533 66.0645 16.5967V20.5H64.7725V16.7334C64.7725 16.1364 64.6038 15.6579 64.2666 15.2979C63.9294 14.9378 63.4782 14.7578 62.9131 14.7578C62.3389 14.7578 61.8809 14.9378 61.5391 15.2979C61.1973 15.6579 61.0264 16.1364 61.0264 16.7334V20.5H59.7207V13.6709H61.0264V14.8604C61.2451 14.4365 61.5413 14.1084 61.915 13.876C62.2933 13.6436 62.724 13.5273 63.207 13.5273ZM70.2617 20.6367C69.4596 20.6367 68.7965 20.4362 68.2725 20.0352C67.7529 19.6341 67.459 19.0895 67.3906 18.4014H68.6279C68.6689 18.7386 68.833 19.0098 69.1201 19.2148C69.4118 19.4199 69.7741 19.5225 70.207 19.5225C70.6309 19.5225 70.9704 19.4336 71.2256 19.2559C71.4808 19.0736 71.6084 18.8389 71.6084 18.5518C71.6084 18.3239 71.5332 18.137 71.3828 17.9912C71.2324 17.8454 71.0387 17.7383 70.8018 17.6699C70.5648 17.597 70.3005 17.5332 70.0088 17.4785C69.7217 17.4238 69.4323 17.36 69.1406 17.2871C68.8535 17.2096 68.5915 17.1094 68.3545 16.9863C68.1175 16.8633 67.9238 16.681 67.7734 16.4395C67.623 16.1934 67.5479 15.8949 67.5479 15.5439C67.5479 14.9561 67.778 14.473 68.2383 14.0947C68.6986 13.7165 69.3047 13.5273 70.0566 13.5273C70.763 13.5273 71.3691 13.7119 71.875 14.0811C72.3809 14.4456 72.6748 14.9469 72.7568 15.585H71.4512C71.4102 15.307 71.2575 15.0768 70.9932 14.8945C70.7334 14.7122 70.4098 14.6211 70.0225 14.6211C69.6624 14.6211 69.3685 14.6963 69.1406 14.8467C68.9173 14.9971 68.8057 15.1976 68.8057 15.4482C68.8057 15.667 68.8809 15.8447 69.0312 15.9814C69.1816 16.1136 69.3753 16.2116 69.6123 16.2754C69.8493 16.3392 70.1113 16.3962 70.3984 16.4463C70.6901 16.4964 70.9795 16.5625 71.2666 16.6445C71.5583 16.722 71.8226 16.8268 72.0596 16.959C72.2965 17.0911 72.4902 17.2894 72.6406 17.5537C72.791 17.818 72.8662 18.1416 72.8662 18.5244C72.8662 19.1305 72.6178 19.6341 72.1211 20.0352C71.6243 20.4362 71.0046 20.6367 70.2617 20.6367ZM80.666 16.918C80.666 17.1139 80.6569 17.2848 80.6387 17.4307H75.1494C75.2269 18.055 75.4661 18.5518 75.8672 18.9209C76.2728 19.29 76.79 19.4746 77.4189 19.4746C77.8975 19.4746 78.3099 19.3675 78.6562 19.1533C79.0026 18.9346 79.2191 18.6452 79.3057 18.2852H80.5977C80.4701 18.9961 80.11 19.5658 79.5176 19.9941C78.9251 20.4225 78.2119 20.6367 77.3779 20.6367C76.3844 20.6367 75.5527 20.2949 74.8828 19.6113C74.2129 18.9232 73.8779 18.071 73.8779 17.0547C73.8779 16.4076 74.0306 15.8151 74.3359 15.2773C74.6413 14.735 75.0605 14.3089 75.5938 13.999C76.1315 13.6846 76.7217 13.5273 77.3643 13.5273C78.2894 13.5273 79.071 13.8486 79.709 14.4912C80.347 15.1338 80.666 15.9427 80.666 16.918ZM75.1904 16.3438H79.2646C79.21 15.8607 79.0026 15.4665 78.6426 15.1611C78.2871 14.8558 77.8428 14.7031 77.3096 14.7031C76.7718 14.7031 76.3138 14.849 75.9355 15.1406C75.5573 15.4323 75.3089 15.8333 75.1904 16.3438ZM87.4678 13.6709H88.7598V20.5H87.4678V19.0986C87.2126 19.5954 86.8639 19.9759 86.4219 20.2402C85.9798 20.5046 85.4603 20.6367 84.8633 20.6367C83.9427 20.6367 83.1589 20.2926 82.5117 19.6045C81.8691 18.9118 81.5479 18.071 81.5479 17.082C81.5479 16.0931 81.8691 15.2546 82.5117 14.5664C83.1589 13.8737 83.9427 13.5273 84.8633 13.5273C85.4603 13.5273 85.9798 13.6595 86.4219 13.9238C86.8639 14.1882 87.2126 14.5687 87.4678 15.0654V13.6709ZM85.1299 19.4062C85.8044 19.4062 86.3626 19.1875 86.8047 18.75C87.2467 18.3125 87.4678 17.7565 87.4678 17.082C87.4678 16.4076 87.2467 15.8516 86.8047 15.4141C86.3626 14.9766 85.8044 14.7578 85.1299 14.7578C84.4827 14.7578 83.9336 14.9834 83.4824 15.4346C83.0312 15.8857 82.8057 16.4349 82.8057 17.082C82.8057 17.7292 83.0312 18.2783 83.4824 18.7295C83.9336 19.1807 84.4827 19.4062 85.1299 19.4062Z" fill="white"/>
<defs>
<clipPath id="clip0_194_6381">
<rect width="17" height="17" fill="white" transform="translate(12 6.5)"/>
</clipPath>
</defs>
</svg>
