<svg width="135" height="39" viewBox="0 0 135 39" fill="none" xmlns="http://www.w3.org/2000/svg">
<rect x="17.247" y="5.74902" width="10.8765" height="10.8765" fill="#FF0083"/>
<rect x="32.008" y="5.74902" width="6.99203" height="6.99203" fill="#FF0083" fill-opacity="0.5"/>
<rect x="6.37051" y="9.01196" width="4.3506" height="4.3506" fill="#FF0083" fill-opacity="0.3"/>
<rect x="11.498" width="5.749" height="5.749" fill="#FF0083" fill-opacity="0.9"/>
<rect x="28.1235" y="16.6255" width="10.8765" height="10.8765" fill="#FF0083" fill-opacity="0.8"/>
<rect x="28.1235" y="27.502" width="10.8765" height="10.8765" fill="#FF0083"/>
<rect x="17.247" y="27.502" width="10.8765" height="10.8765" fill="#FF0083" fill-opacity="0.9"/>
<rect x="6.37051" y="16.6255" width="10.8765" height="10.8765" fill="#FF0083" fill-opacity="0.6"/>
<rect y="27.502" width="6.37052" height="6.37052" fill="#FF0083" fill-opacity="0.7"/>
<path d="M55.4652 27.1892V14.8836H49V11.1892H67.2818V14.8836H60.7351V27.1892H55.4652Z" fill="#121212"/>
<path d="M70.267 27.1892V13.3895L69.9953 11.2164H82.5997C84.791 11.2164 86.43 11.651 87.5165 12.5203C88.6212 13.3895 89.1736 14.7478 89.1736 16.595V21.7834C89.1736 23.6669 88.6303 25.0432 87.5437 25.9125C86.4571 26.7636 84.8091 27.1892 82.5997 27.1892H70.267ZM75.5641 23.4405H81.7848C83.1793 23.4405 83.8855 22.7976 83.9036 21.5118V16.8123C83.9036 16.2871 83.7497 15.8434 83.4418 15.4812C83.134 15.1009 82.5816 14.9108 81.7848 14.9108H75.5641V23.4405Z" fill="#121212"/>
<path d="M93.2402 27.1892V13.3895L92.9686 11.2164H97.9669L105.627 18.9855L106.687 20.1807H106.986V11.2164H112.201V27.1892H107.665L99.7869 19.3386L98.7275 18.0619H98.4559V27.1892H93.2402Z" fill="#121212"/>
<path d="M119.622 27.1892C118.39 27.1892 117.485 27.1349 116.905 27.0262C116.326 26.9176 116.036 26.7908 116.036 26.6459L117.666 23.1417C118.082 23.2141 118.942 23.2865 120.246 23.359C121.55 23.4133 123.244 23.4405 125.326 23.4405H127.472C128.106 23.4405 128.532 23.3499 128.749 23.1688C128.966 22.9877 129.075 22.7251 129.075 22.3811V22.1094C129.075 21.6748 128.966 21.376 128.749 21.213C128.532 21.05 128.106 20.9685 127.472 20.9685H121.251C119.422 20.9685 118.091 20.6335 117.258 19.9634C116.425 19.2752 116.009 18.1615 116.009 16.6221V15.6442C116.009 14.8474 116.154 14.1139 116.443 13.4439C116.751 12.7738 117.267 12.2396 117.992 11.8412C118.716 11.4246 119.712 11.2164 120.98 11.2164H129.999C131.103 11.2164 132.018 11.2798 132.742 11.4065C133.485 11.5333 133.856 11.6691 133.856 11.814L133.041 15.1824C132.534 15.1281 131.574 15.0738 130.161 15.0194C128.767 14.947 126.992 14.9108 124.837 14.9108L122.881 14.8836C122.32 14.8836 121.922 14.9651 121.686 15.1281C121.451 15.273 121.324 15.5537 121.306 15.9702V16.1603C121.306 16.5769 121.433 16.8666 121.686 17.0296C121.94 17.1926 122.347 17.2741 122.909 17.2741H128.885C130.044 17.2741 131.031 17.3918 131.846 17.6272C132.661 17.8627 133.285 18.2973 133.72 18.9311C134.155 19.5469 134.372 20.4614 134.372 21.6748V22.6527C134.372 24.0109 134.019 25.1066 133.313 25.9396C132.624 26.7727 131.42 27.1892 129.7 27.1892H119.622Z" fill="#121212"/>
</svg>
