<svg width="148" height="148" viewBox="0 0 148 148" fill="none" xmlns="http://www.w3.org/2000/svg">
<path fill-rule="evenodd" clip-rule="evenodd" d="M0 74C0 54.374 7.79641 35.5518 21.6741 21.6741C35.5518 7.79641 54.374 0 74 0C93.626 0 112.448 7.79641 126.326 21.6741C140.204 35.5518 148 54.374 148 74C148 93.626 140.204 112.448 126.326 126.326C112.448 140.204 93.626 148 74 148C54.374 148 35.5518 140.204 21.6741 126.326C7.79641 112.448 0 93.626 0 74H0ZM69.7771 105.672L112.381 52.4117L104.685 46.2549L68.3563 91.6515L42.624 70.2112L36.3093 77.7888L69.7771 105.682V105.672Z" fill="#36AB61"/>
</svg>
