<svg width="258" height="45" viewBox="0 0 258 45" fill="none" xmlns="http://www.w3.org/2000/svg">
<path fill-rule="evenodd" clip-rule="evenodd" d="M0 1.29103C6.09408 -1.73854 13.4902 0.745742 16.5198 6.83982L27.2779 28.4802C30.3075 34.5743 27.8232 41.9704 21.7291 45L0 1.29103ZM23.4129 1.29103C29.507 -1.73854 36.9032 0.745742 39.9327 6.83982L50.6909 28.4802C53.7204 34.5743 51.2361 41.9704 45.1421 45L23.4129 1.29103ZM63.3457 6.83982C60.3162 0.745743 52.92 -1.73854 46.8259 1.29103L58.7165 25.2094C64.8106 22.1799 67.2949 14.7837 64.2653 8.68962L63.3457 6.83982Z" fill="url(#paint0_linear_36_9)"/>
<path d="M112.073 11.5158L106.832 32.8006H100.033L97.9948 23.5267C97.956 23.352 97.8929 23.056 97.8055 22.6386C97.7279 22.2213 97.6357 21.7457 97.5289 21.2119C97.4319 20.678 97.3396 20.1539 97.2523 19.6395C97.1746 19.1154 97.1164 18.6738 97.0776 18.3147C97.0388 18.6738 96.9757 19.1154 96.8883 19.6395C96.801 20.1539 96.7039 20.678 96.5972 21.2119C96.5001 21.7457 96.403 22.2213 96.306 22.6386C96.2186 23.056 96.1555 23.352 96.1167 23.5267L94.0639 32.8006H87.265L81.9948 11.5158H87.5416L89.8565 22.1873C89.9147 22.4494 89.9923 22.823 90.0894 23.3083C90.1962 23.7839 90.3029 24.308 90.4097 24.8807C90.5262 25.4436 90.6329 25.9871 90.73 26.5112C90.827 27.0354 90.895 27.4721 90.9338 27.8215C91.0115 27.2198 91.1134 26.5355 91.2395 25.7687C91.3754 25.002 91.521 24.2255 91.6763 23.4394C91.8413 22.6435 91.9966 21.9058 92.1422 21.2264C92.2878 20.547 92.4139 19.9938 92.5207 19.5667L94.3988 11.5158H99.7273L101.547 19.5667C101.644 19.9841 101.765 20.5373 101.911 21.2264C102.066 21.9058 102.222 22.6435 102.377 23.4394C102.542 24.2352 102.692 25.0214 102.828 25.7979C102.964 26.5646 103.066 27.2392 103.134 27.8215C103.192 27.3362 103.289 26.7248 103.425 25.9871C103.561 25.2398 103.697 24.5167 103.833 23.8179C103.978 23.1094 104.09 22.5755 104.168 22.2164L106.526 11.5158H112.073Z" fill="black"/>
<path d="M134.741 22.1291C134.741 23.7694 134.542 25.264 134.144 26.6132C133.756 27.9526 133.144 29.1076 132.31 30.0781C131.475 31.0487 130.403 31.7961 129.092 32.3202C127.782 32.8346 126.214 33.0918 124.39 33.0918C122.604 33.0918 121.056 32.8346 119.746 32.3202C118.445 31.7961 117.372 31.0536 116.528 30.0927C115.684 29.1221 115.058 27.9623 114.65 26.6132C114.242 25.264 114.039 23.7596 114.039 22.1C114.039 19.887 114.402 17.9653 115.13 16.3347C115.868 14.6944 117.004 13.4278 118.537 12.5349C120.071 11.6322 122.031 11.1809 124.419 11.1809C126.845 11.1809 128.816 11.6322 130.33 12.5349C131.854 13.4375 132.97 14.709 133.678 16.3493C134.387 17.9895 134.741 19.9161 134.741 22.1291ZM120.095 22.1291C120.095 23.4102 120.241 24.5118 120.532 25.4339C120.823 26.356 121.284 27.0645 121.915 27.5595C122.546 28.0545 123.371 28.302 124.39 28.302C125.448 28.302 126.287 28.0545 126.908 27.5595C127.539 27.0645 127.991 26.356 128.262 25.4339C128.544 24.5118 128.685 23.4102 128.685 22.1291C128.685 20.2073 128.364 18.6884 127.724 17.5722C127.083 16.456 125.982 15.8979 124.419 15.8979C123.38 15.8979 122.541 16.1503 121.9 16.655C121.269 17.1597 120.808 17.8779 120.517 18.8097C120.236 19.7414 120.095 20.8479 120.095 22.1291Z" fill="black"/>
<path d="M145.558 11.5158C147.49 11.5158 149.096 11.7536 150.377 12.2291C151.658 12.695 152.619 13.3938 153.26 14.3256C153.91 15.2574 154.235 16.4172 154.235 17.8051C154.235 18.6689 154.09 19.4551 153.798 20.1636C153.507 20.8722 153.09 21.5079 152.546 22.0708C152.013 22.6241 151.372 23.1094 150.625 23.5267L156.827 32.8006H150.304L145.791 25.0554H144.335V32.8006H138.585V11.5158H145.558ZM145.471 15.8688H144.335V20.7314H145.413C146.296 20.7314 147.019 20.5373 147.582 20.1491C148.145 19.7608 148.426 19.0669 148.426 18.0672C148.426 17.3781 148.193 16.8394 147.727 16.4512C147.262 16.0629 146.509 15.8688 145.471 15.8688Z" fill="black"/>
<path d="M176.83 21.7069C176.83 24.1818 176.369 26.2395 175.447 27.8798C174.525 29.52 173.225 30.7527 171.545 31.5777C169.876 32.393 167.911 32.8006 165.649 32.8006H158.763V11.5158H166.13C168.42 11.5158 170.361 11.9088 171.953 12.695C173.545 13.4812 174.753 14.6313 175.578 16.1454C176.413 17.6595 176.83 19.5134 176.83 21.7069ZM170.861 21.9107C170.861 20.6198 170.686 19.5522 170.337 18.7078C169.997 17.8537 169.483 17.2179 168.794 16.8006C168.105 16.3735 167.236 16.16 166.188 16.16H164.514V28.0836H165.795C167.542 28.0836 168.823 27.5789 169.638 26.5695C170.454 25.5504 170.861 23.9974 170.861 21.9107Z" fill="black"/>
<path d="M194.577 26.3365C194.577 27.4915 194.286 28.5883 193.704 29.6268C193.121 30.6556 192.214 31.4903 190.981 32.1309C189.758 32.7715 188.176 33.0918 186.235 33.0918C185.265 33.0918 184.411 33.0481 183.673 32.9608C182.945 32.8734 182.266 32.7327 181.635 32.5386C181.004 32.3347 180.349 32.0727 179.669 31.7524V26.6277C180.824 27.2101 181.989 27.6565 183.163 27.9671C184.338 28.268 185.401 28.4184 186.352 28.4184C186.924 28.4184 187.39 28.3505 187.749 28.2146C188.118 28.0787 188.39 27.8943 188.565 27.6614C188.739 27.4187 188.827 27.1421 188.827 26.8315C188.827 26.4627 188.696 26.1521 188.434 25.8998C188.181 25.6377 187.774 25.366 187.211 25.0845C186.648 24.803 185.905 24.4536 184.983 24.0363C184.197 23.6674 183.484 23.2889 182.843 22.9007C182.212 22.5124 181.669 22.0708 181.212 21.5758C180.766 21.0711 180.421 20.4839 180.179 19.8142C179.936 19.1445 179.815 18.3535 179.815 17.4412C179.815 16.0726 180.15 14.9274 180.819 14.0053C181.499 13.0735 182.44 12.3747 183.644 11.9088C184.857 11.443 186.255 11.21 187.837 11.21C189.225 11.21 190.472 11.3653 191.578 11.6759C192.694 11.9865 193.694 12.3408 194.577 12.7387L192.816 17.1791C191.903 16.7618 191.006 16.4318 190.122 16.1891C189.239 15.9368 188.419 15.8106 187.662 15.8106C187.167 15.8106 186.759 15.8737 186.439 15.9998C186.128 16.1163 185.896 16.2765 185.74 16.4803C185.595 16.6841 185.522 16.917 185.522 17.1791C185.522 17.5091 185.648 17.8051 185.9 18.0672C186.162 18.3292 186.594 18.6156 187.196 18.9261C187.808 19.227 188.637 19.6201 189.686 20.1054C190.724 20.5713 191.607 21.076 192.335 21.6195C193.063 22.1533 193.616 22.7988 193.995 23.5558C194.383 24.3032 194.577 25.2301 194.577 26.3365Z" fill="black"/>
<path d="M222.865 32.8006H220.011L208.408 14.9225H208.292C208.321 15.3981 208.355 15.9416 208.394 16.5531C208.432 17.1548 208.462 17.8003 208.481 18.4894C208.51 19.1688 208.525 19.8628 208.525 20.5713V32.8006H206.224V11.5158H209.063L220.623 29.3356H220.725C220.705 28.9959 220.681 28.5155 220.652 27.8943C220.623 27.2634 220.594 26.5889 220.565 25.8707C220.545 25.1427 220.536 24.4682 220.536 23.847V11.5158H222.865V32.8006Z" fill="black"/>
<path d="M231.149 32.8006H228.674V11.5158H240.525V13.6996H231.149V21.503H239.957V23.6723H231.149V32.8006Z" fill="black"/>
<path d="M250.614 32.8006H248.124V13.6996H241.427V11.5158H257.282V13.6996H250.614V32.8006Z" fill="black"/>
<defs>
<linearGradient id="paint0_linear_36_9" x1="32.7782" y1="0" x2="32.7782" y2="45" gradientUnits="userSpaceOnUse">
<stop stop-color="#8A56E1"/>
<stop offset="1" stop-color="#D836F9"/>
</linearGradient>
</defs>
</svg>
