<svg width="787" height="741" viewBox="0 0 787 741" fill="none" xmlns="http://www.w3.org/2000/svg">
<g style="mix-blend-mode:multiply" opacity="0.02439">
<path d="M330.255 720.592L30.3168 523.238C-10.7191 496.236 -5.49589 449.225 41.9841 418.234L295.603 252.692C343.083 221.7 414.839 218.466 455.876 245.467L755.814 442.821C796.85 469.822 791.626 516.835 744.147 547.825L490.527 713.368C443.047 744.358 371.291 747.593 330.255 720.592Z" fill="#FCF9FD"/>
</g>
<g style="mix-blend-mode:multiply" opacity="0.04878">
<path d="M330.682 718.976L32.784 522.964C-7.97292 496.147 -2.78512 449.456 44.3718 418.674L296.266 254.258C343.423 223.478 414.691 220.266 455.449 247.083L753.347 443.094C794.104 469.912 788.915 516.605 741.759 547.385L489.864 711.801C442.708 742.581 371.439 745.794 330.682 718.976Z" fill="#F9F3FC"/>
</g>
<g style="mix-blend-mode:multiply" opacity="0.07317">
<path d="M331.109 717.36L35.2511 522.691C-5.22667 496.057 -0.0743638 449.685 46.7595 419.115L296.929 255.825C343.763 225.255 414.543 222.065 455.021 248.699L750.879 443.368C791.357 470.002 786.204 516.375 739.371 546.944L489.201 710.234C442.368 740.804 371.587 743.995 331.109 717.36Z" fill="#F6ECFA"/>
</g>
<g style="mix-blend-mode:multiply" opacity="0.09756">
<path d="M331.536 715.744L37.7184 522.417C-2.48043 495.967 2.63627 449.915 49.1473 419.556L297.591 257.391C344.103 227.032 414.395 223.864 454.594 250.315L748.412 443.641C788.611 470.092 783.493 516.145 736.983 546.503L488.538 708.668C442.028 739.026 371.736 742.195 331.536 715.744Z" fill="#F3E6F8"/>
</g>
<g style="mix-blend-mode:multiply" opacity="0.12195">
<path d="M331.964 714.129L40.1854 522.144C0.265784 495.877 5.34706 450.145 51.5351 419.997L298.254 258.958C344.443 228.81 414.247 225.664 454.167 251.93L745.945 443.915C785.865 470.182 780.783 515.915 734.595 546.063L487.875 707.102C441.688 737.249 371.884 740.396 331.964 714.129Z" fill="#F0E0F7"/>
</g>
<g style="mix-blend-mode:multiply" opacity="0.14634">
<path d="M332.391 712.513L42.6527 521.871C3.01203 495.787 8.05769 450.375 53.9229 420.437L298.917 260.525C344.783 230.587 414.099 227.463 453.74 253.546L743.478 444.188C783.119 470.271 778.072 515.685 732.208 545.622L487.213 705.535C441.348 735.472 372.032 738.596 332.391 712.513Z" fill="#EEDAF5"/>
</g>
<g style="mix-blend-mode:multiply" opacity="0.17073">
<path d="M332.818 710.897L45.1197 521.597C5.75823 495.698 10.7685 450.605 56.3109 420.878L299.58 262.091C345.123 232.364 413.951 229.262 453.313 255.162L741.011 444.462C780.373 470.361 775.362 515.455 729.82 545.181L486.55 703.968C441.008 733.694 372.18 736.797 332.818 710.897Z" fill="#EBD3F3"/>
</g>
<g style="mix-blend-mode:multiply" opacity="0.19512">
<path d="M333.245 709.282L47.5869 521.324C8.5044 495.608 13.4792 450.835 58.6986 421.319L300.243 263.658C345.463 234.142 413.803 231.062 452.885 256.778L738.543 444.735C777.626 470.451 772.651 515.226 727.432 544.74L485.887 702.402C440.668 731.917 372.328 734.998 333.245 709.282Z" fill="#E8CDF2"/>
</g>
<g style="mix-blend-mode:multiply" opacity="0.21951">
<path d="M333.672 707.666L50.054 521.05C11.2508 495.518 16.1898 451.064 61.0863 421.759L300.906 265.224C345.803 235.919 413.655 232.861 452.458 258.393L736.076 445.009C774.88 470.541 769.94 514.995 725.044 544.3L485.224 700.835C440.328 730.14 372.476 733.198 333.672 707.666Z" fill="#E5C7F0"/>
</g>
<g style="mix-blend-mode:multiply" opacity="0.2439">
<path d="M334.099 706.05L52.5212 520.777C13.997 495.428 18.9005 451.294 63.474 422.2L301.569 266.791C346.142 237.697 413.506 234.66 452.031 260.009L733.609 445.282C772.133 470.631 767.229 514.765 722.656 543.859L484.561 699.268C439.988 728.362 372.624 731.399 334.099 706.05Z" fill="#E2C1EE"/>
</g>
<g style="mix-blend-mode:multiply" opacity="0.26829">
<path d="M334.527 704.435L54.9883 520.503C16.7433 495.338 21.6112 451.525 65.8619 422.641L302.232 268.358C346.482 239.474 413.358 236.46 451.604 261.625L731.142 445.556C769.387 470.721 764.519 514.536 720.269 543.418L483.898 697.702C439.648 726.585 372.772 729.6 334.527 704.435Z" fill="#DFBBEC"/>
</g>
<g style="mix-blend-mode:multiply" opacity="0.29268">
<path d="M334.954 702.819L57.4555 520.23C19.4895 495.248 24.322 451.754 68.2496 423.081L302.894 269.924C346.822 241.251 413.21 238.259 451.176 263.24L728.675 445.829C766.641 470.81 761.808 514.305 717.881 542.977L483.236 696.135C439.308 724.807 372.92 727.8 334.954 702.819Z" fill="#DCB4EB"/>
</g>
<g style="mix-blend-mode:multiply" opacity="0.31707">
<path d="M335.381 701.203L59.9226 519.956C22.2357 495.159 27.0327 451.984 70.6373 423.522L303.557 271.491C347.162 243.029 413.062 240.059 450.749 264.856L726.208 446.102C763.895 470.9 759.097 514.076 715.493 542.537L482.572 694.569C438.968 723.03 373.068 726.001 335.381 701.203Z" fill="#D9AEE9"/>
</g>
<g style="mix-blend-mode:multiply" opacity="0.34146">
<path d="M335.808 699.587L62.3898 519.683C24.982 495.069 29.7434 452.214 73.0251 423.962L304.22 273.057C347.502 244.806 412.914 241.858 450.322 266.472L723.74 446.376C761.149 470.99 756.386 513.846 713.105 542.096L481.91 693.002C438.628 721.253 373.216 724.201 335.808 699.587Z" fill="#D6A8E7"/>
</g>
<g style="mix-blend-mode:multiply" opacity="0.36585">
<path d="M336.235 697.972L64.8568 519.409C27.7281 494.979 32.4542 452.444 75.4131 424.403L304.883 274.624C347.842 246.584 412.766 243.657 449.895 268.088L721.273 446.649C758.402 471.08 753.676 513.616 710.717 541.655L481.247 691.435C438.288 719.475 373.364 722.402 336.235 697.972Z" fill="#D3A2E6"/>
</g>
<g style="mix-blend-mode:multiply" opacity="0.39024">
<path d="M336.663 696.356L67.3241 519.136C30.4744 494.889 35.1647 452.674 77.8009 424.844L305.546 276.19C348.182 248.361 412.618 245.456 449.468 269.703L718.806 446.923C755.656 471.17 750.965 513.386 708.329 541.215L480.584 689.869C437.948 717.698 373.512 720.603 336.663 696.356Z" fill="#D19BE4"/>
</g>
<g style="mix-blend-mode:multiply" opacity="0.41463">
<path d="M337.09 694.74L69.7912 518.862C33.2206 494.799 37.8755 452.904 80.1886 425.285L306.209 277.757C348.522 250.138 412.47 247.256 449.04 271.319L716.339 447.196C752.91 471.259 748.254 513.156 705.942 540.774L479.921 688.302C437.609 715.921 373.661 718.803 337.09 694.74Z" fill="#CE95E2"/>
</g>
<g style="mix-blend-mode:multiply" opacity="0.43902">
<path d="M337.517 693.124L72.2582 518.589C35.9668 494.709 40.5863 453.134 82.5764 425.725L306.872 279.323C348.862 251.916 412.322 249.055 448.613 272.935L713.872 447.47C750.163 471.349 745.544 512.926 703.554 540.333L479.258 686.735C437.269 714.143 373.809 717.004 337.517 693.124Z" fill="#CB8FE1"/>
</g>
<g style="mix-blend-mode:multiply" opacity="0.46341">
<path d="M337.944 691.509L74.7254 518.316C38.7132 494.62 43.2968 453.364 84.9641 426.166L307.534 280.89C349.202 253.693 412.173 250.855 448.186 274.551L711.404 447.743C747.417 471.439 742.833 512.696 701.166 539.893L478.595 685.169C436.928 712.366 373.957 715.205 337.944 691.509Z" fill="#C889DF"/>
</g>
<g style="mix-blend-mode:multiply" opacity="0.4878">
<path d="M338.371 689.893L77.1924 518.042C41.4594 494.53 46.0077 453.594 87.3519 426.607L308.197 282.457C349.542 255.471 412.025 252.654 447.759 276.166L708.937 448.017C744.671 471.529 740.122 512.466 698.778 539.452L477.932 683.602C436.588 710.589 374.105 713.405 338.371 689.893Z" fill="#C583DD"/>
</g>
<g style="mix-blend-mode:multiply" opacity="0.51219">
<path d="M338.799 688.277L79.6597 517.769C44.2056 494.44 48.7184 453.823 89.7396 427.047L308.86 284.023C349.882 257.248 411.877 254.453 447.332 277.782L706.47 448.29C741.925 471.619 737.411 512.236 696.39 539.011L477.269 682.036C436.249 708.811 374.253 711.606 338.799 688.277Z" fill="#C27CDC"/>
</g>
<g style="mix-blend-mode:multiply" opacity="0.53658">
<path d="M339.226 686.662L82.1268 517.495C46.9519 494.35 51.4291 454.054 92.1274 427.488L309.523 285.59C350.222 259.025 411.729 256.253 446.905 279.398L704.003 448.564C739.178 471.709 734.701 512.006 694.002 538.571L476.607 680.469C435.909 707.034 374.401 709.807 339.226 686.662Z" fill="#BF76DA"/>
</g>
<g style="mix-blend-mode:multiply" opacity="0.56098">
<path d="M339.653 685.046L84.594 517.222C49.6981 494.26 54.1398 454.283 94.5153 427.929L310.186 287.157C350.562 260.803 411.581 258.052 446.477 281.013L701.536 448.837C736.432 471.799 731.99 511.776 691.615 538.13L475.944 678.903C435.569 705.257 374.549 708.007 339.653 685.046Z" fill="#BC70D8"/>
</g>
<g style="mix-blend-mode:multiply" opacity="0.58537">
<path d="M340.08 683.43L87.0611 516.948C52.4444 494.171 56.8505 454.513 96.9031 428.369L310.849 288.723C350.902 262.58 411.433 259.851 446.05 282.629L699.069 449.111C733.686 471.888 729.279 511.546 689.227 537.689L475.281 677.336C435.229 703.479 374.697 706.208 340.08 683.43Z" fill="#B96AD7"/>
</g>
<g style="mix-blend-mode:multiply" opacity="0.60976">
<path d="M340.507 681.815L89.5283 516.675C55.1905 494.081 59.5612 454.743 99.2909 428.81L311.511 290.29C351.242 264.357 411.285 261.651 445.623 284.245L696.601 449.384C730.94 471.978 726.568 511.317 686.839 537.248L474.618 675.769C434.889 701.702 374.845 704.409 340.507 681.815Z" fill="#B664D5"/>
</g>
<g style="mix-blend-mode:multiply" opacity="0.63415">
<path d="M340.934 680.199L91.9954 516.401C57.9368 493.991 62.272 454.973 101.679 429.251L312.174 291.856C351.581 266.135 411.137 263.45 445.196 285.86L694.134 449.658C728.193 472.068 723.858 511.087 684.451 536.808L473.955 674.203C434.549 699.924 374.993 702.609 340.934 680.199Z" fill="#B45DD3"/>
</g>
<g style="mix-blend-mode:multiply" opacity="0.65854">
<path d="M341.362 678.583L94.4626 516.128C60.683 493.901 64.9827 455.203 104.066 429.691L312.837 293.423C351.922 267.912 410.988 265.249 444.768 287.476L691.667 449.931C725.447 472.158 721.147 510.857 682.064 536.367L473.292 672.636C434.209 698.147 375.141 700.81 341.362 678.583Z" fill="#B157D2"/>
</g>
<g style="mix-blend-mode:multiply" opacity="0.68293">
<path d="M341.789 676.967L96.9302 515.854C63.4297 493.811 67.6939 455.433 106.455 430.132L313.501 294.99C352.262 269.69 410.841 267.049 444.342 289.092L689.201 450.205C722.701 472.248 718.437 510.627 679.676 535.927L472.63 671.07C433.869 696.37 375.29 699.011 341.789 676.967Z" fill="#AE51D0"/>
</g>
<g style="mix-blend-mode:multiply" opacity="0.70732">
<path d="M342.216 675.351L99.3973 515.581C66.1761 493.722 70.4045 455.663 108.842 430.573L314.163 296.556C352.602 271.467 410.693 268.848 443.915 290.708L686.733 450.478C719.955 472.337 715.726 510.397 677.288 535.486L471.967 669.503C433.529 694.592 375.438 697.211 342.216 675.351Z" fill="#AB4BCE"/>
</g>
<g style="mix-blend-mode:multiply" opacity="0.73171">
<path d="M342.644 673.736L101.864 515.307C68.9223 493.632 73.1153 455.893 111.23 431.014L314.826 298.123C352.942 273.244 410.545 270.648 443.487 292.323L684.266 450.752C717.209 472.428 713.016 510.167 674.9 535.045L471.304 667.936C433.19 692.815 375.586 695.412 342.644 673.736Z" fill="#A844CD"/>
</g>
<g style="mix-blend-mode:multiply" opacity="0.7561">
<path d="M343.071 672.12L104.332 515.034C71.6685 493.542 75.826 456.123 113.618 431.454L315.489 299.689C353.282 275.022 410.396 272.447 443.06 293.939L681.799 451.025C714.462 472.517 710.305 509.937 672.513 534.604L470.641 666.37C432.849 691.038 375.734 693.612 343.071 672.12Z" fill="#A53ECB"/>
</g>
<g style="mix-blend-mode:multiply" opacity="0.78049">
<path d="M343.498 670.504L106.799 514.76C74.4148 493.452 78.5366 456.352 116.006 431.895L316.152 301.256C353.622 276.799 410.248 274.246 442.633 295.555L679.332 451.298C711.716 472.607 707.594 509.707 670.125 534.164L469.978 664.803C432.51 689.26 375.882 691.813 343.498 670.504Z" fill="#A238C9"/>
</g>
<g style="mix-blend-mode:multiply" opacity="0.80488">
<path d="M343.925 668.889L109.266 514.487C77.1609 493.362 81.2474 456.582 118.394 432.336L316.815 302.823C353.962 278.577 410.1 276.046 442.206 297.171L676.865 451.572C708.97 472.697 704.883 509.477 667.737 533.723L469.315 663.237C432.17 687.483 376.03 690.014 343.925 668.889Z" fill="#9F32C7"/>
</g>
<g style="mix-blend-mode:multiply" opacity="0.82927">
<path d="M344.352 667.273L111.733 514.214C79.9072 493.272 83.958 456.812 120.781 432.776L317.478 304.389C354.302 280.354 409.952 277.845 441.779 298.786L674.397 451.846C706.224 472.787 702.173 509.248 665.349 533.282L468.653 661.67C431.83 685.706 376.178 688.214 344.352 667.273Z" fill="#9C2CC6"/>
</g>
<g style="mix-blend-mode:multiply" opacity="0.85366">
<path d="M344.779 665.657L114.2 513.94C82.6534 493.182 86.6688 457.042 123.169 433.217L318.141 305.956C354.641 282.131 409.804 279.644 441.351 300.402L671.93 452.119C703.477 472.876 699.462 509.017 662.961 532.842L467.99 660.103C431.49 683.928 376.326 686.415 344.779 665.657Z" fill="#9925C4"/>
</g>
<g style="mix-blend-mode:multiply" opacity="0.87805">
<path d="M345.207 664.042L116.667 513.667C85.3996 493.093 89.3796 457.272 125.557 433.658L318.803 307.522C354.981 283.909 409.656 281.444 440.924 302.018L669.463 452.392C700.731 472.967 696.751 508.787 660.574 532.401L467.327 658.537C431.15 682.151 376.474 684.616 345.207 664.042Z" fill="#971FC2"/>
</g>
<g style="mix-blend-mode:multiply" opacity="0.90244">
<path d="M345.633 662.426L119.134 513.393C88.1454 493.003 92.0897 457.502 127.944 434.098L319.466 309.089C355.321 285.686 409.507 283.243 440.496 303.633L666.996 452.666C697.984 473.056 694.04 508.558 658.185 531.96L466.663 656.97C430.809 680.373 376.622 682.816 345.633 662.426Z" fill="#9419C1"/>
</g>
<g style="mix-blend-mode:multiply" opacity="0.92683">
<path d="M346.061 660.81L121.601 513.12C90.8916 492.913 94.8005 457.732 130.332 434.539L320.129 310.655C355.661 287.463 409.359 285.043 440.069 305.249L664.528 452.94C695.238 473.146 691.329 508.328 655.798 531.52L466.001 655.404C430.469 678.596 376.77 681.017 346.061 660.81Z" fill="#9113BF"/>
</g>
<g style="mix-blend-mode:multiply" opacity="0.95122">
<path d="M346.488 659.194L124.069 512.846C93.6385 492.823 97.5115 457.962 132.72 434.98L320.792 312.222C356.001 289.241 409.212 286.842 439.643 306.865L662.062 453.213C692.492 473.236 688.619 508.098 653.41 531.079L465.338 653.837C430.13 676.819 376.919 679.217 346.488 659.194Z" fill="#8E0CBD"/>
</g>
<g style="mix-blend-mode:multiply" opacity="0.97561">
<path d="M346.915 657.579L126.536 512.573C96.3847 492.733 100.222 458.192 135.108 435.42L321.455 313.789C356.341 291.018 409.064 288.641 439.215 308.481L659.594 453.486C689.746 473.326 685.908 507.868 651.023 530.638L464.675 652.27C429.79 675.041 377.067 677.418 346.915 657.579Z" fill="#8B06BC"/>
</g>
<g style="mix-blend-mode:multiply">
<path d="M347.343 655.963L129.003 512.299C99.1308 492.643 102.933 458.421 137.496 435.861L322.118 315.355C356.681 292.795 408.915 290.44 438.788 310.096L657.127 453.76C687 473.415 683.198 507.638 648.635 530.197L464.012 650.704C429.45 673.264 377.215 675.618 347.343 655.963Z" fill="#8800BA"/>
</g>
<path d="M711.077 450.822L710.839 410.867L668.217 401.049L444.236 253.673C410.809 231.679 352.358 234.313 313.682 259.558L107.089 394.405C105.396 395.509 103.793 396.648 102.231 397.801L75.0532 407.219V443.543L75.0781 443.544C75.3398 457.176 82.7344 470.167 97.5856 479.939L341.908 640.699C375.335 662.693 433.787 660.058 472.462 634.814L679.055 499.967C700.551 485.937 711.395 467.876 711.066 450.822H711.077Z" fill="url(#paint0_linear_36_22)"/>
<path d="M341.908 604.38L97.5858 443.619C64.1585 421.625 68.4137 383.33 107.089 358.085L313.682 223.239C352.358 197.995 410.809 195.36 444.236 217.355L688.559 378.114C721.986 400.109 717.731 438.404 679.055 463.648L472.462 598.495C433.787 623.739 375.335 626.374 341.908 604.38Z" fill="url(#paint1_linear_36_22)"/>
<path d="M329.718 173.837L300.627 154.694C299.847 154.069 298.938 153.683 297.988 153.573C297.038 153.463 296.079 153.632 295.203 154.064H295.203C295.179 154.079 295.156 154.096 295.132 154.111L177.227 231.232L217.47 405.046L334.778 328.319C336.76 327.249 338.04 324.425 338.046 320.305L338.247 192.414C338.258 185.261 334.439 176.944 329.718 173.837Z" fill="url(#paint2_linear_36_22)"/>
<path d="M211.987 404.455L182.895 385.311C178.174 382.205 174.356 373.888 174.367 366.735L174.567 238.844C174.579 231.692 178.415 228.412 183.136 231.518L212.227 250.662C216.949 253.768 220.767 262.085 220.756 269.238L220.555 397.129C220.544 404.282 216.708 407.562 211.987 404.455Z" fill="#AB95F9"/>
<path d="M206.144 389.338L187.526 377.086C185.86 375.727 184.499 373.943 183.551 371.879C182.603 369.814 182.095 367.525 182.068 365.197L182.132 250.915C182.139 246.337 184.594 244.238 187.615 246.226L206.234 258.478C207.899 259.837 209.261 261.62 210.209 263.685C211.157 265.75 211.665 268.038 211.692 270.366L211.628 384.65C211.621 389.227 209.166 391.326 206.144 389.338Z" fill="url(#paint3_linear_36_22)"/>
<path d="M196.598 371.712C194.932 370.353 193.571 368.569 192.623 366.505C191.675 364.44 191.167 362.151 191.139 359.823L191.202 248.606L187.624 246.252C184.603 244.263 182.147 246.362 182.14 250.94L182.076 365.223C182.104 367.551 182.612 369.839 183.559 371.904C184.507 373.969 185.869 375.753 187.534 377.112L206.153 389.364C209.175 391.352 211.63 389.253 211.637 384.675L211.639 381.61L196.598 371.712Z" fill="url(#paint4_linear_36_22)"/>
<path style="mix-blend-mode:overlay" d="M194.903 396.826L176.285 384.574C174.619 383.215 173.258 381.431 172.31 379.366C171.362 377.301 170.854 375.013 170.827 372.685L170.891 258.402C170.898 253.824 173.353 251.725 176.375 253.714L194.993 265.965C196.659 267.325 198.02 269.108 198.968 271.173C199.916 273.238 200.424 275.526 200.451 277.854L200.387 392.137C200.38 396.715 197.925 398.814 194.903 396.826Z" fill="url(#paint5_linear_36_22)"/>
<g style="mix-blend-mode:overlay">
<g style="mix-blend-mode:overlay">
<path d="M188.675 406.079C187.604 406.051 186.56 405.701 185.648 405.066L167.029 392.815C165.107 391.287 163.533 389.261 162.438 386.906C161.343 384.55 160.758 381.932 160.732 379.269L160.797 264.989C160.695 263.7 160.896 262.404 161.377 261.231C161.859 260.058 162.606 259.051 163.541 258.31C164.363 257.821 165.287 257.593 166.215 257.653C167.142 257.713 168.037 258.057 168.806 258.649L187.425 270.901C189.347 272.428 190.921 274.453 192.017 276.809C193.112 279.164 193.696 281.783 193.722 284.446L193.658 398.726C193.76 400.015 193.559 401.312 193.077 402.484C192.595 403.657 191.849 404.664 190.914 405.404C190.233 405.849 189.46 406.082 188.675 406.079V406.079ZM165.786 261.462C165.587 261.458 165.392 261.513 165.218 261.622C164.71 261.954 164.165 263.014 164.162 264.993L164.097 379.274C164.125 381.267 164.556 383.227 165.357 385.002C166.158 386.777 167.307 388.319 168.716 389.509L187.335 401.761C187.604 401.986 187.918 402.134 188.249 402.192C188.58 402.249 188.919 402.215 189.235 402.093C189.745 401.761 190.29 400.7 190.293 398.722L190.356 284.441C190.329 282.447 189.899 280.487 189.098 278.713C188.297 276.938 187.147 275.396 185.737 274.206L167.119 261.954C166.717 261.668 166.259 261.499 165.786 261.462V261.462Z" fill="#57FFFE"/>
</g>
</g>
<g style="mix-blend-mode:overlay">
<g style="mix-blend-mode:overlay">
<path d="M147.772 432.615C146.702 432.588 145.657 432.238 144.745 431.603L126.126 419.352C124.204 417.824 122.63 415.799 121.535 413.443C120.44 411.087 119.855 408.469 119.829 405.806L119.893 291.525C119.792 290.236 119.992 288.94 120.474 287.767C120.956 286.595 121.703 285.587 122.638 284.847C123.46 284.357 124.385 284.13 125.312 284.19C126.239 284.249 127.135 284.594 127.903 285.186L146.522 297.437C148.444 298.964 150.018 300.99 151.113 303.346C152.208 305.701 152.793 308.319 152.819 310.982L152.755 425.263C152.857 426.552 152.656 427.849 152.174 429.021C151.692 430.194 150.945 431.201 150.01 431.941C149.33 432.387 148.557 432.619 147.772 432.615V432.615ZM124.883 287.999C124.685 287.995 124.489 288.05 124.315 288.159C123.807 288.491 123.262 289.551 123.258 291.53L123.195 405.811C123.222 407.805 123.652 409.765 124.453 411.54C125.254 413.314 126.404 414.856 127.813 416.046L146.432 428.298C146.702 428.523 147.015 428.671 147.346 428.729C147.677 428.787 148.016 428.753 148.333 428.63C148.841 428.298 149.387 427.238 149.39 425.259L149.453 310.977C149.426 308.984 148.995 307.024 148.195 305.249C147.394 303.474 146.244 301.932 144.835 300.742L126.216 288.491C125.814 288.205 125.356 288.036 124.883 287.999Z" fill="#57FFFE"/>
</g>
</g>
<path style="mix-blend-mode:overlay" opacity="0.6" d="M206.121 389.542L187.503 377.291C185.837 375.931 184.476 374.148 183.528 372.083C182.58 370.018 182.072 367.73 182.045 365.402L182.109 251.119C182.116 246.541 184.571 244.442 187.593 246.43L206.211 258.682C207.877 260.041 209.238 261.825 210.186 263.89C211.134 265.954 211.642 268.243 211.67 270.571L211.605 384.854C211.598 389.432 209.143 391.531 206.121 389.542Z" fill="url(#paint6_linear_36_22)"/>
<g style="mix-blend-mode:overlay">
<path style="mix-blend-mode:overlay" d="M247.653 320.1L247.657 313.733C246.777 314.33 245.792 314.985 244.704 315.697L243.238 316.656L243.235 322.992L238.567 326.047L238.57 319.711L234.256 322.534L234.282 276.097L238.596 273.274L238.6 266.938L243.268 263.884L243.264 270.219L246.552 268.068C246.942 267.812 247.319 267.575 247.682 267.359L247.686 260.992L252.355 257.938L252.351 264.842C253.266 264.496 254.253 264.481 255.176 264.799C256.193 265.214 257.037 266.045 257.541 267.13C258.226 268.612 258.55 270.275 258.48 271.946C258.455 274.257 258.06 276.544 257.314 278.694C256.582 280.934 255.515 283.013 254.161 284.842C254.922 284.594 255.729 284.592 256.491 284.838C257.253 285.084 257.939 285.566 258.472 286.232C259.587 287.97 260.12 290.102 259.975 292.246C259.946 294.555 259.617 296.845 258.998 299.044C258.39 301.361 257.49 303.566 256.325 305.59C255.252 307.446 253.897 309.072 252.325 310.393L252.322 317.046L247.653 320.1ZM240.466 298.236L240.459 310.654L246.196 306.9C247.674 305.994 249.095 304.969 250.446 303.835C251.402 302.927 252.17 301.791 252.697 300.508C253.286 299.099 253.585 297.555 253.569 295.995C253.64 294.905 253.406 293.817 252.901 292.886C252.681 292.552 252.383 292.295 252.041 292.144C251.698 291.993 251.326 291.953 250.965 292.03C249.016 292.695 247.164 293.683 245.47 294.962L240.466 298.236ZM240.476 279.769L240.47 290.508L244.531 287.851C246.946 286.27 248.446 285.236 249.033 284.746C250.08 283.879 250.937 282.75 251.537 281.445C252.141 280.144 252.454 278.694 252.448 277.223C252.5 276.691 252.458 276.153 252.323 275.64C252.189 275.127 251.965 274.65 251.665 274.236C251.142 273.682 250.364 273.648 249.332 274.133C248.718 274.429 246.952 275.531 244.035 277.44L240.476 279.769Z" fill="url(#paint7_linear_36_22)"/>
</g>
<g style="mix-blend-mode:overlay">
<path style="mix-blend-mode:overlay" d="M250.411 322.254L250.414 315.887C249.534 316.484 248.55 317.139 247.462 317.851L245.996 318.81L245.993 325.146L241.325 328.201L241.328 321.865L237.014 324.688L237.04 278.251L241.353 275.428L241.357 269.093L246.025 266.038L246.022 272.374L249.309 270.222C249.7 269.966 250.077 269.729 250.44 269.513L250.444 263.147L255.112 260.092L255.108 266.996C256.024 266.65 257.011 266.635 257.934 266.953C258.951 267.368 259.795 268.199 260.298 269.284C260.983 270.766 261.307 272.429 261.238 274.1C261.213 276.411 260.818 278.698 260.072 280.848C259.339 283.088 258.273 285.167 256.918 286.996C257.68 286.748 258.487 286.746 259.249 286.992C260.011 287.238 260.697 287.72 261.23 288.386C262.345 290.124 262.878 292.257 262.733 294.401C262.704 296.709 262.375 298.999 261.756 301.198C261.148 303.515 260.248 305.72 259.083 307.745C258.009 309.601 256.655 311.227 255.082 312.547L255.08 319.2L250.411 322.254ZM243.224 300.39L243.217 312.808L248.953 309.054C250.432 308.148 251.852 307.124 253.203 305.988C254.16 305.081 254.928 303.945 255.455 302.662C256.044 301.253 256.343 299.709 256.327 298.149C256.398 297.059 256.164 295.971 255.659 295.04C255.439 294.706 255.141 294.449 254.798 294.298C254.456 294.147 254.083 294.107 253.722 294.184C251.774 294.849 249.922 295.837 248.228 297.116L243.224 300.39ZM243.233 281.923L243.228 292.663L247.289 290.005C249.703 288.424 251.204 287.389 251.79 286.9C252.838 286.034 253.695 284.904 254.295 283.599C254.899 282.298 255.212 280.848 255.206 279.378C255.258 278.846 255.216 278.307 255.081 277.794C254.947 277.281 254.723 276.804 254.423 276.39C253.9 275.836 253.122 275.802 252.089 276.287C251.476 276.583 249.71 277.686 246.792 279.594L243.233 281.923Z" fill="url(#paint8_linear_36_22)"/>
</g>
<path d="M585.782 447.795L585.776 128.296L304.276 121.997L304.283 438.831C303.276 442.35 304.589 445.923 308.371 448.462L436.08 534.191C442.694 538.63 454.318 538.222 462.047 533.278L579.403 458.218C584.002 455.276 586.163 451.394 585.782 447.795Z" fill="url(#paint9_linear_36_22)"/>
<path d="M436.075 212.912L308.365 127.181C301.752 122.743 302.657 115.137 310.385 110.195L427.741 35.1342C435.469 30.191 447.094 29.7824 453.707 34.2211L581.416 119.951C588.029 124.39 587.125 131.996 579.396 136.939L462.041 212C454.313 216.942 442.687 217.351 436.075 212.912Z" fill="url(#paint10_linear_36_22)"/>
<path d="M414.016 415.804C414.023 412.753 413.391 409.743 412.171 407.024C410.95 404.305 409.177 401.955 406.998 400.168L311.973 336.465C311.292 335.914 310.495 335.577 309.662 335.489C308.829 335.401 307.991 335.564 307.232 335.961V335.961C307.034 336.069 306.846 336.196 306.669 336.341L283.043 352.294L386.697 438.821L410.613 422.621C411.159 422.429 411.66 422.099 412.076 421.655H412.077C412.736 420.883 413.249 419.965 413.583 418.959C413.916 417.952 414.064 416.878 414.016 415.804V415.804Z" fill="url(#paint11_linear_36_22)"/>
<path d="M382.401 438.073L287.377 374.369C285.197 372.582 283.424 370.232 282.203 367.513C280.983 364.795 280.35 361.785 280.358 358.733V358.733C280.474 352.774 283.806 350.113 287.8 352.79L382.823 416.493C385.002 418.28 386.776 420.63 387.996 423.349C389.217 426.068 389.85 429.078 389.842 432.13V432.13C389.726 438.089 386.394 440.75 382.401 438.073Z" fill="url(#paint12_linear_36_22)"/>
<path d="M413.879 368.245C413.887 365.193 413.254 362.183 412.034 359.464C410.813 356.745 409.04 354.395 406.861 352.608L311.836 288.904C311.155 288.354 310.358 288.017 309.525 287.929C308.693 287.84 307.854 288.003 307.095 288.401C306.898 288.508 306.709 288.635 306.532 288.78L282.906 304.734L386.56 391.261L410.477 375.061C411.023 374.869 411.523 374.539 411.94 374.095C412.599 373.323 413.112 372.405 413.446 371.399C413.779 370.393 413.927 369.319 413.879 368.245V368.245Z" fill="url(#paint13_linear_36_22)"/>
<path d="M382.264 390.513L287.24 326.81C285.061 325.023 283.287 322.673 282.067 319.953C280.846 317.234 280.213 314.224 280.221 311.173C280.338 305.214 283.669 302.554 287.662 305.23L382.686 368.934C384.866 370.721 386.639 373.071 387.859 375.79C389.08 378.509 389.712 381.519 389.705 384.57V384.57C389.589 390.53 386.257 393.19 382.264 390.513Z" fill="url(#paint14_linear_36_22)"/>
<path d="M414.153 320.819C414.161 317.768 413.528 314.758 412.308 312.039C411.087 309.32 409.314 306.969 407.135 305.182L312.11 241.48C311.429 240.928 310.632 240.591 309.799 240.503C308.967 240.414 308.128 240.577 307.369 240.975V240.975C307.172 241.082 306.983 241.21 306.806 241.355L283.18 257.309L386.834 343.835L410.751 327.635C411.297 327.444 411.797 327.113 412.213 326.669H412.214C412.873 325.898 413.386 324.98 413.72 323.973C414.053 322.967 414.201 321.893 414.153 320.819V320.819Z" fill="url(#paint15_linear_36_22)"/>
<path d="M382.538 343.087L287.515 279.384C285.335 277.597 283.561 275.247 282.341 272.528C281.12 269.809 280.487 266.799 280.495 263.747C280.612 257.788 283.943 255.127 287.936 257.804L382.96 321.508C385.14 323.295 386.913 325.645 388.134 328.364C389.354 331.083 389.987 334.093 389.979 337.145C389.863 343.103 386.531 345.764 382.538 343.087Z" fill="url(#paint16_linear_36_22)"/>
<path d="M414.153 273.393C414.161 270.341 413.528 267.331 412.308 264.612C411.087 261.893 409.314 259.543 407.135 257.756L312.11 194.053C311.429 193.502 310.632 193.165 309.799 193.077C308.967 192.988 308.128 193.151 307.369 193.548V193.548C307.172 193.656 306.984 193.783 306.806 193.928L283.18 209.882L386.834 296.41L410.751 280.208C411.297 280.017 411.797 279.687 412.213 279.243H412.214C412.873 278.471 413.386 277.554 413.72 276.547C414.054 275.541 414.201 274.467 414.153 273.393V273.393Z" fill="url(#paint17_linear_36_22)"/>
<path d="M382.538 295.661L287.515 231.958C285.335 230.171 283.561 227.821 282.341 225.102C281.12 222.383 280.487 219.373 280.495 216.321V216.321C280.612 210.362 283.943 207.701 287.936 210.379L382.96 274.082C385.14 275.869 386.913 278.219 388.133 280.938C389.354 283.657 389.987 286.667 389.979 289.719C389.863 295.678 386.531 298.338 382.538 295.661Z" fill="url(#paint18_linear_36_22)"/>
<path d="M565.64 215.556L476.585 273.915V258.204L565.64 199.845V215.556Z" fill="url(#paint19_linear_36_22)"/>
<path d="M565.639 245.747L538.32 263.65V247.939L565.639 230.036V245.747Z" fill="url(#paint20_linear_36_22)"/>
<path d="M527.942 270.452L476.585 304.109V288.396L527.942 254.741V270.452Z" fill="url(#paint21_linear_36_22)"/>
<path d="M565.639 274.789L502.264 316.425V300.715L565.639 259.078V274.789Z" fill="url(#paint22_linear_36_22)"/>
<path d="M491.881 323.228L476.585 333.151V317.44L491.881 307.517V323.228Z" fill="url(#paint23_linear_36_22)"/>
<path d="M565.637 305.142L476.583 363.504L476.585 347.794L565.639 289.434L565.637 305.142Z" fill="url(#paint24_linear_36_22)"/>
<path d="M565.637 335.451L538.32 353.352V337.641L565.637 319.74V335.451Z" fill="url(#paint25_linear_36_22)"/>
<path d="M527.94 360.156L476.583 393.81V378.1L527.94 344.445V360.156Z" fill="url(#paint26_linear_36_22)"/>
<path d="M565.637 364.493L502.261 406.129V390.419L565.637 348.782V364.493Z" fill="url(#paint27_linear_36_22)"/>
<path d="M491.881 412.932L476.583 422.853V407.142L491.881 397.221V412.932Z" fill="url(#paint28_linear_36_22)"/>
<path d="M565.637 407.362L476.583 465.722V435.902L565.637 377.542V407.362Z" fill="url(#paint29_linear_36_22)"/>
<path d="M565.637 407.362L544.254 391.556L565.637 377.542V407.362Z" fill="url(#paint30_linear_36_22)"/>
<path d="M536.996 65.3744C524.092 40.1284 489.779 22.0361 449.354 22.0361C408.929 22.0361 374.616 40.1284 361.712 65.3744H356.168V87.4107C356.168 123.516 397.889 152.785 449.354 152.785C500.819 152.785 542.539 123.516 542.539 87.4107V65.3744H536.996Z" fill="#E06703"/>
<path style="mix-blend-mode:overlay" d="M372.304 87.4111V124.17C393.507 145.25 421.784 152.785 453.817 152.785V130.749L372.304 87.4111Z" fill="url(#paint31_linear_36_22)"/>
<path d="M449.354 130.749C500.819 130.749 542.539 101.48 542.539 65.3744C542.539 29.2691 500.819 0 449.354 0C397.889 0 356.168 29.2691 356.168 65.3744C356.168 101.48 397.889 130.749 449.354 130.749Z" fill="#FFD81D"/>
<path style="mix-blend-mode:overlay" d="M387.122 113.926L521.539 24.0425C504.5 9.4111 478.617 0.0543972 449.604 0.000305176L356.168 65.3653C356.168 84.6663 368.162 101.959 387.122 113.926Z" fill="url(#paint32_linear_36_22)"/>
<path style="mix-blend-mode:overlay" d="M449.354 130.749C450.78 130.749 452.168 130.644 453.578 130.6L542.102 71.4494C542.38 69.4396 542.526 67.409 542.539 65.3746C542.489 59.335 541.307 53.3768 539.069 47.8969C498.584 74.7528 453.049 104.967 419.495 127.258C429.316 129.584 439.322 130.754 449.354 130.749V130.749Z" fill="url(#paint33_linear_36_22)"/>
<path d="M449.354 111.618C490.454 111.618 523.773 89.5987 523.773 62.4362C523.773 35.2736 490.454 13.254 449.354 13.254C408.254 13.254 374.935 35.2736 374.935 62.4362C374.935 89.5987 408.254 111.618 449.354 111.618Z" fill="#F9B815"/>
<path style="mix-blend-mode:overlay" opacity="0.5" d="M435.245 110.888L522.333 52.6519C518.69 40.9601 508.724 30.8209 494.954 23.7674C484.62 21.1689 474.067 19.859 463.482 19.8611L379.235 78.7987C387.852 95.1314 409.072 107.542 435.245 110.888Z" fill="url(#paint34_linear_36_22)"/>
<path d="M449.354 13.254C408.253 13.254 374.935 35.2738 374.935 62.4366C374.966 64.8558 375.261 67.2613 375.812 69.5983C381.071 45.8399 411.944 27.5779 449.354 27.5779C486.763 27.5779 517.636 45.8399 522.896 69.5983C523.447 67.2613 523.741 64.8558 523.772 62.4366C523.772 35.2738 490.454 13.254 449.354 13.254Z" fill="#DD7105"/>
<path style="mix-blend-mode:overlay" d="M449.472 13.2541C442.175 13.2452 434.892 13.9643 427.707 15.4032V29.7563C434.891 28.3047 442.175 27.5758 449.472 27.578C473.552 27.578 494.877 35.1686 508.452 46.8972L508.495 46.9013V32.565C494.893 20.8435 473.549 13.2541 449.472 13.2541Z" fill="url(#paint35_linear_36_22)"/>
<path d="M306.711 530.711C306.711 530.711 306.08 530.767 305.918 532.733C305.756 534.699 304.908 536.183 306.106 537.112C307.822 538.197 309.793 538.645 311.745 538.394C312.59 538.097 313.411 537.716 314.197 537.256C314.569 537.067 323.577 531.839 323.577 531.839C323.577 531.839 324.257 530.759 323.998 530.034C323.795 529.493 323.479 529.016 323.078 528.644C322.677 528.272 322.203 528.015 321.696 527.896C321.372 527.772 316.696 528.238 315.435 528.363C313.753 528.244 312.085 527.945 310.452 527.47L306.711 530.711Z" fill="#343499"/>
<path d="M305.585 534.772C305.694 535.169 305.871 535.538 306.106 535.857C307.543 536.87 309.219 537.356 310.908 537.249C312.023 537.181 311.744 536.128 312.922 535.55C313.787 535.206 314.717 535.124 315.618 535.313C316.022 535.313 322.747 531.136 323.15 530.796C323.544 530.464 323.671 529.414 323.677 529.366C323.805 529.575 323.913 529.799 323.998 530.034C324.257 530.759 323.578 531.839 323.578 531.839C323.578 531.839 314.569 537.067 314.198 537.256C313.411 537.716 312.59 538.097 311.745 538.394C309.794 538.645 307.822 538.197 306.106 537.113C305.366 536.538 305.407 535.752 305.585 534.772Z" fill="url(#paint36_linear_36_22)"/>
<path d="M289.838 524.239C289.838 524.239 289.207 524.296 289.046 526.261C288.884 528.227 288.035 529.711 289.233 530.641C290.949 531.725 292.921 532.173 294.872 531.922C295.718 531.626 296.538 531.245 297.325 530.784C297.696 530.595 306.705 525.368 306.705 525.368C306.705 525.368 307.384 524.287 307.126 523.562C306.922 523.021 306.606 522.545 306.206 522.173C305.805 521.8 305.331 521.544 304.824 521.424C304.5 521.3 299.823 521.766 298.561 521.891C296.88 521.772 295.212 521.473 293.58 520.999L289.838 524.239Z" fill="#343499"/>
<path d="M288.712 528.3C288.82 528.697 288.998 529.066 289.233 529.385C290.669 530.398 292.346 530.884 294.035 530.777C295.15 530.709 294.871 529.656 296.049 529.079C296.915 528.735 297.844 528.653 298.746 528.841C299.148 528.841 305.874 524.664 306.277 524.324C306.671 523.993 306.798 522.942 306.804 522.895C306.932 523.103 307.04 523.327 307.125 523.562C307.384 524.287 306.704 525.368 306.704 525.368C306.704 525.368 297.696 530.595 297.325 530.784C296.538 531.245 295.717 531.625 294.872 531.922C292.921 532.173 290.949 531.725 289.233 530.641C288.493 530.067 288.534 529.28 288.712 528.3Z" fill="url(#paint37_linear_36_22)"/>
<path d="M307.107 449.697L301.527 446.023C301.399 445.917 301.261 445.827 301.116 445.754L301.025 445.693L301.013 445.703C300.71 445.566 300.384 445.508 300.06 445.534C299.735 445.56 299.42 445.67 299.137 445.854L279.661 458.557C278.851 459.085 278.178 459.847 277.71 460.764C277.242 461.682 276.996 462.723 276.996 463.784V483.184C276.996 483.572 277.077 483.955 277.233 484.3C277.388 484.646 277.614 484.944 277.892 485.171L277.887 485.189L277.994 485.26C278.059 485.308 280.295 487.086 280.364 487.127L284.027 489.275L289.934 479.145L299.741 472.835C300.558 472.309 301.238 471.547 301.711 470.625C302.184 469.704 302.433 468.657 302.432 467.591V457.713L307.107 449.697Z" fill="#4343C9"/>
<path d="M286.116 489.231L305.576 476.709C306.394 476.184 307.073 475.421 307.546 474.5C308.019 473.579 308.268 472.532 308.268 471.466V451.894C308.268 451.456 308.166 451.026 307.974 450.646C307.781 450.267 307.504 449.952 307.17 449.733C306.836 449.514 306.458 449.398 306.072 449.397C305.686 449.396 305.307 449.511 304.973 449.729L285.496 462.431C284.686 462.959 284.014 463.721 283.546 464.638C283.078 465.556 282.832 466.597 282.832 467.658V487.059C282.832 487.495 282.932 487.924 283.124 488.303C283.316 488.681 283.591 488.996 283.924 489.216C284.256 489.436 284.633 489.553 285.018 489.555C285.403 489.558 285.781 489.446 286.116 489.231V489.231Z" fill="#867CE2"/>
<path d="M287.415 457.127C287.415 457.127 287.257 482.021 287.415 486.738C287.577 491.571 288.589 503.457 288.531 511.822C288.472 520.187 288.418 523.147 289.854 524.305C291.291 525.464 297.75 524.177 298.572 522.761C299.395 521.345 298.807 501.912 299.277 498.18C299.747 494.449 301.861 479.777 301.861 479.777L300.921 462.404L287.415 457.127Z" fill="#4B4BAA"/>
<path d="M315.015 463.562C315.015 463.562 318.186 491.231 317.951 497.666C317.716 504.101 316.307 526.236 315.837 528.038C315.367 529.839 314.897 530.998 312.784 531.383C311.045 531.838 309.237 531.838 307.499 531.383C306.838 531.203 306.264 530.742 305.892 530.096C305.521 529.45 305.381 528.668 305.502 527.909C305.736 526.236 307.263 503.714 306.793 500.111C306.324 496.507 300.334 480.936 299.512 475.145C298.977 470.923 298.663 466.668 298.572 462.404L315.015 463.562Z" fill="#6666D3"/>
<path d="M316.226 474.781C314.733 474.416 313.39 473.494 312.413 472.161C311.392 470.272 310.513 468.288 309.785 466.23L315.015 463.562L316.226 474.781Z" fill="#4B4BAA"/>
<path d="M287.702 405.679C287.702 405.679 280.603 422.509 279.429 426.113C278.254 429.716 278.372 431.191 279.429 433.027C280.486 434.864 286.711 445.529 286.711 445.529L293.875 435.444L295.754 418.905L292.347 408.183L287.702 405.679Z" fill="#867CE2"/>
<path d="M321.474 430.445C321.474 430.445 319.752 421.951 318.186 417.147C316.62 412.343 315.446 411.312 313.801 410.026C312.157 408.739 310.211 406.962 310.211 406.962L294.668 402.819C294.668 402.819 288.959 403.165 287.702 405.679C285.705 409.671 284.548 452.623 285.487 455.712C286.427 458.801 290.938 463.176 298.925 465.493C306.911 467.809 314.897 466.522 316.659 465.107C318.421 463.691 318.773 448.377 317.834 441.041C317.493 439.065 317.654 437.019 318.299 435.143C318.944 433.267 320.045 431.638 321.474 430.445Z" fill="#4343C9"/>
<path d="M308.192 406.081C307.773 404.427 307.515 402.727 307.423 401.01C307.386 398.506 307.587 396.006 308.022 393.552L298.79 392.032C299.47 393.837 299.71 395.817 299.483 397.764C299.259 400.166 298.352 402.42 296.899 404.185C298.824 405.75 300.896 407.07 303.075 408.122C304.336 408.26 307.234 408.122 307.234 408.122L308.192 406.081Z" fill="#F4B489"/>
<path d="M310.868 384.628C312.323 386.904 313.04 389.681 312.899 392.489C312.615 397.135 311.003 400.252 309.785 400.549C307.487 400.674 305.237 399.774 303.516 398.04C301.892 396.112 300.176 388.484 300.176 388.484L308.621 380.224L310.868 384.628Z" fill="#FCBF9D"/>
<path d="M310.512 378.774C312.08 379.909 313.831 381.858 313.767 383.861C313.537 385.387 312.895 386.794 311.93 387.889C311.073 386.4 309.879 385.2 308.474 384.413C306.771 383.592 306.592 385.333 306.592 385.333L302.76 379.809C302.76 379.809 307.172 376.357 310.512 378.774Z" fill="#8480CE"/>
<path d="M306.1 379.602L308.055 378.497C306.01 377.396 303.739 376.953 301.488 377.218C300.604 377.366 299.768 377.772 299.064 378.395C298.359 379.019 297.809 379.839 297.467 380.776C295.917 382.19 294.921 384.24 294.693 386.482C294.522 387.931 294.702 389.406 295.212 390.749C295.723 392.092 296.546 393.251 297.593 394.104C299.546 395.554 299.861 396.383 302.76 395.554C303.884 395.155 304.864 394.355 305.554 393.272C306.245 392.189 306.609 390.882 306.592 389.546C306.226 387.268 307.613 388.234 308.621 386.438C309.115 385.588 309.378 384.591 309.378 383.573C309.378 382.554 309.115 381.558 308.621 380.707C308.347 380.258 307.96 379.912 307.51 379.715C307.06 379.518 306.569 379.479 306.1 379.602V379.602Z" fill="#5E56E8"/>
<path d="M311.034 407.121C310.396 406.231 309.703 405.393 308.96 404.615C308.797 404.442 308.595 404.323 308.376 404.269C308.158 404.215 307.93 404.229 307.718 404.31C306.355 404.857 304.89 404.994 303.466 404.707C302.478 404.591 301.524 404.238 300.666 403.67C299.808 403.103 299.067 402.334 298.491 401.415C297.594 399.73 294.483 401.703 294.669 402.819C295.039 404.077 295.667 405.217 296.503 406.145C297.338 407.072 298.356 407.76 299.473 408.152C302.305 409.408 305.393 409.731 308.379 409.082C309.323 408.892 310.078 408.689 310.627 408.52C310.753 408.484 310.869 408.413 310.963 408.313C311.058 408.213 311.129 408.087 311.17 407.947C311.21 407.808 311.219 407.659 311.195 407.514C311.172 407.37 311.116 407.235 311.034 407.121V407.121Z" fill="#867CE2"/>
<path d="M334.275 421.995L336.304 418.262C336.304 418.262 338.363 418.525 339.02 417.282C339.677 416.038 340.691 414.206 340.273 412.701C339.868 411.627 339.197 410.71 338.342 410.059C339.171 408.148 339.85 406.158 340.372 404.112C340.351 403.981 340.299 403.86 340.221 403.761C340.144 403.662 340.044 403.589 339.932 403.55C339.82 403.511 339.701 403.508 339.588 403.541C339.475 403.573 339.372 403.641 339.29 403.736C338.932 404.062 336.424 408.797 336.424 408.797C336.424 408.797 334.931 409.362 333.976 412.34C333.552 413.419 333.242 414.552 333.053 415.714L331.695 418.102L334.275 421.995Z" fill="#FCBF9D"/>
<path d="M334.04 424.99L335.274 422.767L331.691 417.36L330.165 420.321L334.04 424.99Z" fill="#4B4BAA"/>
<path d="M334.194 424.123C334.36 424.38 334.456 424.687 334.47 425.005C334.484 425.323 334.415 425.639 334.273 425.913C332.268 429.795 324.434 444.634 321.475 445.417C319.379 445.97 314.78 438.596 312.314 431.26C309.847 423.925 308.554 419.292 309.377 415.817C310.199 412.343 312.886 409.117 314.696 410.681C316.507 412.245 318.538 414.788 320.182 422.895L321.827 431.002C321.827 431.002 327.934 421.479 328.991 419.935C329.222 419.587 329.485 419.268 329.776 418.983C329.869 418.897 329.976 418.833 330.091 418.796C330.207 418.758 330.328 418.748 330.447 418.765C330.566 418.783 330.68 418.827 330.784 418.897C330.887 418.966 330.977 419.058 331.048 419.168L334.194 424.123Z" fill="#867CE2"/>
<path d="M335.275 422.766L335.725 421.997C335.816 421.841 335.863 421.656 335.859 421.469C335.854 421.282 335.799 421.1 335.7 420.95L332.767 416.471C332.723 416.404 332.665 416.352 332.598 416.319C332.531 416.285 332.458 416.272 332.385 416.279C332.312 416.287 332.242 416.315 332.181 416.362C332.121 416.408 332.072 416.471 332.039 416.546L331.692 417.361L335.275 422.766Z" fill="#F5E6FF"/>
<path d="M304.873 404.956C304.724 404.929 304.576 404.892 304.431 404.844C305.546 404.901 306.662 404.72 307.719 404.311C307.931 404.23 308.159 404.216 308.377 404.27C308.596 404.323 308.798 404.443 308.962 404.616C309.704 405.394 310.397 406.231 311.035 407.121C311.104 407.216 311.154 407.327 311.182 407.446C311.21 407.565 311.216 407.689 311.198 407.81C311.181 407.932 311.141 408.047 311.081 408.15C311.021 408.252 310.943 408.34 310.852 408.405C309.08 406.816 307.048 405.643 304.873 404.956V404.956Z" fill="#FFE9F4"/>
<path d="M410.205 560.713L410.204 517.48L365.986 516.491L365.987 559.305C365.914 559.603 365.939 559.921 366.057 560.199C366.175 560.477 366.379 560.697 366.629 560.818L386.69 574.284C387.332 574.624 388.036 574.788 388.744 574.763C389.452 574.738 390.146 574.525 390.768 574.141L409.202 562.35C409.925 561.888 410.264 561.278 410.205 560.713Z" fill="url(#paint38_linear_36_22)"/>
<path d="M386.689 530.771L366.629 517.305C365.59 516.608 365.732 515.413 366.946 514.637L385.38 502.846C386.002 502.462 386.696 502.249 387.404 502.224C388.113 502.199 388.816 502.363 389.459 502.703L409.519 516.169C410.557 516.866 410.415 518.061 409.202 518.837L390.768 530.628C390.145 531.012 389.452 531.225 388.743 531.25C388.035 531.275 387.331 531.111 386.689 530.771V530.771Z" fill="url(#paint39_linear_36_22)"/>
<path d="M444.596 583.484L444.596 496.351L400.378 495.362L400.38 582.076C400.306 582.374 400.331 582.691 400.449 582.97C400.568 583.248 400.771 583.468 401.022 583.589L421.082 597.055C421.724 597.395 422.428 597.559 423.136 597.534C423.845 597.509 424.538 597.296 425.161 596.912L443.594 585.121C444.317 584.659 444.656 584.049 444.596 583.484Z" fill="url(#paint40_linear_36_22)"/>
<path d="M421.081 509.642L401.021 496.176C399.982 495.479 400.124 494.284 401.338 493.508L419.772 481.718C420.395 481.333 421.088 481.12 421.796 481.095C422.505 481.07 423.208 481.234 423.851 481.574L443.911 495.04C444.949 495.738 444.807 496.932 443.594 497.708L425.16 509.499C424.537 509.883 423.844 510.096 423.135 510.121C422.427 510.146 421.723 509.982 421.081 509.642V509.642Z" fill="url(#paint41_linear_36_22)"/>
<path d="M665.667 396.998L665.666 300.555L616.725 299.461L616.726 395.44C616.645 395.769 616.673 396.121 616.804 396.429C616.934 396.737 617.16 396.98 617.437 397.114L639.641 412.019C640.352 412.395 641.13 412.577 641.914 412.549C642.698 412.521 643.466 412.285 644.155 411.86L664.558 398.81C665.358 398.299 665.734 397.624 665.667 396.998Z" fill="url(#paint42_linear_36_22)"/>
<path d="M639.639 315.267L617.436 300.362C616.286 299.59 616.444 298.268 617.787 297.409L638.19 284.359C638.88 283.933 639.647 283.697 640.431 283.67C641.215 283.642 641.994 283.824 642.705 284.2L664.909 299.105C666.058 299.876 665.901 301.199 664.557 302.058L644.154 315.108C643.465 315.533 642.698 315.769 641.913 315.797C641.129 315.824 640.351 315.643 639.639 315.267V315.267Z" fill="url(#paint43_linear_36_22)"/>
<path d="M242.29 477.007L242.29 438.327L202.729 437.442L202.73 475.747C202.665 476.014 202.687 476.298 202.793 476.547C202.899 476.796 203.08 476.993 203.305 477.101L221.252 489.149C221.827 489.453 222.456 489.599 223.09 489.577C223.724 489.555 224.344 489.364 224.901 489.02L241.394 478.472C242.04 478.058 242.344 477.513 242.29 477.007Z" fill="url(#paint44_linear_36_22)"/>
<path d="M221.251 450.218L203.304 438.17C202.374 437.547 202.502 436.478 203.588 435.783L220.08 425.235C220.637 424.891 221.257 424.7 221.891 424.678C222.525 424.656 223.154 424.802 223.729 425.106L241.677 437.154C242.606 437.778 242.479 438.847 241.393 439.542L224.9 450.09C224.343 450.434 223.723 450.625 223.089 450.647C222.455 450.669 221.826 450.522 221.251 450.218V450.218Z" fill="url(#paint45_linear_36_22)"/>
<path style="mix-blend-mode:overlay" opacity="0.4" d="M580.059 43.8791L461.845 119.489C454.06 124.468 442.35 124.88 435.69 120.409L307.045 34.0514C305.836 33.3938 304.795 32.3983 304.018 31.1584C303.241 29.9186 302.755 28.4749 302.604 26.9631L302.647 119.305C302.75 120.866 303.216 122.369 303.997 123.66C304.778 124.951 305.846 125.984 307.093 126.654L435.738 213.011C442.398 217.482 454.109 217.07 461.893 212.09L580.108 136.481C584.562 133.632 586.754 129.907 586.578 126.403L586.535 34.2438C586.512 37.6176 584.325 41.1506 580.059 43.8791Z" fill="url(#paint46_linear_36_22)"/>
<path style="mix-blend-mode:lighten" opacity="0.4" d="M580.059 43.8791L461.845 119.489C454.06 124.468 442.35 124.88 435.69 120.409L307.045 34.0514C305.836 33.3938 304.795 32.3983 304.018 31.1584C303.241 29.9186 302.755 28.4749 302.604 26.9631L302.647 119.305C302.75 120.866 303.216 122.369 303.997 123.66C304.778 124.951 305.846 125.984 307.093 126.654L435.738 213.011C442.398 217.482 454.109 217.07 461.893 212.09L580.108 136.481C584.562 133.632 586.754 129.907 586.578 126.403L586.535 34.2438C586.512 37.6176 584.325 41.1506 580.059 43.8791Z" fill="url(#paint47_linear_36_22)"/>
<path d="M545.645 529.72C551.807 535.106 556.49 542.373 559.144 550.671C563.965 565.005 580.357 579.339 580.357 579.339L645.732 623.866L729.563 567.998L664.166 523.456C664.166 523.456 647.816 509.159 643.008 494.862C640.36 486.586 635.69 479.337 629.544 473.966L564.628 431.074L480.845 486.905L545.645 529.72Z" fill="url(#paint48_linear_36_22)"/>
<path d="M613.281 452.829C605.398 437.408 584.438 426.356 559.745 426.356C535.051 426.356 514.09 437.408 506.208 452.829H502.822V466.29C502.822 488.346 528.307 506.225 559.745 506.225C591.182 506.225 616.667 488.346 616.667 466.29V452.829H613.281Z" fill="#E06703"/>
<path style="mix-blend-mode:overlay" d="M512.678 466.291V488.745C525.63 501.622 542.903 506.225 562.471 506.225V492.764L512.678 466.291Z" fill="url(#paint49_linear_36_22)"/>
<path d="M559.744 492.764C591.182 492.764 616.667 474.885 616.667 452.83C616.667 430.775 591.182 412.895 559.744 412.895C528.307 412.895 502.822 430.775 502.822 452.83C502.822 474.885 528.307 492.764 559.744 492.764Z" fill="#FFD81D"/>
<path style="mix-blend-mode:overlay" d="M521.73 482.488L603.839 427.582C593.431 418.645 577.62 412.929 559.897 412.896L502.822 452.824C502.822 464.614 510.148 475.178 521.73 482.488Z" fill="url(#paint50_linear_36_22)"/>
<path style="mix-blend-mode:overlay" d="M559.745 492.764C560.615 492.764 561.464 492.7 562.325 492.672L616.4 456.541C616.57 455.313 616.659 454.072 616.667 452.83C616.637 449.14 615.914 445.501 614.547 442.154C589.816 458.559 562.002 477.015 541.505 490.632C547.504 492.052 553.616 492.767 559.745 492.764Z" fill="url(#paint51_linear_36_22)"/>
<path d="M559.744 481.078C584.851 481.078 605.204 467.627 605.204 451.035C605.204 434.443 584.851 420.992 559.744 420.992C534.638 420.992 514.285 434.443 514.285 451.035C514.285 467.627 534.638 481.078 559.744 481.078Z" fill="#F9B815"/>
<path style="mix-blend-mode:overlay" opacity="0.5" d="M551.126 480.632L604.325 445.058C602.099 437.916 596.012 431.722 587.6 427.414C581.287 425.827 574.841 425.026 568.375 425.028L516.912 461.03C522.176 471.007 535.139 478.588 551.126 480.632Z" fill="url(#paint52_linear_36_22)"/>
<path d="M559.745 420.992C534.638 420.992 514.285 434.443 514.285 451.035C514.304 452.513 514.484 453.982 514.821 455.41C518.034 440.897 536.893 429.742 559.745 429.742C582.596 429.742 601.455 440.897 604.668 455.41C605.004 453.982 605.184 452.513 605.203 451.035C605.203 434.443 584.851 420.992 559.745 420.992Z" fill="#DD7105"/>
<path style="mix-blend-mode:overlay" d="M559.816 420.992C555.359 420.986 550.911 421.426 546.521 422.304V431.072C550.91 430.186 555.359 429.74 559.816 429.742C574.526 429.742 587.552 434.378 595.845 441.543L595.871 441.545V432.788C587.562 425.628 574.524 420.992 559.816 420.992Z" fill="url(#paint53_linear_36_22)"/>
<path d="M584.899 467.51C586.422 465.982 587.401 463.874 587.65 461.584L587.741 461.627V455.87L584.279 454.252C583.518 453.579 582.712 452.974 581.867 452.445C578.695 450.429 575.143 449.31 571.509 449.182C566.563 449.29 561.672 450.394 557.066 452.443L545.524 445.127C548.25 444.385 551.11 444.609 553.721 445.768L560.073 440.189V434.877L551.943 438.049L551.975 438.125C551.163 438.064 550.348 438.035 549.528 438.061C545.877 438.194 542.291 439.192 538.999 440.992L537.506 440.045L538.074 439.543V437.063L531.878 436.671V445.027L533.882 443.253L534.8 443.836C533.951 444.535 533.175 445.342 532.487 446.241C531.427 445.829 530.598 445.517 530.598 445.517L530.616 451.642C530.814 454.387 532.526 456.782 535.753 458.827C539.067 460.888 542.76 462.039 546.536 462.187C551.075 462.312 555.595 461.475 559.864 459.721L572.234 467.561C570.484 467.956 568.694 468.074 566.916 467.911C565.66 467.803 564.416 467.563 563.199 467.194L563.492 466.038L554.374 466.836V472.148C558.484 474.134 562.906 475.155 567.374 475.149C571.505 475.104 575.58 474.047 579.32 472.051L584.692 475.456L588.89 472.613V467.301L584.899 467.51ZM546.472 454.916C545.133 454.823 543.826 454.408 542.637 453.7C542.146 453.437 541.706 453.065 541.342 452.607C540.979 452.149 540.7 451.613 540.521 451.03C540.394 450.485 540.393 449.912 540.518 449.366C540.644 448.82 540.891 448.32 541.237 447.914L551.451 454.389C549.828 454.871 548.146 455.049 546.472 454.916V454.916ZM576.846 464.979L565.333 457.682C567.238 456.893 569.254 456.505 571.282 456.536C572.875 456.586 574.435 457.061 575.836 457.923C576.452 458.226 576.997 458.688 577.43 459.272C577.862 459.856 578.169 460.545 578.326 461.286C578.393 461.996 578.291 462.713 578.03 463.362C577.77 464.011 577.361 464.57 576.846 464.979V464.979Z" fill="#E06703"/>
<path d="M572.234 462.249L559.864 454.409C555.595 456.163 551.075 457 546.536 456.876C542.76 456.727 539.067 455.576 535.753 453.515C532.526 451.47 530.814 449.075 530.616 446.331C530.42 443.588 531.815 440.985 534.801 438.523L531.878 436.671L536.077 433.828L538.999 435.68C542.291 433.881 545.877 432.882 549.529 432.749C553.134 432.643 556.721 433.366 560.073 434.877L553.721 440.456C551.11 439.297 548.25 439.074 545.524 439.815L557.066 447.131C561.673 445.082 566.563 443.978 571.509 443.871C575.143 443.998 578.696 445.117 581.867 447.133C585.429 449.391 587.373 452.009 587.7 454.987C588.027 457.966 586.584 460.904 583.371 463.803L588.891 467.301L584.692 470.145L579.32 466.74C575.581 468.736 571.506 469.792 567.374 469.837C562.907 469.843 558.485 468.823 554.374 466.836L561.106 461.194C562.972 461.979 564.93 462.452 566.916 462.6C568.694 462.763 570.484 462.645 572.234 462.249V462.249ZM541.237 442.603C540.891 443.008 540.644 443.508 540.519 444.054C540.393 444.6 540.394 445.173 540.522 445.718C540.7 446.301 540.979 446.837 541.343 447.295C541.706 447.754 542.146 448.125 542.637 448.388C543.826 449.096 545.133 449.511 546.473 449.604C548.146 449.737 549.828 449.559 551.451 449.077L541.237 442.603ZM576.846 459.667C577.361 459.258 577.77 458.7 578.031 458.05C578.291 457.401 578.393 456.684 578.326 455.974C578.169 455.233 577.862 454.544 577.43 453.96C576.998 453.377 576.452 452.915 575.836 452.611C574.435 451.75 572.875 451.275 571.282 451.225C569.254 451.193 567.238 451.582 565.333 452.37L576.846 459.667Z" fill="#FFD81D"/>
<g style="mix-blend-mode:overlay">
<g style="mix-blend-mode:overlay">
<path style="mix-blend-mode:overlay" d="M572.234 462.249L559.864 454.409C555.595 456.163 551.075 457 546.536 456.876C542.76 456.727 539.067 455.576 535.753 453.515C532.526 451.47 530.814 449.075 530.616 446.331C530.42 443.588 531.815 440.985 534.801 438.523L531.878 436.671L536.077 433.828L538.999 435.68C542.291 433.881 545.877 432.882 549.529 432.749C553.134 432.643 556.721 433.366 560.073 434.877L553.721 440.456C551.11 439.297 548.25 439.074 545.524 439.815L557.066 447.131C561.673 445.082 566.563 443.978 571.509 443.871C575.143 443.998 578.696 445.117 581.867 447.133C585.429 449.391 587.373 452.009 587.7 454.987C588.027 457.966 586.584 460.904 583.371 463.803L588.891 467.301L584.692 470.145L579.32 466.74C575.581 468.736 571.506 469.792 567.374 469.837C562.907 469.843 558.485 468.823 554.374 466.836L561.106 461.194C562.972 461.979 564.93 462.452 566.916 462.6C568.694 462.763 570.484 462.645 572.234 462.249V462.249ZM541.237 442.603C540.891 443.008 540.644 443.508 540.519 444.054C540.393 444.6 540.394 445.173 540.522 445.718C540.7 446.301 540.979 446.837 541.343 447.295C541.706 447.754 542.146 448.125 542.637 448.388C543.826 449.096 545.133 449.511 546.473 449.604C548.146 449.737 549.828 449.559 551.451 449.077L541.237 442.603ZM576.846 459.667C577.361 459.258 577.77 458.7 578.031 458.05C578.291 457.401 578.393 456.684 578.326 455.974C578.169 455.233 577.862 454.544 577.43 453.96C576.998 453.377 576.452 452.915 575.836 452.611C574.435 451.75 572.875 451.275 571.282 451.225C569.254 451.193 567.238 451.582 565.333 452.37L576.846 459.667Z" fill="url(#paint54_linear_36_22)"/>
</g>
</g>
<defs>
<linearGradient id="paint0_linear_36_22" x1="470.495" y1="447.186" x2="325.121" y2="447.186" gradientUnits="userSpaceOnUse">
<stop stop-color="#BA83FF"/>
<stop offset="1" stop-color="#D8ABFF"/>
</linearGradient>
<linearGradient id="paint1_linear_36_22" x1="1634.14" y1="1232.34" x2="-2.92399" y2="391.336" gradientUnits="userSpaceOnUse">
<stop stop-color="#9C74FF"/>
<stop offset="1" stop-color="#FFF6FF"/>
</linearGradient>
<linearGradient id="paint2_linear_36_22" x1="253.509" y1="247.102" x2="244.055" y2="232.429" gradientUnits="userSpaceOnUse">
<stop stop-color="#886AFF"/>
<stop offset="1" stop-color="#D3C2FF"/>
</linearGradient>
<linearGradient id="paint3_linear_36_22" x1="191.269" y1="380.194" x2="203.55" y2="274.168" gradientUnits="userSpaceOnUse">
<stop stop-color="#3124FF"/>
<stop offset="1" stop-color="#00FFE2"/>
</linearGradient>
<linearGradient id="paint4_linear_36_22" x1="207.656" y1="345.273" x2="215.829" y2="356.198" gradientUnits="userSpaceOnUse">
<stop stop-color="#8942FF"/>
<stop offset="1" stop-color="#D3C2FF"/>
</linearGradient>
<linearGradient id="paint5_linear_36_22" x1="180.028" y1="387.682" x2="192.309" y2="281.655" gradientUnits="userSpaceOnUse">
<stop stop-color="#3124FF"/>
<stop offset="1" stop-color="#00FFE2"/>
</linearGradient>
<linearGradient id="paint6_linear_36_22" x1="191.247" y1="380.398" x2="203.527" y2="274.372" gradientUnits="userSpaceOnUse">
<stop stop-color="#3124FF"/>
<stop offset="1" stop-color="#00FFE2"/>
</linearGradient>
<linearGradient id="paint7_linear_36_22" x1="231.376" y1="407.796" x2="246.703" y2="314.969" gradientUnits="userSpaceOnUse">
<stop stop-color="#4F47FF"/>
<stop offset="1" stop-color="#00FFFF"/>
</linearGradient>
<linearGradient id="paint8_linear_36_22" x1="234.134" y1="409.949" x2="249.46" y2="317.123" gradientUnits="userSpaceOnUse">
<stop stop-color="#4F47FF"/>
<stop offset="1" stop-color="#00FFFF"/>
</linearGradient>
<linearGradient id="paint9_linear_36_22" x1="470.124" y1="329.634" x2="425.504" y2="329.634" gradientUnits="userSpaceOnUse">
<stop stop-color="#867CE2"/>
<stop offset="1" stop-color="#B590FF"/>
</linearGradient>
<linearGradient id="paint10_linear_36_22" x1="1163.94" y1="716.453" x2="335.932" y2="186.568" gradientUnits="userSpaceOnUse">
<stop stop-color="#6318FF"/>
<stop offset="0.60851" stop-color="#C29FED"/>
<stop offset="1" stop-color="#FFF6FF"/>
</linearGradient>
<linearGradient id="paint11_linear_36_22" x1="410.786" y1="430.806" x2="234.703" y2="319.662" gradientUnits="userSpaceOnUse">
<stop stop-color="#6322FF"/>
<stop offset="1" stop-color="#EAD6E2"/>
</linearGradient>
<linearGradient id="paint12_linear_36_22" x1="719.323" y1="969.896" x2="228.199" y2="908.685" gradientUnits="userSpaceOnUse">
<stop stop-color="#6318FF"/>
<stop offset="1" stop-color="white"/>
</linearGradient>
<linearGradient id="paint13_linear_36_22" x1="410.649" y1="383.246" x2="234.566" y2="272.101" gradientUnits="userSpaceOnUse">
<stop stop-color="#6322FF"/>
<stop offset="1" stop-color="#EAD6E2"/>
</linearGradient>
<linearGradient id="paint14_linear_36_22" x1="724.938" y1="930.935" x2="233.814" y2="869.724" gradientUnits="userSpaceOnUse">
<stop stop-color="#6318FF"/>
<stop offset="1" stop-color="white"/>
</linearGradient>
<linearGradient id="paint15_linear_36_22" x1="410.923" y1="335.82" x2="234.84" y2="224.676" gradientUnits="userSpaceOnUse">
<stop stop-color="#6322FF"/>
<stop offset="1" stop-color="#EAD6E2"/>
</linearGradient>
<linearGradient id="paint16_linear_36_22" x1="714.067" y1="866.847" x2="222.941" y2="805.636" gradientUnits="userSpaceOnUse">
<stop stop-color="#6318FF"/>
<stop offset="1" stop-color="white"/>
</linearGradient>
<linearGradient id="paint17_linear_36_22" x1="410.923" y1="288.394" x2="234.839" y2="177.25" gradientUnits="userSpaceOnUse">
<stop stop-color="#6322FF"/>
<stop offset="1" stop-color="#EAD6E2"/>
</linearGradient>
<linearGradient id="paint18_linear_36_22" x1="712.277" y1="816.744" x2="221.151" y2="755.533" gradientUnits="userSpaceOnUse">
<stop stop-color="#6318FF"/>
<stop offset="1" stop-color="white"/>
</linearGradient>
<linearGradient id="paint19_linear_36_22" x1="586.672" y1="195.537" x2="462.654" y2="256.235" gradientUnits="userSpaceOnUse">
<stop stop-color="#0024FF"/>
<stop offset="1" stop-color="#00FFE2"/>
</linearGradient>
<linearGradient id="paint20_linear_36_22" x1="573.904" y1="232.564" x2="533.765" y2="252.853" gradientUnits="userSpaceOnUse">
<stop stop-color="#0024FF"/>
<stop offset="1" stop-color="#00FFE2"/>
</linearGradient>
<linearGradient id="paint21_linear_36_22" x1="546.327" y1="250.278" x2="465.379" y2="291.835" gradientUnits="userSpaceOnUse">
<stop stop-color="#0024FF"/>
<stop offset="1" stop-color="#00FFE2"/>
</linearGradient>
<linearGradient id="paint22_linear_36_22" x1="580.337" y1="257.312" x2="496.055" y2="300.238" gradientUnits="userSpaceOnUse">
<stop stop-color="#0024FF"/>
<stop offset="1" stop-color="#00FFE2"/>
</linearGradient>
<linearGradient id="paint23_linear_36_22" x1="484.233" y1="307.517" x2="484.233" y2="333.151" gradientUnits="userSpaceOnUse">
<stop stop-color="#8A56E1"/>
<stop offset="1" stop-color="#D836F9"/>
</linearGradient>
<linearGradient id="paint24_linear_36_22" x1="581.148" y1="284.714" x2="466.625" y2="346.532" gradientUnits="userSpaceOnUse">
<stop stop-color="#0024FF"/>
<stop offset="1" stop-color="#00FFE2"/>
</linearGradient>
<linearGradient id="paint25_linear_36_22" x1="574.244" y1="321.265" x2="533.796" y2="342.811" gradientUnits="userSpaceOnUse">
<stop stop-color="#0024FF"/>
<stop offset="1" stop-color="#00FFE2"/>
</linearGradient>
<linearGradient id="paint26_linear_36_22" x1="502.262" y1="344.445" x2="502.262" y2="393.81" gradientUnits="userSpaceOnUse">
<stop stop-color="#8A56E1"/>
<stop offset="1" stop-color="#D836F9"/>
</linearGradient>
<linearGradient id="paint27_linear_36_22" x1="581.365" y1="345.892" x2="493.677" y2="391.197" gradientUnits="userSpaceOnUse">
<stop stop-color="#0024FF"/>
<stop offset="1" stop-color="#00FFE2"/>
</linearGradient>
<linearGradient id="paint28_linear_36_22" x1="498.665" y1="398.535" x2="467.121" y2="418.047" gradientUnits="userSpaceOnUse">
<stop stop-color="#0024FF"/>
<stop offset="1" stop-color="#00FFE2"/>
</linearGradient>
<linearGradient id="paint29_linear_36_22" x1="515.231" y1="410.342" x2="566.862" y2="487.285" gradientUnits="userSpaceOnUse">
<stop stop-color="#6322E3"/>
<stop offset="1" stop-color="#EAD6E2"/>
</linearGradient>
<linearGradient id="paint30_linear_36_22" x1="551.961" y1="384.654" x2="622.583" y2="415.905" gradientUnits="userSpaceOnUse">
<stop stop-color="#3E00D1"/>
<stop offset="1" stop-color="#EAD6E2"/>
</linearGradient>
<linearGradient id="paint31_linear_36_22" x1="185.698" y1="104.307" x2="498.243" y2="121.407" gradientUnits="userSpaceOnUse">
<stop stop-color="#D10B57"/>
<stop offset="1" stop-color="white"/>
</linearGradient>
<linearGradient id="paint32_linear_36_22" x1="157.623" y1="246.155" x2="468.639" y2="73.243" gradientUnits="userSpaceOnUse">
<stop stop-color="#D10B57"/>
<stop offset="1" stop-color="white"/>
</linearGradient>
<linearGradient id="paint33_linear_36_22" x1="318.503" y1="260.547" x2="493.838" y2="125.388" gradientUnits="userSpaceOnUse">
<stop stop-color="#D10B57"/>
<stop offset="1" stop-color="white"/>
</linearGradient>
<linearGradient id="paint34_linear_36_22" x1="239.515" y1="217.062" x2="510.971" y2="66.1433" gradientUnits="userSpaceOnUse">
<stop stop-color="#D10B57"/>
<stop offset="1" stop-color="white"/>
</linearGradient>
<linearGradient id="paint35_linear_36_22" x1="381.539" y1="93.1584" x2="507.794" y2="22.9658" gradientUnits="userSpaceOnUse">
<stop stop-color="#D10B57"/>
<stop offset="1" stop-color="white"/>
</linearGradient>
<linearGradient id="paint36_linear_36_22" x1="336.894" y1="520.119" x2="275.94" y2="552.218" gradientUnits="userSpaceOnUse">
<stop stop-color="#FFD9EA"/>
<stop offset="1" stop-color="white"/>
</linearGradient>
<linearGradient id="paint37_linear_36_22" x1="320.021" y1="513.648" x2="259.066" y2="545.746" gradientUnits="userSpaceOnUse">
<stop stop-color="#FFD9EA"/>
<stop offset="1" stop-color="white"/>
</linearGradient>
<linearGradient id="paint38_linear_36_22" x1="391.201" y1="545.629" x2="385.083" y2="545.629" gradientUnits="userSpaceOnUse">
<stop stop-color="#867CE2"/>
<stop offset="1" stop-color="#B49DFF"/>
</linearGradient>
<linearGradient id="paint39_linear_36_22" x1="522.672" y1="627.719" x2="363.162" y2="525.64" gradientUnits="userSpaceOnUse">
<stop stop-color="#6318FF"/>
<stop offset="1" stop-color="white"/>
</linearGradient>
<linearGradient id="paint40_linear_36_22" x1="425.593" y1="546.45" x2="419.476" y2="546.45" gradientUnits="userSpaceOnUse">
<stop stop-color="#867CE2"/>
<stop offset="1" stop-color="#B49DFF"/>
</linearGradient>
<linearGradient id="paint41_linear_36_22" x1="557.063" y1="606.589" x2="397.554" y2="504.511" gradientUnits="userSpaceOnUse">
<stop stop-color="#6318FF"/>
<stop offset="1" stop-color="white"/>
</linearGradient>
<linearGradient id="paint42_linear_36_22" x1="644.634" y1="356.008" x2="637.863" y2="356.008" gradientUnits="userSpaceOnUse">
<stop stop-color="#867CE2"/>
<stop offset="1" stop-color="#B49DFF"/>
</linearGradient>
<linearGradient id="paint43_linear_36_22" x1="790.151" y1="422.572" x2="613.599" y2="309.587" gradientUnits="userSpaceOnUse">
<stop stop-color="#6318FF"/>
<stop offset="1" stop-color="white"/>
</linearGradient>
<linearGradient id="paint44_linear_36_22" x1="225.288" y1="463.512" x2="219.815" y2="463.512" gradientUnits="userSpaceOnUse">
<stop stop-color="#867CE2"/>
<stop offset="1" stop-color="#B49DFF"/>
</linearGradient>
<linearGradient id="paint45_linear_36_22" x1="342.912" y1="536.955" x2="200.202" y2="445.628" gradientUnits="userSpaceOnUse">
<stop stop-color="#6318FF"/>
<stop offset="1" stop-color="white"/>
</linearGradient>
<linearGradient id="paint46_linear_36_22" x1="466.647" y1="121.538" x2="425.501" y2="121.538" gradientUnits="userSpaceOnUse">
<stop stop-color="#8161E2"/>
<stop offset="1" stop-color="#CACCFF"/>
</linearGradient>
<linearGradient id="paint47_linear_36_22" x1="466.647" y1="121.538" x2="425.501" y2="121.538" gradientUnits="userSpaceOnUse">
<stop stop-color="#8161E2"/>
<stop offset="1" stop-color="#9554FF"/>
</linearGradient>
<linearGradient id="paint48_linear_36_22" x1="509.759" y1="370.746" x2="686.943" y2="596.528" gradientUnits="userSpaceOnUse">
<stop stop-color="#3124FF"/>
<stop offset="1" stop-color="#00FFE2"/>
</linearGradient>
<linearGradient id="paint49_linear_36_22" x1="398.689" y1="476.612" x2="589.609" y2="487.057" gradientUnits="userSpaceOnUse">
<stop stop-color="#D10B57"/>
<stop offset="1" stop-color="white"/>
</linearGradient>
<linearGradient id="paint50_linear_36_22" x1="381.54" y1="563.261" x2="571.525" y2="457.637" gradientUnits="userSpaceOnUse">
<stop stop-color="#D10B57"/>
<stop offset="1" stop-color="white"/>
</linearGradient>
<linearGradient id="paint51_linear_36_22" x1="479.814" y1="572.051" x2="586.918" y2="489.489" gradientUnits="userSpaceOnUse">
<stop stop-color="#D10B57"/>
<stop offset="1" stop-color="white"/>
</linearGradient>
<linearGradient id="paint52_linear_36_22" x1="431.564" y1="545.489" x2="597.384" y2="453.3" gradientUnits="userSpaceOnUse">
<stop stop-color="#D10B57"/>
<stop offset="1" stop-color="white"/>
</linearGradient>
<linearGradient id="paint53_linear_36_22" x1="518.32" y1="469.802" x2="595.443" y2="426.924" gradientUnits="userSpaceOnUse">
<stop stop-color="#D10B57"/>
<stop offset="1" stop-color="white"/>
</linearGradient>
<linearGradient id="paint54_linear_36_22" x1="514.523" y1="511.743" x2="561.353" y2="464.384" gradientUnits="userSpaceOnUse">
<stop stop-color="#D10B57"/>
<stop offset="1" stop-color="white"/>
</linearGradient>
</defs>
</svg>
