<svg width="44" height="44" viewBox="0 0 44 44" fill="none" xmlns="http://www.w3.org/2000/svg">
<path d="M34.2412 35.9462L23.7637 25.4669C21.5156 27.0651 18.7492 27.7604 16.0126 27.4151C13.276 27.0697 10.7691 25.7089 8.98861 23.6022C7.20812 21.4956 6.28405 18.7969 6.39955 16.041C6.51504 13.2852 7.66167 10.6733 9.61217 8.72302C11.5622 6.77189 14.174 5.62463 16.9301 5.50864C19.6862 5.39265 22.3852 6.3164 24.4922 8.09678C26.5992 9.87716 27.9604 12.3842 28.306 15.121C28.6515 17.8577 27.9562 20.6245 26.3578 22.8727L36.8353 33.352L34.243 35.9444L34.2412 35.9462V35.9462ZM17.3892 9.16668C15.7026 9.16629 14.0675 9.74725 12.7592 10.8117C11.451 11.8761 10.5497 13.3589 10.207 15.0103C9.86443 16.6617 10.1015 18.3807 10.8783 19.8777C11.6552 21.3747 12.9242 22.5582 14.4717 23.2288C16.0193 23.8994 17.7506 24.016 19.3741 23.5591C20.9976 23.1022 22.414 22.0997 23.3846 20.7204C24.3553 19.3412 24.8208 17.6695 24.7028 15.9871C24.5849 14.3047 23.8906 12.7143 22.737 11.484L23.8462 12.584L22.5958 11.3374L22.5738 11.3154C21.8947 10.6321 21.0868 10.0903 20.1968 9.72147C19.3068 9.35265 18.3525 9.16407 17.3892 9.16668V9.16668Z" fill="white"/>
</svg>
