<svg width="486" height="494" viewBox="0 0 486 494" fill="none" xmlns="http://www.w3.org/2000/svg">
<g filter="url(#filter0_d_194_5963)">
<rect x="50" y="40" width="386" height="394" rx="10" fill="#FAFAFA"/>
<g opacity="0.05">
<rect x="228.603" y="153.824" width="67.6988" height="67.6988" fill="#FF0083"/>
<rect x="320.478" y="153.824" width="43.5206" height="43.5206" fill="#FF0083" fill-opacity="0.5"/>
<rect x="160.904" y="174.134" width="27.0795" height="27.0795" fill="#FF0083" fill-opacity="0.3"/>
<rect x="192.819" y="118.04" width="35.7836" height="35.7836" fill="#FF0083" fill-opacity="0.9"/>
<rect x="296.301" y="221.523" width="67.6988" height="67.6988" fill="#FF0083" fill-opacity="0.8"/>
<rect x="296.301" y="289.221" width="67.6988" height="67.6988" fill="#FF0083"/>
<rect x="228.603" y="289.221" width="67.6988" height="67.6988" fill="#FF0083" fill-opacity="0.9"/>
<rect x="160.904" y="221.523" width="67.6988" height="67.6988" fill="#FF0083" fill-opacity="0.6"/>
<rect x="121.251" y="289.221" width="39.6521" height="39.6521" fill="#FF0083" fill-opacity="0.7"/>
</g>
<path d="M119.581 249V234.52H117.101V231.12H119.581V227.56C119.581 226.653 119.754 225.813 120.101 225.04C120.474 224.267 121.074 223.64 121.901 223.16C122.754 222.68 123.874 222.44 125.261 222.44H127.261C130.461 222.44 132.754 222.587 134.141 222.88C135.554 223.173 136.261 223.427 136.261 223.64L135.061 226.68C134.607 226.493 133.794 226.32 132.621 226.16C131.447 225.973 130.034 225.88 128.381 225.88H126.381C125.714 225.88 125.221 226 124.901 226.24C124.607 226.48 124.461 226.893 124.461 227.48V231.12H132.781V234.52H124.461V249H119.581ZM139.9 228.56C138.913 228.56 138.193 228.36 137.74 227.96C137.287 227.56 137.06 226.893 137.06 225.96C137.06 225 137.273 224.333 137.7 223.96C138.153 223.56 138.887 223.36 139.9 223.36C140.913 223.36 141.647 223.56 142.1 223.96C142.553 224.333 142.78 225 142.78 225.96C142.78 226.867 142.553 227.533 142.1 227.96C141.647 228.36 140.913 228.56 139.9 228.56ZM137.46 249V231.08H142.34V249H137.46ZM147.568 249V231.08H150.848L152.368 231.88C153.061 231.507 153.808 231.213 154.608 231C155.408 230.787 156.421 230.68 157.648 230.68C159.595 230.68 161.168 230.893 162.368 231.32C163.595 231.747 164.408 232.067 164.808 232.28L163.408 235.76C163.088 235.6 162.555 235.4 161.808 235.16C161.088 234.893 160.235 234.653 159.248 234.44C158.261 234.227 157.181 234.12 156.008 234.12H155.568C154.288 234.12 153.448 234.373 153.048 234.88C152.675 235.387 152.475 236.227 152.448 237.4V249H147.568ZM172.487 249C171.154 249 170.127 248.827 169.407 248.48C168.687 248.133 168.167 247.693 167.847 247.16C167.554 246.627 167.367 246.067 167.287 245.48C167.234 244.893 167.207 244.36 167.207 243.88V236.2C167.207 235.8 167.234 235.32 167.287 234.76C167.367 234.173 167.554 233.6 167.847 233.04C168.167 232.48 168.687 232.013 169.407 231.64C170.154 231.267 171.18 231.08 172.487 231.08H181.087C182.847 231.08 184.22 231.253 185.207 231.6C186.22 231.92 186.927 232.453 187.327 233.2C187.754 233.947 187.967 234.947 187.967 236.2V242.12H180.967C178.567 242.12 176.607 242.067 175.087 241.96C173.594 241.853 172.594 241.787 172.087 241.76V243.96C172.06 245.027 172.7 245.56 174.007 245.56H176.047C177.487 245.56 178.887 245.547 180.247 245.52C181.634 245.467 182.9 245.413 184.047 245.36C185.194 245.28 186.114 245.213 186.807 245.16L188.407 247.76C188.407 248.587 185.78 249 180.527 249H172.487ZM172.087 238.68H183.087V236.12C183.087 235.587 183.02 235.213 182.887 235C182.78 234.787 182.434 234.653 181.847 234.6C181.26 234.547 180.26 234.52 178.847 234.52H174.007C172.727 234.52 172.087 235.053 172.087 236.12V238.68ZM197.572 249C195.545 249 194.078 248.533 193.172 247.6C192.265 246.64 191.812 245.333 191.812 243.68C191.812 241.947 192.278 240.613 193.212 239.68C194.172 238.747 195.625 238.28 197.572 238.28H199.612C201.612 238.28 203.412 238.333 205.012 238.44C206.612 238.547 207.932 238.653 208.972 238.76V236.12C208.972 235.88 208.945 235.64 208.892 235.4C208.838 235.133 208.678 234.92 208.412 234.76C208.145 234.6 207.692 234.52 207.052 234.52H205.052C202.145 234.52 199.718 234.573 197.772 234.68C195.825 234.76 194.505 234.84 193.812 234.92L193.372 231.88C193.372 231.507 194.385 231.28 196.412 231.2C198.438 231.12 201.825 231.08 206.572 231.08H208.572C209.905 231.08 210.932 231.267 211.652 231.64C212.372 232.013 212.878 232.48 213.172 233.04C213.492 233.6 213.678 234.173 213.732 234.76C213.812 235.32 213.852 235.8 213.852 236.2V249H210.572L209.012 248.2C207.892 248.387 206.545 248.573 204.972 248.76C203.398 248.92 201.598 249 199.572 249H197.572ZM198.612 245.56H207.772C208.358 245.56 208.705 245.507 208.812 245.4C208.918 245.293 208.972 244.96 208.972 244.4V241.32H198.612C197.892 241.32 197.385 241.493 197.092 241.84C196.825 242.187 196.692 242.733 196.692 243.48C196.692 244.227 196.852 244.76 197.172 245.08C197.492 245.4 197.972 245.56 198.612 245.56ZM218.466 256.44V231.08H221.746L222.746 231.6C223.946 231.467 225.373 231.347 227.026 231.24C228.706 231.133 230.613 231.08 232.746 231.08H234.786C236.12 231.08 237.146 231.253 237.866 231.6C238.586 231.947 239.093 232.387 239.386 232.92C239.706 233.453 239.893 234.013 239.946 234.6C240.026 235.187 240.066 235.72 240.066 236.2V243.88C240.066 244.28 240.026 244.773 239.946 245.36C239.893 245.92 239.706 246.48 239.386 247.04C239.093 247.6 238.586 248.067 237.866 248.44C237.146 248.813 236.12 249 234.786 249H232.746C230.72 249 228.92 248.947 227.346 248.84C225.773 248.733 224.44 248.627 223.346 248.52V256.44H218.466ZM224.586 245.56H233.266C233.773 245.56 234.213 245.427 234.586 245.16C234.986 244.893 235.186 244.493 235.186 243.96V236.12C235.213 235.533 235.066 235.12 234.746 234.88C234.453 234.64 233.96 234.52 233.266 234.52H231.266C229.56 234.52 228.04 234.56 226.706 234.64C225.4 234.693 224.28 234.76 223.346 234.84V244.32C223.346 244.907 223.4 245.267 223.506 245.4C223.64 245.507 224 245.56 224.586 245.56ZM249.362 249C248.029 249 247.002 248.827 246.282 248.48C245.562 248.133 245.042 247.693 244.722 247.16C244.429 246.627 244.242 246.067 244.162 245.48C244.109 244.893 244.082 244.36 244.082 243.88V236.2C244.082 235.8 244.109 235.32 244.162 234.76C244.242 234.173 244.429 233.6 244.722 233.04C245.042 232.48 245.562 232.013 246.282 231.64C247.029 231.267 248.055 231.08 249.362 231.08H257.962C259.722 231.08 261.095 231.253 262.082 231.6C263.095 231.92 263.802 232.453 264.202 233.2C264.629 233.947 264.842 234.947 264.842 236.2V242.12H257.842C255.442 242.12 253.482 242.067 251.962 241.96C250.469 241.853 249.469 241.787 248.962 241.76V243.96C248.935 245.027 249.575 245.56 250.882 245.56H252.922C254.362 245.56 255.762 245.547 257.122 245.52C258.509 245.467 259.775 245.413 260.922 245.36C262.069 245.28 262.989 245.213 263.682 245.16L265.282 247.76C265.282 248.587 262.655 249 257.402 249H249.362ZM248.962 238.68H259.962V236.12C259.962 235.587 259.895 235.213 259.762 235C259.655 234.787 259.309 234.653 258.722 234.6C258.135 234.547 257.135 234.52 255.722 234.52H250.882C249.602 234.52 248.962 235.053 248.962 236.12V238.68ZM272.927 249C271.94 249 271.22 248.8 270.767 248.4C270.313 248 270.087 247.333 270.087 246.4C270.087 245.44 270.3 244.773 270.727 244.4C271.18 244 271.913 243.8 272.927 243.8C273.94 243.8 274.673 244 275.127 244.4C275.58 244.773 275.807 245.44 275.807 246.4C275.807 247.307 275.58 247.973 275.127 248.4C274.673 248.8 273.94 249 272.927 249ZM288.356 249C286.329 249 284.943 248.573 284.196 247.72C283.449 246.867 283.076 245.587 283.076 243.88V234.52H279.796V231.08H281.476C281.983 231.08 282.343 231 282.556 230.84C282.796 230.68 282.969 230.36 283.076 229.88L283.876 225.6H287.956V231.08H296.276V234.52H287.956V243.92C287.956 244.587 288.116 245.027 288.436 245.24C288.756 245.453 289.236 245.56 289.876 245.56H295.516L295.916 248.6C295.356 248.68 294.503 248.773 293.356 248.88C292.209 248.96 290.956 249 289.596 249H288.356ZM304.362 249C302.575 249 301.242 248.64 300.362 247.92C299.509 247.2 299.082 246.027 299.082 244.4V236.2C299.082 235.8 299.109 235.32 299.162 234.76C299.242 234.173 299.429 233.6 299.722 233.04C300.042 232.48 300.562 232.013 301.282 231.64C302.029 231.267 303.055 231.08 304.362 231.08H315.402C316.735 231.08 317.762 231.267 318.482 231.64C319.202 232.013 319.709 232.48 320.002 233.04C320.322 233.6 320.509 234.173 320.562 234.76C320.642 235.32 320.682 235.8 320.682 236.2V243.88C320.682 244.36 320.642 244.893 320.562 245.48C320.509 246.067 320.322 246.627 320.002 247.16C319.682 247.693 319.162 248.133 318.442 248.48C317.722 248.827 316.709 249 315.402 249H304.362ZM305.882 245.56H313.882C315.189 245.56 315.842 245.027 315.842 243.96V236.12C315.842 235.053 315.189 234.52 313.882 234.52H305.882C304.602 234.52 303.962 235.053 303.962 236.12V243.96C303.962 245.027 304.602 245.56 305.882 245.56ZM325.068 249V231.08H328.348L329.348 231.56C330.121 231.427 331.068 231.32 332.188 231.24C333.308 231.133 334.641 231.08 336.188 231.08H338.188C338.961 231.08 339.708 231.187 340.428 231.4C341.148 231.587 341.681 231.867 342.028 232.24C342.721 231.893 343.681 231.613 344.908 231.4C346.135 231.187 347.735 231.08 349.708 231.08H351.708C353.041 231.08 354.068 231.267 354.788 231.64C355.508 232.013 356.015 232.48 356.308 233.04C356.628 233.6 356.815 234.173 356.868 234.76C356.948 235.32 356.988 235.8 356.988 236.2V249H352.108V236.12C352.108 235.053 351.468 234.52 350.188 234.52H344.588C344.161 234.52 343.868 234.573 343.708 234.68C343.548 234.787 343.468 235.027 343.468 235.4V249H338.588V236.12C338.588 235.053 337.948 234.52 336.668 234.52H331.148C330.641 234.52 330.308 234.573 330.148 234.68C330.015 234.76 329.948 235 329.948 235.4V249H325.068ZM364.431 228.56C363.445 228.56 362.725 228.36 362.271 227.96C361.818 227.56 361.591 226.893 361.591 225.96C361.591 225 361.805 224.333 362.231 223.96C362.685 223.56 363.418 223.36 364.431 223.36C365.445 223.36 366.178 223.56 366.631 223.96C367.085 224.333 367.311 225 367.311 225.96C367.311 226.867 367.085 227.533 366.631 227.96C366.178 228.36 365.445 228.56 364.431 228.56ZM361.991 249V231.08H366.871V249H361.991Z" fill="#FF0083"/>
<rect x="50.75" y="40.75" width="384.5" height="392.5" rx="9.25" stroke="#FF0083" stroke-width="1.5"/>
</g>
<defs>
<filter id="filter0_d_194_5963" x="0" y="0" width="486" height="494" filterUnits="userSpaceOnUse" color-interpolation-filters="sRGB">
<feFlood flood-opacity="0" result="BackgroundImageFix"/>
<feColorMatrix in="SourceAlpha" type="matrix" values="0 0 0 0 0 0 0 0 0 0 0 0 0 0 0 0 0 0 127 0" result="hardAlpha"/>
<feOffset dy="10"/>
<feGaussianBlur stdDeviation="25"/>
<feComposite in2="hardAlpha" operator="out"/>
<feColorMatrix type="matrix" values="0 0 0 0 0 0 0 0 0 0 0 0 0 0 0 0 0 0 0.05 0"/>
<feBlend mode="normal" in2="BackgroundImageFix" result="effect1_dropShadow_194_5963"/>
<feBlend mode="normal" in="SourceGraphic" in2="effect1_dropShadow_194_5963" result="shape"/>
</filter>
</defs>
</svg>
