<svg width="80" height="80" viewBox="0 0 80 80" fill="none" xmlns="http://www.w3.org/2000/svg">
<path fill-rule="evenodd" clip-rule="evenodd" d="M40 0C62.088 0 80 17.912 80 40C80 62.088 62.088 80 40 80C17.912 80 0 62.088 0 40C0 17.912 17.912 0 40 0Z" fill="#0055D5"/>
<path fill-rule="evenodd" clip-rule="evenodd" d="M21.7599 26.464C21.7599 26.464 17.4559 23.024 17.1599 31.52C16.8639 38.104 16.8719 50.888 19.9199 56.928C21.2079 59.2 22.9279 58.504 26.1279 56.24C28.9119 54.184 38.9839 44.904 43.2479 40.832C47.5119 36.76 56.1599 25.08 57.9599 33.016C58.6719 36.352 59.5519 39.184 58.8799 46.584C58.6719 48.864 57.6959 50.592 53.2479 47.504C49.8879 45.344 46.6959 43.024 46.6959 43.024C46.6959 43.024 46.0799 41.92 44.6239 43.712C43.4799 45.144 42.9039 45.496 44.7359 46.584C46.5759 47.672 55.8799 54.088 59.4479 55.088C62.3919 55.944 64.0719 55.928 64.1599 50.144C64.1439 45.552 63.8799 32.408 62.2079 26.808C60.9439 23.32 59.0879 21.736 55.0799 25.656C51.0719 29.576 38.4319 41.832 31.5199 47.384C26.9359 50.824 24.9759 53.928 23.2479 48.192C22.0319 43.848 20.4559 30.328 25.4319 32.904C28.5439 34.392 30.0959 34.384 28.8799 35.32C27.6639 36.248 24.1679 39.456 24.1679 39.456C24.1679 39.456 23.0879 40.328 23.5919 42.216C24.0959 43.536 24.0959 44.192 26.8079 41.64C29.5199 39.088 31.5199 37.16 31.5199 37.16C31.5199 37.16 31.9519 36.48 33.2399 37.736C34.5279 38.992 34.7359 39.344 34.7359 39.344C34.7359 39.344 35.0799 40.28 36.4559 38.656C37.8399 37.032 38.7279 36.04 36.1119 34.52C33.5039 32.984 21.7599 26.464 21.7599 26.464Z" fill="white"/>
</svg>
