<svg width="80" height="80" viewBox="0 0 80 80" fill="none" xmlns="http://www.w3.org/2000/svg">
<path d="M40 80C62.0914 80 80 62.0914 80 40C80 17.9086 62.0914 0 40 0C17.9086 0 0 17.9086 0 40C0 62.0914 17.9086 80 40 80Z" fill="#988430"/>
<path d="M40 78.7187C61.3837 78.7187 78.7187 61.3838 78.7187 40C78.7187 18.6162 61.3837 1.28128 40 1.28128C18.6162 1.28128 1.28125 18.6162 1.28125 40C1.28125 61.3838 18.6162 78.7187 40 78.7187Z" fill="#7A6A2A"/>
<path d="M40.0001 77.9029C60.9333 77.9029 77.903 60.9332 77.903 40C77.903 19.0668 60.9333 2.09706 40.0001 2.09706C19.0669 2.09706 2.09717 19.0668 2.09717 40C2.09717 60.9332 19.0669 77.9029 40.0001 77.9029Z" fill="#BA9F33"/>
<path fill-rule="evenodd" clip-rule="evenodd" d="M17.4888 35.7282C17.2622 35.5213 17.0229 35.3139 16.8027 35.107C16.5825 34.9001 16.3564 34.6927 16.1298 34.4858L15.4566 33.8458C15.3465 33.7357 15.23 33.6388 15.1199 33.5283C15.0098 33.4315 14.8806 33.3214 14.7705 33.2241C13.877 32.3763 12.9785 31.5285 12.0974 30.6803C13.0101 31.5153 13.9035 32.3443 14.8161 33.1917L15.1332 33.5091C15.2432 33.6188 15.3597 33.7161 15.4698 33.8261L16.1426 34.4474C16.3692 34.6543 16.5894 34.8617 16.8159 35.0874C17.0425 35.3131 17.2626 35.5209 17.4892 35.7274L17.4888 35.7282ZM5.63129 35.6002C5.63129 35.6002 8.88035 35.9364 10.4663 36.163C11.9353 36.3704 16.5309 37.0756 16.5309 37.0756L5.63129 35.6002ZM5.63129 35.6002C6.54393 35.6779 7.45657 35.7747 8.36921 35.872C8.83513 35.9172 9.28185 35.9689 9.72857 36.0141L10.4142 36.0922C10.6408 36.1242 10.8609 36.1566 11.0875 36.189L13.8062 36.6225L15.1652 36.8491C15.6119 36.9267 16.0586 37.0112 16.5245 37.0889C16.0778 37.0436 15.6119 36.9788 15.1652 36.9139L13.8062 36.7198L11.0875 36.3187C10.8609 36.2863 10.6408 36.2406 10.4142 36.2086L9.72814 36.1297C9.28142 36.0845 8.8155 36.0196 8.36878 35.9676C7.45614 35.8579 6.5435 35.741 5.63086 35.5989L5.63129 35.6002ZM16.2075 37.9221C16.2075 37.9221 12.7383 38.8028 11.5666 39.1394C10.4146 39.4564 6.92579 40.518 6.92579 40.518L16.2071 37.9226L16.2075 37.9221Z" fill="#CFB66C"/>
<path fill-rule="evenodd" clip-rule="evenodd" d="M16.2069 37.9221C15.4368 38.1487 14.6709 38.3688 13.8897 38.5762L11.5725 39.1974C10.8023 39.424 10.0365 39.6442 9.26846 39.8707L8.11646 40.1877C7.73459 40.2978 7.34633 40.3947 6.95166 40.5052C7.3331 40.3772 7.72179 40.2462 8.10366 40.1361L9.25566 39.7675C10.0258 39.5277 10.7917 39.3011 11.5597 39.0618C12.3426 38.8676 13.1132 38.6603 13.8961 38.4725C14.6402 38.2848 15.4236 38.0975 16.2069 37.9226V37.9221ZM7.41118 42.6539C7.79262 42.5114 12.1941 40.4599 13.2168 39.9808C13.7288 39.741 15.217 39.2128 15.217 39.2128L7.41118 42.6539Z" fill="#CFB66C"/>
<path fill-rule="evenodd" clip-rule="evenodd" d="M7.41107 42.6539C7.74728 42.5259 8.06472 42.3693 8.38814 42.2204L9.346 41.7736L11.2686 40.8482C11.9086 40.544 12.5306 40.2082 13.1907 39.9223C13.5273 39.7803 13.864 39.6638 14.2002 39.5537L14.7122 39.392C14.8867 39.3468 15.0488 39.2947 15.2242 39.2495C14.5842 39.5537 13.9105 39.8127 13.2696 40.1101C12.6296 40.4275 11.9751 40.6865 11.3146 40.9711L9.36008 41.8317C8.70387 42.0975 8.06387 42.3821 7.41064 42.6539H7.41107ZM7.83774 44.4459C7.83774 44.4459 11.8245 42.1094 13.1967 41.3585C13.9152 40.9574 16.2388 39.805 16.2388 39.805L7.83774 44.4459Z" fill="#CFB66C"/>
<path fill-rule="evenodd" clip-rule="evenodd" d="M7.83838 44.4467C8.51123 44.0324 9.19731 43.6117 9.88339 43.1846L10.9074 42.563C11.2568 42.3561 11.5935 42.1619 11.9497 41.955C12.2992 41.7476 12.6358 41.5407 12.9917 41.3466C13.1611 41.242 13.3385 41.1511 13.5224 41.0748L14.066 40.803C14.7845 40.4535 15.503 40.0973 16.2604 39.7931C15.5743 40.227 14.8686 40.5961 14.1633 40.9775C13.8138 41.1716 13.4576 41.3466 13.1081 41.5407C12.7587 41.7348 12.4221 41.9422 12.0658 42.1299C11.7164 42.3369 11.3797 42.531 11.0239 42.7187L9.96873 43.2947L7.83923 44.4467H7.83838ZM16.207 40.317C16.207 40.317 13.7281 42.2199 12.9255 42.8284C12.123 43.4368 9.76051 45.1456 9.76051 45.1456L16.207 40.317Z" fill="#CFB66C"/>
<path fill-rule="evenodd" clip-rule="evenodd" d="M30.4335 55.6634L29.165 53.2621L29.9027 50.2588L35.1648 48.2266L32.9253 43.6314L34.032 38.9905L36.1099 34.8348L42.5308 33.8253L47.2489 29.3269L57.4368 30.0971L59.4366 40.9903L55.5855 54.7055L53.3916 61.8061L44.4982 62.1427L40.3689 59.2819L35.5339 57.2621L30.4335 55.6634Z" fill="#E2CC85"/>
<path fill-rule="evenodd" clip-rule="evenodd" d="M46.0325 55.5857C46.0325 55.5857 44.8025 56.1489 42.7045 56.0192C42.0974 55.2038 37.8452 54.822 37.8452 54.822C37.8452 54.822 37.3144 54.6603 36.3758 55.0485C35.4311 55.4325 34.5377 55.3852 33.7027 55.5921C32.8677 55.799 32.0387 54.7119 31.3987 54.4853C30.7587 54.246 29.9101 53.67 29.9101 53.67L28.1181 53.495L24.5196 51.974L18.8027 46.2784L17.2492 48.7104L16.77 51.7201L18.4984 55.2866L23.1521 59.526L32.2264 61.83L37.605 60.2453L44.3429 57.3973L46.0325 55.5853V55.5857Z" fill="#F1D789"/>
<path fill-rule="evenodd" clip-rule="evenodd" d="M13.7929 35.4564L14.9449 31.968L16.3175 29.7152L20.7378 29.3461L19.4108 33.2169L15.7155 39.7931L17.2493 45.6636L14.531 47.0225L13.6956 45.7412L13.0228 42.8028L12.9775 39.5017L13.7929 35.4564Z" fill="#F4ECB4"/>
<path fill-rule="evenodd" clip-rule="evenodd" d="M18.7508 55.3463L17.903 54.1619C17.903 54.1619 17.6764 53.5987 17.8061 53.1068C17.9341 52.6084 17.9158 52.576 17.8513 52.3883C17.7869 52.2005 17.2429 51.5533 17.2753 50.9965C17.3073 50.4333 17.2301 50.2455 17.644 49.7992C18.0775 49.3658 17.9482 48.6148 17.9482 48.6148L18.5114 48.9643L18.6394 48.7701C18.6394 48.7701 18.8463 48.9318 18.8463 49.1844C18.8915 48.835 18.7038 47.2166 19.1309 46.848C19.558 46.4794 20.3153 48.576 20.3153 48.576L19.8494 45.5339L18.6518 42.4145L16.5223 39.5665L16.3943 36.4271V36.1553C16.3943 36.1553 15.4168 37.6572 15.145 38.8433C14.9509 39.6587 15.4168 40.649 15.3199 41.8206C15.2418 42.9858 15.145 42.8949 15.4296 43.3566C15.7142 43.8182 16.4071 44.7676 16.1353 45.4536C15.8959 46.0429 15.0801 45.6286 15.0801 45.6286C15.0801 45.6286 14.9184 46.1073 14.6983 46.2822C14.6206 45.9976 14.5366 45.8163 14.3813 45.6422C14.368 45.7523 14.336 45.9012 14.336 45.9012C14.336 45.9012 14.1935 45.4545 14.051 44.8913C13.8573 44.1408 13.6499 43.1505 13.4622 42.6197C13.3846 42.9239 13.1904 43.8494 13.1904 43.8494L13.3005 45.2736L13.8313 47.2282L14.3433 48.5082L14.8416 50.0744L15.2747 51.1266L15.6241 51.9292L15.9284 53.7352L17.3974 55.2883L18.1807 55.6382L18.7499 55.3468L18.7508 55.3463Z" fill="#F3E19D"/>
<path fill-rule="evenodd" clip-rule="evenodd" d="M14.5629 32.6084C14.5629 32.6084 13.5077 34.4004 13.2039 36.2069C12.9001 38.0134 12.6279 39.9223 12.8199 42.3817C13.0141 44.861 13.3831 46.3817 13.6809 47.4692C14.1929 49.2753 15.519 51.7867 15.519 51.7867L15.5643 51.6894C15.3414 51.2669 15.1635 50.8221 15.0335 50.3625C14.8586 49.6764 14.7937 48.861 14.632 48.4919C14.4895 48.1233 14.2501 47.8059 14.1336 47.3527C14.0236 46.9193 14.0056 46.2332 13.6677 45.722C13.5252 45.5147 13.3503 44.9711 13.2987 44.4275C13.2338 43.6117 13.3311 42.6991 13.2534 41.9486C13.1109 40.6993 13.0141 39.8515 13.1433 39.1974C13.2726 38.5434 13.9463 36.6865 14.3606 35.2107C14.6324 34.2656 14.4703 33.4694 14.9686 32.6473C15.467 31.8319 15.7716 31.1134 15.8813 30.615C16.0093 30.1619 14.5612 32.6084 14.5612 32.6084H14.5629Z" fill="#F2E8B0"/>
<path fill-rule="evenodd" clip-rule="evenodd" d="M19.5667 31.8899C19.5667 31.8899 19.0231 32.0521 18.7641 32.3366C18.5052 32.6084 18.3951 32.835 18.0456 33.2945C17.6962 33.754 17.6766 34.1295 17.3916 34.7055C17.107 35.2687 16.4789 36.1165 16.4013 36.4207C16.3236 36.7249 16.1943 38.1487 16.0326 38.822C15.8901 39.4953 16.1943 40.3238 16.1943 40.3238L16.563 40.2458C16.563 40.2458 16.563 40.7249 16.932 41.0487C17.3007 41.3658 17.3655 39.974 17.3655 39.974L18.7441 35.3203L20.8215 33.9093L21.0481 32.7701L19.5659 31.8899H19.5667Z" fill="#F5EEC0"/>
<path fill-rule="evenodd" clip-rule="evenodd" d="M20.5762 34.0002C20.5762 34.0002 19.5987 34.0646 19.12 34.4145C18.9258 34.5566 18.8482 34.6731 18.6412 34.848C18.2594 35.165 17.8707 35.4564 17.6834 35.872C17.476 36.2859 17.2494 36.9139 17.0941 38.0983C17.0293 38.5967 17.0293 39.0562 16.9841 39.4577C16.9192 40.0013 16.8224 40.4348 16.874 40.7377C16.9388 41.3589 17.5797 41.6828 17.642 42.3881L18.9689 41.7152L20.2182 36.7893L22.8721 35.1253L21.3702 33.4426L20.5745 33.9972L20.5762 34.0002Z" fill="#E6DB9D"/>
<path fill-rule="evenodd" clip-rule="evenodd" d="M13.5756 67.1697C13.5812 67.1211 13.5867 67.0724 13.5923 67.0225C13.786 65.3585 13.8188 64.0973 13.9609 63.3075C14.1678 62.188 14.3103 61.7715 14.2779 61.3525C14.2327 60.6797 14.1811 60.1877 14.2459 59.6698C14.3428 58.9837 15.016 58.1683 14.9968 57.6051C14.9836 57.1584 14.7571 56.8674 14.5629 56.5956C14.3688 56.3238 14.2135 56.0973 14.2135 56.0973C14.2135 56.0973 15.5404 55.1846 15.5276 51.5081C15.5547 51.5157 15.5808 51.5266 15.6053 51.5405L16.2589 53.3978L16.7056 53.9413L18.4208 57.1388L20.628 59.2815L23.8899 61.4754L25.9353 63.7013L26.1422 69.6367L23.4692 73.1059L23.0314 73.8987C19.5535 72.1527 16.3643 69.8831 13.5752 67.1693L13.5756 67.1697Z" fill="#E5CB7A"/>
<path fill-rule="evenodd" clip-rule="evenodd" d="M21.7412 72.8478C21.7412 72.8478 21.7864 72.1101 22.3949 71.6309C22.4921 71.7926 22.5566 71.9484 22.5374 72.0644C22.6474 71.8707 23.4176 70.6278 25.1588 70.304C26.9 69.987 27.3207 68.7185 27.3207 68.7185L31.0161 65.3594L35.2427 61.4694L40.3819 59.6634L42.7836 59.0741C42.7836 59.0741 42.8288 59.2491 42.7383 59.6373C43.1846 59.6053 44.1749 59.3788 45.204 59.0161C45.6183 58.8544 46.007 58.7895 46.214 59.0033C46.5182 59.2879 46.5634 59.9612 46.5826 60.3622C47.0809 60.2522 47.6569 59.7734 48.1186 59.8187C48.8567 59.8963 49.5104 60.7637 50.2613 60.7637C51.2516 60.7637 51.6979 60.1553 52.3908 59.6762C52.8051 59.3916 53.4003 59.0362 53.7369 58.7959C54.5395 58.2067 63.0315 55.6113 63.0315 55.6113L66.0087 55.8054L66.4879 59.0029L66.2319 67.3613C66.2003 67.3916 66.1687 67.4231 66.1367 67.4534L52.5995 74.5237L33.8347 77.4003C29.6313 76.7136 25.5749 75.3183 21.8385 73.274L21.7425 72.8474L21.7412 72.8478Z" fill="#D8C173"/>
<path fill-rule="evenodd" clip-rule="evenodd" d="M14.7134 68.233C14.98 67.6753 15.2198 67.209 15.2621 67.0421C15.2954 67.3784 15.3564 68.1161 15.4792 68.9003C15.2213 68.681 14.966 68.4584 14.7134 68.2325V68.233Z" fill="#F1D789"/>
<path fill-rule="evenodd" clip-rule="evenodd" d="M28.421 76.099L30.8478 75.424L31.0548 75.4889C31.0548 75.4889 31.1648 75.5537 31.1648 75.7734C31.4691 75.5989 31.7281 75.6309 31.9158 75.5149C32.0126 75.7218 32.1095 76.4079 32.537 76.492C32.9833 76.5892 33.4624 76.2978 33.948 75.9292C34.4267 75.5473 34.972 75.0682 35.3846 74.874C35.536 75.1524 35.67 75.4398 35.7861 75.7346C36.3296 75.3011 37.2747 73.5407 38.6208 73.5727C39.0099 72.6532 39.6599 71.868 40.4905 71.3139C41.7398 70.4661 42.5227 70.4013 43.5002 70.4789C43.8884 69.9746 44.3669 69.5467 44.9112 69.2169C45.0729 69.2817 45.5196 69.5535 46.0764 69.2945C46.6396 69.0359 47.2736 68.0324 48.1086 67.9031C48.5586 67.8412 49.0161 67.9373 49.4031 68.1749C49.4031 68.1749 51.8351 65.7604 53.5132 64.9579C53.4484 64.7637 53.3191 64.0324 55.2864 62.4141C55.3965 62.5114 55.3189 62.7831 55.3965 62.7981C55.4285 62.7981 55.9085 62.5912 56.5161 62.1248C57.267 61.562 58.1664 60.9728 58.71 60.8111C59.734 60.5069 60.8203 61.1281 60.8203 61.1281C60.9127 61.0633 61.0156 61.0151 61.1245 60.9856C61.3831 60.9404 61.5708 60.9079 61.7133 60.8576C61.7005 61.1942 61.8883 61.7702 61.7133 62.2686C61.916 62.3826 62.1306 62.4737 62.3533 62.5404C62.2437 62.7797 62.0039 63.3882 61.6028 63.6796C61.939 63.8413 61.9843 64.029 62.4634 64.1916C62.2693 64.4634 61.9514 64.9297 61.8098 65.2156C61.6672 65.5198 61.1557 66.7819 60.9291 67.2606C60.6898 67.7397 60.3663 68.62 60.2106 68.7966C60.0549 68.9732 59.4921 69.722 59.0586 70.0907C59.4426 69.9482 61.0136 69.4694 61.68 69.2881C61.4816 69.5791 60.476 71.0711 59.5092 72.506C54.88 75.2806 49.7127 77.0367 44.3516 77.6574C38.9904 78.278 33.5586 77.7489 28.418 76.1054L28.421 76.099Z" fill="#E0CD81"/>
<path fill-rule="evenodd" clip-rule="evenodd" d="M20.7362 33.8253C20.7362 33.8253 20.1734 33.8253 20.0633 33.9029C19.9533 33.9806 20.6265 34.1427 20.8335 34.2204C21.0404 34.298 21.4871 34.6539 21.6036 34.9389C21.7137 35.2107 25.6488 36.7962 25.6488 36.7962L28.432 36.6537L29.3916 35.328L27.5663 33.7293L28.8463 29.9558L27.1507 30.2276L23.0731 32.6596L21.0276 33.443L20.7362 33.8253Z" fill="#DFC57C"/>
<path fill-rule="evenodd" clip-rule="evenodd" d="M26.8479 35.0746C26.8881 35.1397 26.9448 35.1931 27.0122 35.2294C27.0796 35.2658 27.1554 35.2837 27.2319 35.2815C27.8079 35.2815 28.3382 35.424 28.5584 35.715C28.9275 36.1813 29.9502 37.67 29.9502 37.67L32.3967 38.5502L32.5546 35.6693L29.8815 33.8121L26.8394 34.9316V35.0741H26.8462L26.8479 35.0746Z" fill="#E5CC7C"/>
<path fill-rule="evenodd" clip-rule="evenodd" d="M26.3679 36.1425C26.3679 36.1425 26.8142 36.1749 27.3774 35.9676C27.9406 35.7602 28.866 35.3139 29.2675 35.4889C29.8303 35.7282 29.7138 36.4791 30.3226 37.1529C30.6913 37.5671 31.3646 37.5543 31.7464 38.0011C32.1283 38.4478 33.442 38.2404 33.442 38.2404L33.9404 40.9284L31.9406 43.4918L31.2865 46.6761H28.5823L26.1119 45.696L24.895 42.752L25.5034 39.7747L26.3679 36.1425Z" fill="#D2C281"/>
<path fill-rule="evenodd" clip-rule="evenodd" d="M31.5991 36.2718C31.6662 36.2925 31.7359 36.3034 31.8061 36.3042C31.7284 36.3691 31.5663 36.5111 31.6311 36.8802C31.696 37.2493 31.9029 37.7152 31.7284 37.9998C31.8677 38.1521 31.9716 38.3334 32.0326 38.5306C32.1427 38.848 32.1751 39.139 32.8932 39.1846C32.7896 39.2484 32.694 39.3245 32.6086 39.4112C32.6086 39.4112 33.107 39.8447 33.3596 40.2458C33.6181 40.2347 34.3042 40.0213 34.3042 40.0213L34.4467 40.1186L34.7509 39.9906C34.7509 39.9906 34.4663 39.8805 34.6733 39.1881C34.8674 38.5796 35.0423 38.6121 35.0573 38.5668C35.0722 38.5216 35.1998 37.8807 35.1998 37.6218C35.2966 37.2855 35.3743 36.2628 35.3743 36.2628L35.1674 34.0041L34.0026 33.2983L33.0554 32.384L32.1619 34.0668L31.5735 34.6534L31.5283 36.1097L31.5991 36.2718Z" fill="#E2C270"/>
<path fill-rule="evenodd" clip-rule="evenodd" d="M34.4014 34.3821C34.4014 34.3821 34.6083 34.9709 34.6864 35.424C34.7139 35.3359 34.7291 35.2445 34.7316 35.1522C34.7316 35.1522 34.8933 36.0457 34.9253 36.4147C34.9902 36.4015 35.0533 36.3823 35.0678 36.4467C35.0823 36.5111 35.23 37.2301 35.1958 37.6311C35.4653 37.1865 35.8383 36.8135 36.283 36.544C36.542 36.3819 36.8462 36.2074 37.1636 36.1941C37.662 36.1813 38.0242 36.5116 38.6198 36.5116C40.0564 36.5116 41.3577 35.4564 42.3156 35.133C43.0209 34.8932 43.6293 34.7187 44.0564 34.33C44.2638 34.1555 44.6328 33.7673 44.969 33.1908C45.4158 32.4228 45.8817 31.7542 46.348 31.6702C46.137 31.709 45.9224 31.7241 45.708 31.7154C45.708 31.7154 45.8505 31.5729 46.092 31.3788C46.3335 31.1846 46.6228 30.9453 47.0367 30.9453C47.7748 30.9453 48.1434 31.0549 48.5577 31.0549C48.972 31.0421 49.2114 30.9453 49.2114 30.9453C49.2114 30.9453 49.6453 31.2495 50.6224 31.2495C51.5999 31.2623 52.2535 31.3463 52.7651 31.392C53.2767 31.4377 54.9914 31.2495 55.4834 31.264C55.8041 31.2764 56.1191 31.3534 56.4093 31.4906L54.8233 26.8826L49.1265 21.9034L45.7349 24.3046L40.5176 29.5215L35.4693 31.392L34.4142 32.5764V34.3821H34.4014Z" fill="#CCB360"/>
<path fill-rule="evenodd" clip-rule="evenodd" d="M45.7284 31.741C45.7284 31.741 45.8709 31.5989 46.1098 31.4048C46.3487 31.2107 46.641 30.9709 47.0549 30.9709C47.7926 30.9709 48.1616 31.081 48.5759 31.081C48.9902 31.0682 49.2296 30.9709 49.2296 30.9709C49.2296 30.9709 49.6639 31.2747 50.6406 31.2747C51.6181 31.2875 52.2717 31.3715 52.7833 31.4167C53.2949 31.462 55.0096 31.2747 55.5016 31.2887C55.8222 31.3008 56.1371 31.3779 56.427 31.5153L55.7085 29.4374L54.874 27.8519L52.4919 25.2433C52.4919 25.2433 49.6332 23.5605 49.6115 23.5477C49.5987 23.5349 48.6212 23.2759 48.6212 23.2759L46.0321 24.8422L43.6829 30.9201L43.6377 32.2001L45.1583 32.9186C45.5402 32.2786 45.9613 31.7666 46.356 31.7018C45.9997 31.7406 45.7279 31.7406 45.7279 31.7406L45.7284 31.741Z" fill="#D5B457"/>
<path fill-rule="evenodd" clip-rule="evenodd" d="M45.696 32.1749C45.4695 32.1877 45.2822 32.1425 45.2301 31.9808C45.036 31.4372 44.8807 31.3596 44.7181 31.3596C44.5556 31.3596 44.3363 31.709 44.2061 31.741C44.076 31.773 43.9215 31.3399 43.9215 31.3399L43.779 31.2751C43.779 31.2751 42.944 31.8187 42.3552 32.4595C41.7664 33.1004 40.8018 34.1879 40.3683 34.3816C39.9348 34.5754 38.4457 34.6406 37.9363 34.7507C37.4268 34.8608 36.8619 35.2299 36.7843 35.3139C36.7066 35.398 37.0112 35.4884 37.0565 35.5725C37.1017 35.6501 36.5577 35.6177 36.5125 35.7005C36.4805 35.7653 36.6405 36.134 36.7198 36.3217C36.8587 36.2527 37.0111 36.2151 37.1661 36.2116C37.6645 36.1988 38.0271 36.5291 38.6223 36.5291C40.0594 36.5291 41.3603 35.4739 42.3181 35.1501C43.0238 34.9107 43.6323 34.7358 44.0594 34.3475C44.2663 34.173 44.6354 33.7843 44.972 33.2083C45.2178 32.8136 45.4575 32.4446 45.6973 32.1728L45.696 32.1749Z" fill="#D2B257"/>
<path fill-rule="evenodd" clip-rule="evenodd" d="M25.0878 64.2074C25.0878 64.2074 24.9598 63.7282 23.7736 62.4922C23.437 62.1427 23.2301 61.8522 23.0035 61.6444C22.4403 61.1132 22.1101 60.9711 21.709 60.6669C20.8288 60.0132 19.8709 60.0132 19.1332 59.2107C18.3955 58.4081 17.5358 56.8747 16.9384 55.3075C16.3496 53.7412 16.1875 53.2429 16.1875 53.1976C16.1875 53.1524 16.3496 52.8482 16.5566 52.8934C16.7635 52.9387 16.7635 53.3397 16.8156 53.437C16.9187 53.5958 17.0356 53.7451 17.165 53.8833C17.4692 54.2332 17.9027 54.6513 18.1229 55.2751C18.0776 54.7443 17.8963 54.1555 17.8963 54.1555C17.8963 54.1555 19.0355 54.874 20.0062 55.6245C20.9837 56.3755 21.3847 56.6344 21.6702 57.1132C21.9556 57.5919 22.628 58.8544 22.9502 59.2235C23.2723 59.5925 27.6862 60.9839 27.6862 60.9839L29.7858 62.5493L30.8281 64.8341L30.0124 66.1141L28.4461 66.4508L25.9023 65.3116L25.0878 64.2069V64.2074Z" fill="#D2B159"/>
<path fill-rule="evenodd" clip-rule="evenodd" d="M19.437 56.3367C19.437 56.3367 19.9678 57.1844 21.2623 57.987C22.4275 58.6927 24.272 59.3336 25.9164 59.7154C26.861 59.942 27.8061 60.1165 28.6539 60.1297C30.9387 60.1617 32.5114 59.5085 34.4599 59.2947C35.5151 59.1847 36.8096 59.1006 38.1557 58.7827C39.8837 58.3684 40.9065 57.9021 42.2982 57.2467C43.3077 56.7808 44.2336 56.4314 44.9841 55.9847C46.0393 55.3634 46.8094 54.6709 47.7028 54.464C47.5927 54.7682 47.4763 55.3118 46.5961 55.875C47.062 55.8618 47.7028 55.8298 47.7028 55.8298C47.7028 55.8298 47.0816 56.1984 45.9876 57.027C45.3143 57.539 44.4213 58.4056 43.5087 58.9816C42.9195 59.3506 42.2786 59.6216 41.8579 59.8426C40.8339 60.4058 40.4209 60.6904 39.7481 61.3786C39.9874 61.3658 40.007 61.3786 40.007 61.3786C40.007 61.3786 39.1588 61.4887 38.5508 61.8121C38.4228 61.8121 38.201 61.7668 37.8127 61.8769C37.5085 61.9738 37.107 62.1944 36.6931 62.3104C36.1039 62.4853 35.9102 62.4077 35.9102 62.4077L36.007 62.6018C36.007 62.6018 35.239 62.5886 34.983 62.6146C35.0283 62.6274 35.0155 62.6471 35.0155 62.6471C34.9705 62.6546 34.9272 62.6699 34.8875 62.6923C34.7643 62.7721 34.6288 62.8311 34.4864 62.8668C34.4087 62.8796 34.3439 62.8796 34.2466 62.8992C34.279 62.9769 34.5316 63.4112 34.6481 63.6672C34.5513 63.7321 33.0946 64.8324 33.0946 64.8324C33.1398 64.9035 33.1767 64.9795 33.2047 65.059C33.2499 65.2011 33.2695 65.4084 33.3148 65.5053C33.4244 65.6994 33.4893 65.7319 33.4893 65.7319C33.4893 65.7319 33.3148 65.7643 33.0101 65.8419C32.7516 65.9068 32.4341 66.0164 31.9861 66.0813C31.8487 66.0992 31.7104 66.11 31.5718 66.1137C31.6367 66.2562 31.9213 66.7998 31.3969 67.4274C30.8725 68.055 30.7108 68.1464 30.5491 68.5474C30.4677 68.4859 30.3811 68.4316 30.2901 68.3853C30.1156 68.3076 29.8758 68.1916 29.7918 68.0359C29.7428 68.2433 29.6779 68.4468 29.5977 68.6443C29.4359 69.0778 29.1966 69.5053 29.1514 69.8287C28.9764 69.6346 28.653 69.2527 28.2063 69.3304C27.7596 69.408 27.4037 70.0164 27.3261 70.1914C27.3261 70.0813 27.2484 69.9972 27.2292 70.1265C27.216 70.269 26.9702 71.7572 25.5981 72.9613C25.5853 72.6571 25.5853 71.9838 25.5529 71.7641C25.4249 71.8921 25.2683 72.0811 24.336 72.4826C23.4234 72.8836 23.568 73.2851 23.568 73.2851C23.568 73.2851 23.4903 72.6451 23.9823 71.971C24.4806 71.2981 24.7849 70.9807 24.7849 70.9291C24.7768 70.8765 24.7544 70.8272 24.72 70.7866C24.6551 70.7217 24.5259 70.6441 24.5259 70.5924C24.6035 70.5604 25.3737 70.1914 25.3284 69.4272C25.2832 68.7416 24.9922 68.3853 24.7849 68.1331C24.7529 68.1007 25.0895 67.8613 25.0438 67.7837C25.0114 67.7385 24.5975 67.4338 24.5455 67.2717C24.5577 67.1749 24.5794 67.0796 24.6103 66.9871C24.6556 66.8446 24.688 66.7473 24.6752 66.6505C24.6428 66.4888 24.4678 66.042 24.4162 65.9968C24.4614 66.0096 24.7849 65.9968 24.7849 65.9968C24.7849 65.9968 24.5263 65.5825 24.4806 65.3884C24.435 65.1943 24.3381 64.6827 24.2865 64.5858C24.3966 64.5986 24.6684 64.6178 24.6684 64.5858C24.6816 64.4885 24.429 64.3268 24.5404 64.2018C24.618 64.2146 24.7669 64.2795 24.909 64.4608C24.8314 64.2535 24.7021 63.8524 24.4299 63.6907C24.5579 63.6455 24.9931 63.5285 25.3749 63.7551C25.7568 63.9817 25.8869 64.2987 25.8869 64.2987C25.8869 64.2987 26.1135 64.4736 26.4634 64.7326C26.8644 65.0496 27.3756 65.5006 28.1914 65.8197C28.3663 65.917 28.8126 65.917 29.1364 65.8522C29.2774 65.8186 29.4126 65.7641 29.5375 65.6905C29.5826 65.6639 29.6303 65.6422 29.68 65.6256C29.6104 65.486 29.5304 65.3517 29.4406 65.2241C29.5507 65.2241 29.68 65.2373 29.68 65.2373C29.68 65.2373 29.7577 65.0624 29.4082 64.7253C29.4859 64.6477 29.5831 64.5973 29.5831 64.4664C29.4731 64.4536 29.2789 64.2919 29.2337 64.227C29.2981 64.1818 29.3954 64.0329 29.5055 63.9876C29.4082 63.91 29.1689 63.5861 29.0588 63.5541C29.1639 63.5151 29.2657 63.4674 29.363 63.4116C29.363 63.4116 28.8194 63.2691 28.6445 63.1527C28.4695 63.0247 28.211 62.8032 28.0557 62.7384C27.8935 62.6735 27.609 62.6415 27.4925 62.5118C27.6021 62.5442 27.7771 62.5118 27.9068 62.5118C28.0036 62.5118 28.0493 62.5246 28.0813 62.5246C28.0685 62.4794 28.0685 62.3821 28.3211 62.3501C28.4426 62.3318 28.5605 62.2946 28.6705 62.24C28.6705 62.24 28.4307 62.2272 28.1585 61.9682C27.8863 61.7092 27.6602 61.5023 27.5049 61.4699C27.3431 61.4374 27.0389 61.58 26.8512 61.5667C26.5922 61.5347 26.4821 61.405 26.4821 61.405C26.4821 61.405 25.6215 61.4827 23.7122 60.3179C22.0614 59.308 21.3429 58.4149 21.3429 58.4149C21.1884 58.3589 21.0391 58.2895 20.8966 58.2076C20.2754 57.8842 19.4144 57.2109 19.4404 56.3303L19.437 56.3367Z" fill="#C2A44D"/>
<path fill-rule="evenodd" clip-rule="evenodd" d="M43.249 17.4886C43.3987 17.5373 43.5318 17.627 43.633 17.7476C43.9372 18.0971 44.1313 18.7571 43.4388 19.4628C43.7106 19.5597 43.8228 19.5908 44.0601 19.5597C43.8207 19.8447 43.2771 20.4531 43.2447 20.9839C43.2123 21.4174 43.4841 21.5471 43.4841 21.5471C43.4841 21.5471 43.0698 22.0258 43.0506 22.8271C43.2462 22.6065 43.4603 22.4029 43.6906 22.2187C44.1697 21.8368 44.8298 21.4033 45.2765 21.1315C45.2704 21.2454 45.2858 21.3595 45.3217 21.4677C45.3217 21.4677 46.1563 20.7817 46.8577 21.0863C47.1747 21.2288 47.0322 21.6751 47.0322 21.6751C47.0322 21.6751 47.4661 21.5134 47.7704 21.8176C48.0746 22.1218 48.5046 22.9065 48.7252 23.2107C48.8221 23.3532 49.0747 23.625 49.3332 24.0457C49.6865 24.6346 49.9814 25.2567 50.2139 25.9029C50.2267 25.5663 50.3107 25.0423 51.269 25.3722C52.2269 25.7088 53.314 26.4145 54.2267 27.8042C55.1393 29.1938 55.3655 30.7627 55.825 31.36C56.2909 31.936 56.77 32.8939 56.8025 33.2954C56.8349 33.6969 56.66 34.9909 57.6178 38.4926C57.8896 37.4054 58.3039 34.9909 58.3039 34.9909L58.5305 32.8614L58.7895 26.2724L51.909 20.5564L46.5305 16.6532L43.0288 16.9899L43.2485 17.4882L43.249 17.4886Z" fill="#CAA13E"/>
<path fill-rule="evenodd" clip-rule="evenodd" d="M56.0323 27.2943C56.0323 27.2943 55.935 26.6543 54.3171 25.5663C52.6988 24.492 51.4367 24.492 50.2719 23.5793C49.3784 22.8608 48.4466 21.21 47.8399 20.6665C47.2507 20.1293 47.1538 18.5758 47.1538 18.5758L49.1408 16.9118L52.0959 12.6404L54.594 9.88971L55.7912 11.5537L57.4552 13.5083L58.3807 17.4306L58.7173 23.1718L56.0293 27.2947L56.0323 27.2943Z" fill="#B59544"/>
<path fill-rule="evenodd" clip-rule="evenodd" d="M58.0328 34.176C58.0818 33.3053 57.9742 32.4329 57.7153 31.6002C57.2887 30.2733 56.3564 27.9172 55.9233 27.0349C55.7484 26.0574 55.8781 25.9797 56.0659 25.8697C56.2536 25.7596 56.9593 25.3577 57.3459 23.9475C57.7324 22.5374 58.9318 22.4913 58.9318 22.4913L59.6695 21.9477L60.7895 24.7501L61.7665 27.2811L62.0708 29.2164L62.2973 30.8668L61.7665 34.3556L59.1455 36.7245L58.0324 34.176H58.0328Z" fill="#C89D3A"/>
<path fill-rule="evenodd" clip-rule="evenodd" d="M21.4565 73.062V72.9903C21.511 72.9562 21.5591 72.9129 21.5986 72.8623C21.6438 72.7974 21.6767 72.7198 21.7087 72.7006C21.7736 72.6682 22.0778 72.5726 22.2395 72.6033C22.4012 72.634 22.8287 72.8102 23.0553 72.7974C23.5212 72.7846 24.0648 72.4284 24.9258 72.5905C26.2203 72.8299 26.5245 73.7101 27.2754 74.2084C27.7874 74.5583 28.3173 74.4026 28.395 74.4026H28.5695C28.6019 74.4026 28.8413 74.1308 28.971 74.144C29.23 74.1568 29.2556 74.3706 29.4173 74.3834C29.7992 74.4286 30.5373 74.1892 30.9064 74.2865C31.0158 74.3208 31.1153 74.381 31.1964 74.4621C31.2776 74.5431 31.3379 74.6426 31.3723 74.752C31.4499 74.9914 31.3851 75.2956 31.1973 75.4705C30.7963 75.8391 30.4144 76.189 30.3368 76.4945C30.4355 76.5698 30.5304 76.6501 30.6209 76.7351C27.4184 75.9192 24.3372 74.6855 21.4565 73.0658V73.062Z" fill="#CEB052"/>
<path fill-rule="evenodd" clip-rule="evenodd" d="M55.9224 60.1297C55.9224 60.1297 56.9319 58.7836 57.2817 58.1167C57.6312 57.4293 56.1749 48.7253 56.1749 48.7253L59.1006 39.1398L59.0225 36.02C59.0225 36.02 59.165 33.1396 59.5017 31.8903C59.9032 32.6088 61.1524 33.4763 61.4242 33.9358C61.5522 33.0551 61.987 31.1979 61.9226 29.2173C62.1619 29.5859 62.7379 33.2949 62.7379 33.2949L63.3139 35.7931L64.0649 38.4469L64.8999 41.2497L65.3982 43.1851L65.6828 43.651L65.9226 44.4663L66.1491 45.347L66.8028 47.4116L67.1868 49.1072L67.491 52.1818C67.5572 52.4172 67.6048 52.6574 67.6335 52.9003C67.6463 53.2369 67.5883 53.431 67.5883 53.4895C67.5883 53.5479 67.6984 54.2272 67.6531 54.7388C67.5883 55.2508 67.5883 55.6514 67.1868 56.0188C66.7853 56.3861 66.5331 58.5818 66.5331 58.5818L65.8146 58.103C65.8146 58.103 65.9571 57.449 65.6205 56.8538C65.2839 56.2586 64.6302 56.1352 64.2611 56.2325C63.8925 56.3102 63.1548 56.4262 62.915 56.6336C62.6884 56.8405 62.1321 57.4814 61.6205 57.7728C60.9805 58.1568 59.9377 58.1871 59.3813 58.3164C58.8181 58.4444 58.1969 58.8284 57.5428 59.2742C57.03 59.6063 56.4885 59.8918 55.9249 60.1276L55.9224 60.1297Z" fill="#CCA847"/>
<path fill-rule="evenodd" clip-rule="evenodd" d="M55.9224 74.272C55.9224 74.272 55.965 74.2997 56.0474 74.345C60.6458 72.1905 64.766 69.1367 68.1647 65.3636C68.1276 64.0538 68.0794 62.711 68.0265 62.2136C67.9168 61.1584 67.9945 60.0841 67.962 59.4628C67.9296 58.8416 67.5802 56.3106 67.4185 55.657C67.2435 55.0033 66.9065 54.6795 66.8553 54.6795C66.81 54.6927 66.5378 55.9096 66.5378 56.2155C66.5378 56.5214 66.473 57.2578 66.473 57.4456C66.4277 57.4323 66.4085 57.3176 66.4085 57.2706C66.3437 57.4323 66.266 57.7173 66.2336 57.7498C66.2012 57.7822 66.2788 57.478 66.2336 57.4131C66.1884 57.3483 66.1056 57.3807 66.1235 57.219C66.1312 57.1231 66.1463 57.028 66.1688 56.9344C66.1688 56.9344 65.9746 57.219 65.8325 57.9439C65.69 58.6624 65.69 58.682 65.6384 58.7465C65.5932 58.8245 65.3342 59.0831 65.321 59.1804C65.3082 59.3549 65.5608 59.5298 65.58 59.6267C65.5928 59.7888 65.3534 60.5393 65.2758 60.9067C65.1981 61.274 65.2305 61.9938 65.1477 62.3629C65.0829 62.6995 65.0197 62.8937 64.7983 63.0357C64.96 63.0682 65.1153 63.1134 65.1153 63.1134C65.1153 63.1134 65.3419 64.0713 64.7659 64.887C64.5589 65.1716 64.5073 65.3013 64.2872 65.5603C63.8532 66.039 63.5166 66.5843 63.4842 66.9389C63.4618 66.8342 63.4467 66.7282 63.4389 66.6214C63.4389 66.6214 62.7661 67.4048 62.4811 67.8515C62.1124 68.4275 61.6009 68.3951 61.4571 68.5376C61.3133 68.6801 61.2821 68.9387 61.3291 69.146C61.2011 69.178 60.9604 69.2237 60.7983 69.722C60.7207 69.9806 60.5265 70.234 60.2223 70.4081C59.9181 70.5822 59.549 70.6347 59.3613 70.6799C59.523 70.7251 59.5879 70.7251 59.6655 70.7768C59.5687 70.9385 59.1219 71.191 58.6236 71.5149C58.1252 71.8191 57.8855 72.2654 57.7626 72.5568C57.6346 72.8286 57.4456 73.0035 57.1413 73.036C57.2693 73.1136 57.4588 73.2945 57.5556 73.353C57.4131 73.3854 57.1716 73.3854 56.7403 73.7545C56.2872 74.1299 56.1319 74.24 55.9245 74.2724L55.9224 74.272Z" fill="#C39D3C"/>
<path fill-rule="evenodd" clip-rule="evenodd" d="M46.9162 77.2715C47.164 77.0978 47.4325 76.9554 47.7153 76.8478C48.7248 76.4467 49.7928 76.3691 50.2135 76.2398C50.615 76.1118 50.932 75.9352 51.4303 75.8383C51.4171 75.9518 51.406 76.0585 51.3941 76.1592C49.9248 76.621 48.4287 76.9925 46.9141 77.2715H46.9162Z" fill="#D2BA6B"/>
<path fill-rule="evenodd" clip-rule="evenodd" d="M65.5359 50.7187C65.5359 50.7187 65.3289 51.8383 64.9599 52.544C64.5908 53.2497 64.1919 54.2268 64.1919 54.2268C64.1943 54.0066 64.2203 53.7873 64.2695 53.5727C63.8036 53.8445 62.6708 54.4986 62.3495 54.7896C62.0453 55.0613 61.5337 55.5405 61.4045 55.7671C61.7087 54.874 62.0257 54.0715 62.0777 53.7024C61.6118 54.0391 59.4367 55.8319 58.3043 57.0163L54.7766 59.8707C54.3695 60.0903 53.9503 60.2866 53.5209 60.4587C52.9129 60.7172 52.1944 60.9374 51.6637 61.1448C51.8062 60.7629 52.0323 60.4258 52.3497 60.1024C52.6864 59.7854 53.6959 58.6914 53.8512 58.1824C53.9937 57.6516 54.0261 57.3346 53.8384 56.8879C53.6634 56.9331 53.2624 56.9528 52.9906 57.0304C52.7188 57.1081 52.4274 57.3991 52.4274 57.3991C52.4274 57.3991 52.6343 56.2146 53.081 55.0951C52.7444 55.1079 52.1684 55.2047 52.1684 55.2047C52.1684 55.2047 52.971 53.8586 54.3444 52.9203C53.9238 53.0099 53.5122 53.1375 53.1147 53.3018C52.3122 53.6384 51.432 54.1368 50.7783 54.4085C51.147 53.8965 53.736 50.2016 55.2767 46.758C56.8127 43.3212 57.3865 42.441 57.7232 40.5965C57.8977 39.6838 57.8512 38.3352 57.8977 37.1273C57.9429 35.9296 58.0918 34.8553 57.995 34.1368C58.396 34.6351 59.8979 36.0397 59.9495 39.1791C59.9947 42.3181 58.5129 46.5579 56.9398 48.8422C57.3238 48.9523 58.3188 49.082 59.3411 47.3062C60.3634 45.5305 60.351 45.0347 60.7201 44.2965C60.7653 44.6656 60.7521 44.7949 60.7521 44.7949C60.7521 44.7949 62.2411 42.9892 62.9464 40.7172C63.0889 41.6947 63.5096 42.5557 62.8491 44.3486C62.2603 45.9665 61.4902 46.3616 61.4902 46.3616C61.4902 46.3616 61.8721 46.2968 62.4348 45.9601C62.5321 46.1995 62.5129 46.4721 62.6746 46.5685C62.8363 46.665 63.0565 46.8275 63.0889 46.9828C63.2634 46.7239 63.5352 46.3936 63.6197 46.1478C63.5548 46.6598 63.5096 48.8986 63.7477 50.0378C64.2465 49.9925 64.7576 49.9601 65.1071 49.0603C64.8677 49.9409 64.8677 50.4713 65.0294 51.2222C65.2948 51.0413 65.5342 50.7174 65.5342 50.7174L65.5359 50.7187Z" fill="#C0993A"/>
<path fill-rule="evenodd" clip-rule="evenodd" d="M48.7187 15.0421C48.7187 15.0421 48.2204 15.2491 47.3726 15.2491C46.6349 15.2491 46.8418 14.9645 45.6898 14.9645C43.9166 14.9645 37.7222 15.9885 36.6346 15.974C35.9289 15.9612 39.0163 16.2782 39.0163 16.2782L46.9066 16.3883L48.4921 16.2603L49.0814 15.0613L48.7187 15.0421Z" fill="#A88F33"/>
<path fill-rule="evenodd" clip-rule="evenodd" d="M28.2588 30.4661C28.2588 30.4661 27.2489 31.2363 26.8218 31.8255C26.3947 32.4147 26.1682 32.8026 25.6826 33.2817C25.7966 33.2861 25.9105 33.2708 26.0193 33.2365C26.0193 33.2365 26.0193 33.3645 25.9416 33.3982C26.0087 33.3907 26.0766 33.3983 26.1404 33.4204C26.2042 33.4426 26.2622 33.4787 26.3102 33.5262C26.1677 33.6038 25.7795 33.9925 26.0837 34.4521C26.3102 34.8015 26.7894 34.8335 26.7894 34.8335C26.7894 34.8335 26.6793 35.1509 27.1388 35.1185C28.1291 35.0733 29.2359 34.6394 29.747 34.7494C30.259 34.8774 30.55 34.9244 30.9123 35.5524C31.2963 36.1737 31.6308 36.2709 31.6308 36.2709C31.6308 36.2709 31.8573 35.6945 31.8057 34.8339C31.9915 34.37 32.0944 33.8772 32.1099 33.3777L31.7733 30.8988L30.3043 29.0411L28.4013 30.0962L28.2588 30.4649V30.4661Z" fill="#E3C571"/>
<path fill-rule="evenodd" clip-rule="evenodd" d="M30.0645 30.0971C30.0645 30.0971 30.207 30.4337 30.8026 30.4657C30.7377 30.6082 30.7377 30.6278 30.7574 30.7375C30.7702 30.8476 30.7894 31.0093 30.7894 31.0093C30.8549 30.9775 30.9142 30.9342 30.9643 30.8813C30.9967 31.0238 30.9319 31.2499 30.9643 31.4121C30.9843 31.5107 31.0168 31.6063 31.0611 31.6966C31.0706 31.6745 31.0814 31.653 31.0936 31.6322C31.1064 31.5998 31.2216 31.9817 31.5403 32.2722C31.54 32.2275 31.551 32.1835 31.5723 32.1442C31.5772 32.2254 31.604 32.3037 31.6499 32.3708C31.6261 32.3594 31.6043 32.3441 31.5855 32.3255C31.5855 32.3255 31.6175 33.3495 31.7925 33.879C31.8217 33.8448 31.8477 33.808 31.8701 33.769C31.8701 33.737 31.8573 34.054 31.8249 34.281C31.7797 34.5075 31.8121 34.8245 31.8121 34.8245C31.9288 34.7327 32.057 34.6565 32.1935 34.598C32.3877 34.5199 32.7055 34.2805 32.8992 33.7498C33.0116 33.4492 33.0982 33.1396 33.1582 32.8243C33.2208 32.9448 33.264 33.0744 33.2862 33.2083C33.2994 33.37 33.6037 33.286 33.6037 33.286L33.6685 32.5803L34.0525 30.9815L34.4019 29.9913L36.0847 27.3702L39.1251 25.0287L41.779 25.6371L44.0182 22.595L40.1607 20.2778L36.5101 20.6596L33.197 25.2484L30.5436 29.4106L30.0645 30.0966V30.0971Z" fill="#D8B65B"/>
<path fill-rule="evenodd" clip-rule="evenodd" d="M49.1845 23.4564C49.1845 23.4564 48.958 23.5017 48.3043 23.8404C47.6507 24.1792 47.1975 24.2867 46.945 24.7851C46.6924 25.2834 46.6732 25.6785 46.6732 25.6785C46.6732 25.6785 47.1199 25.4844 47.3789 25.4195C47.6507 25.3551 47.9549 25.3743 47.9224 25.4844C47.8913 25.5599 47.8481 25.6298 47.7944 25.6913C47.7944 25.6913 48.3064 25.6785 48.2928 25.9311C48.2791 26.1837 48.1959 26.4619 48.0991 26.5847C48.0018 26.7127 47.6007 26.9022 47.5555 27.0511C47.4454 27.3553 47.6007 27.3681 47.5423 27.6139C47.4971 27.8537 47.2837 28.3196 46.5844 29.1349C45.8659 29.9507 45.5604 30.5267 45.5604 30.5267C45.5604 30.5267 45.211 29.8731 45.0296 29.3099C44.9016 29.3743 44.2143 29.7562 44.2143 29.7562L42.622 24.2095L42.654 23.8404C42.654 23.8404 42.7965 23.6659 42.8289 23.3421C42.5895 23.2644 42.5571 23.1996 42.2397 22.8958C41.9222 22.592 41.6637 22.2225 41.1333 21.9699C41.0557 21.8274 40.9584 21.6337 40.5701 21.5556C40.1819 21.4775 39.9489 21.4135 39.9489 21.4135C39.9489 21.4135 40.1558 21.3355 40.2531 21.1738C40.0133 21.2062 39.8196 21.2838 39.2952 21.271C38.7645 21.2578 38.706 21.2386 38.415 21.2838C38.124 21.3291 37.775 21.4588 37.6449 21.0121C37.5024 20.902 37.1982 20.9993 36.9392 21.3807C36.6802 21.7621 36.5898 22.0668 36.0914 22.2157C36.0564 22.4354 35.9794 22.6462 35.8648 22.8369C35.7223 23.0767 35.4958 23.3161 35.1916 23.6719C34.7124 24.2351 34.7901 25.1605 34.0263 25.8662C33.2562 26.5715 34.1543 23.9113 34.1543 23.9113L35.384 20.9673L38.8856 17.5433L44.3227 17.1746L44.8534 19.9906L47.5073 20.9033L49.1837 23.4598L49.1845 23.4564Z" fill="#D3AE4D"/>
<path fill-rule="evenodd" clip-rule="evenodd" d="M50.0454 24.0777L47.7606 20.7834L46.1619 19.5533C46.1619 19.5533 45.0227 17.4566 44.945 17.3918C44.8801 17.3466 43.8058 17.2301 43.1197 17.1849L43.2477 17.5019C43.3975 17.5505 43.5305 17.6402 43.6317 17.7609C43.9359 18.1103 44.1301 18.7703 43.4376 19.4761C43.7094 19.5729 43.8216 19.6041 44.0588 19.5729C43.8195 19.8579 43.2759 20.4663 43.2435 20.9971C43.211 21.4306 43.4828 21.5599 43.4828 21.5599C43.4828 21.5599 43.0685 22.039 43.0493 22.8399C43.245 22.6193 43.4591 22.4157 43.6893 22.2315C44.1685 21.8475 44.8285 21.4157 45.2752 21.1439C45.2691 21.2579 45.2845 21.3721 45.3205 21.4805C45.3205 21.4805 46.155 20.7945 46.8565 21.0987C47.1735 21.2412 47.031 21.6879 47.031 21.6879C47.031 21.6879 47.4649 21.5262 47.7691 21.8304C48.0733 22.1346 48.5068 22.9175 48.727 23.2222C48.8238 23.3647 49.0764 23.6365 49.335 24.0567C49.6883 24.6458 49.9832 25.268 50.2156 25.9145C50.2284 25.6555 50.2805 25.2932 50.7276 25.2932L50.0479 24.0764L50.0454 24.0777Z" fill="#CAA13E"/>
<path fill-rule="evenodd" clip-rule="evenodd" d="M15.7931 33.437C15.7931 33.437 15.6314 33.0355 15.7931 32.2526C15.9548 31.4697 16.2074 31.1006 16.2914 29.9486C16.3755 28.7966 17.1264 27.3596 17.1264 27.3596L19.2038 26.4149L20.6733 26.816L21.1068 28.7838L19.2491 29.8078C19.2491 29.8078 19.1522 30.2413 18.6278 30.5907C18.1035 30.9402 17.3786 31.2119 17.204 31.5682C17.0997 31.7864 17.0236 32.0169 16.9775 32.2543C16.9775 32.2543 16.4467 32.1442 16.1297 32.4937C15.7931 32.8499 15.8059 33.1669 15.7931 33.4387V33.437Z" fill="#F4EFC8"/>
<path fill-rule="evenodd" clip-rule="evenodd" d="M19.9874 32.9126C19.9874 32.9126 19.8124 33.0227 19.6832 33.2966C19.5552 33.0897 19.2492 31.8596 19.2365 30.7529C19.2236 29.6461 19.1575 29.3717 19.4135 28.9903C19.6695 28.6089 20.6735 28.2069 20.531 27.52C20.3885 26.8664 19.7928 26.5946 19.0615 26.7823C18.5495 26.9103 18.1685 27.9991 17.6377 28.5427C17.2362 28.957 16.7575 28.8922 16.6282 29.1187C16.4533 29.4229 16.615 29.7272 16.5634 29.9213C16.5502 29.9861 16.3884 30.3356 16.097 30.7563C15.5082 31.6041 14.5115 32.8017 14.3818 33.8761C14.4271 33.2676 14.3951 33.2548 14.5568 32.5816L14.4595 32.4198L15.0995 30.3228L15.5138 28.5948L16.4396 25.7011L18.0704 22.7435L19.6563 20.9698L21.3066 21.0799L21.5008 23.5588L22.4458 28.2129L24.4328 30.6594L21.2482 32.8026L19.9861 32.9126H19.9874Z" fill="#EBCC73"/>
<path fill-rule="evenodd" clip-rule="evenodd" d="M20.9776 33.792C20.9776 33.792 20.7058 33.8569 20.6085 33.8052C20.5113 33.7536 20.4148 33.6951 20.4468 33.6303C20.4788 33.5654 20.6538 33.4558 20.6538 33.4037C20.6574 33.3567 20.6425 33.3101 20.6123 33.2739C20.5821 33.2376 20.539 33.2146 20.4921 33.2096C20.3432 33.1904 20.2979 33.2873 20.2979 33.2873C20.2979 33.2873 20.1554 33.1776 20.0394 33.1593C20.108 33.1508 20.1771 33.1464 20.2463 33.146C20.0674 33.065 19.8777 33.0105 19.6831 32.9843C19.8448 32.8875 20.1623 32.6025 20.3692 32.6025C20.5761 32.6025 20.7058 32.5705 20.6734 32.4604C20.641 32.3503 20.4793 32.1886 20.3048 32.1237C20.3692 32.0461 20.4148 31.9296 20.2595 31.6117C20.0974 31.2947 20.1623 31.081 20.2143 31.0037C20.2595 30.9065 20.4212 30.7319 20.4989 30.6219C20.5765 30.5118 20.6414 30.3629 20.7707 30.2852C20.8355 30.24 21.0425 30.1572 21.2498 30.0783C21.4764 30.0006 21.6641 29.9034 21.7934 30.0006C21.9359 30.0975 21.8711 30.2272 21.8711 30.2272C21.8711 30.2272 22.3178 30.0651 22.7188 30.2724C23.1203 30.4661 24.0978 30.5894 24.0978 30.5894L24.4481 31.2951L22.1309 33.2821L21.173 33.7613L20.9789 33.7933L20.9776 33.792Z" fill="#E5C66B"/>
<path fill-rule="evenodd" clip-rule="evenodd" d="M24.194 30.5438C24.194 30.5438 23.4755 31.0229 23.3138 31.1974C23.4107 31.2107 23.5724 31.2755 23.5075 31.3724C23.4299 31.4692 22.9639 31.8059 22.705 32.1233C22.4332 32.4403 22.1742 32.8418 22.0837 33.036C21.9869 33.2105 21.2487 33.722 20.9966 33.7865C21.5274 33.7865 22.5953 33.1328 22.9964 33.1328C22.9836 33.3269 23.1064 33.5471 23.333 33.5663C23.5596 33.5855 24.2132 33.7088 25.0934 33.1652C25.9736 32.6345 25.6827 32.2394 26.0513 31.9808C26.757 31.5145 27.0416 31.1002 27.4299 30.8416C27.8181 30.583 28.0191 30.5242 28.0191 30.5242C28.0191 30.5242 28.0319 30.33 28.1471 30.3497C28.1786 30.3533 28.2086 30.3654 28.2337 30.3848C28.2588 30.4042 28.2781 30.4301 28.2896 30.4597C28.2896 30.4597 28.9629 29.9806 29.8256 29.8513C29.8055 29.8423 29.7894 29.8262 29.7804 29.8061C29.7804 29.8061 29.8448 29.7737 29.858 29.7412C29.858 29.7412 29.9032 29.6764 29.9357 29.7088C29.9681 29.7412 30.0133 29.9806 30.0782 30.0779C30.2207 30.013 30.4925 29.4046 30.4925 29.4046L31.1466 27.5341V25.8253L30.6346 25.9226L26.7946 27.5533L24.4641 29.9678L24.1923 30.5438H24.194Z" fill="#E6BD62"/>
<path fill-rule="evenodd" clip-rule="evenodd" d="M35.2492 22.1619C35.4569 22.1115 35.656 22.0307 35.8401 21.9221C35.7625 22.1295 35.7624 22.356 35.4258 22.848C35.0892 23.3399 35.0764 23.4112 34.8046 23.9223C34.5328 24.4531 34.5004 25.2169 34.2414 25.5531C34.3575 25.4967 34.482 25.4596 34.61 25.4434C34.61 25.4434 34.3515 25.67 34.2414 25.9093C34.1313 26.1487 33.9372 26.647 33.4584 26.9517C32.9797 27.2563 32.3709 27.45 31.7172 28.1685C31.0631 28.8738 30.3903 29.7673 30.0532 30.0885C30.2282 29.7843 30.4675 29.1759 30.5324 28.7748C30.5972 28.3738 30.5191 27.8942 30.6292 27.3638C30.7393 26.8335 30.7393 26.4512 31.2692 25.5253C31.7991 24.5995 32.7062 21.3828 32.7062 21.3828L34.6608 20.7616L35.25 22.1598L35.2492 22.1619Z" fill="#B6933F"/>
<path fill-rule="evenodd" clip-rule="evenodd" d="M33.8381 20.9775C33.8381 20.9775 33.2493 21.8253 33.0876 22.5762C32.9259 23.3271 33.0744 23.2623 32.9775 23.6314C32.9196 23.8564 32.9196 24.0924 32.9775 24.3174C33.1815 23.9889 33.4606 23.7137 33.792 23.5145C34.3488 23.1782 34.802 22.9385 35.072 22.6539C35.3438 22.3497 35.5704 21.8513 36.1592 21.4694C35.9198 21.437 35.5832 21.3269 35.5192 21.3414C35.759 21.0697 36.477 20.6554 37.202 20.157C37.9205 19.645 37.8752 19.4385 39.0405 18.9274C38.6586 18.9922 38.4773 18.8949 38.1598 18.9274C38.2878 18.6556 38.7358 18.5259 39.1838 18.0796C39.6318 17.6333 38.8992 16.9728 38.8992 16.9728L35.4859 19.0374L33.8356 20.9792L33.8381 20.9775Z" fill="#C49937"/>
<path fill-rule="evenodd" clip-rule="evenodd" d="M24.5762 19.4368L24.6538 18.8156L25.6313 17.2493L26.654 14.4986V10.7379L26.5764 8.5632L26.7381 7.13899L26.861 6.68629L26.9907 6.51136L27.8252 6.94485L28.9777 8.51115L29.0877 11.5341L27.9677 16.3042L24.7703 19.7931L24.5762 19.4368Z" fill="#DFC068"/>
<path fill-rule="evenodd" clip-rule="evenodd" d="M27.1199 6.33643C27.1199 6.33643 26.6079 6.34965 26.4987 8.47915C26.3894 10.6086 26.3365 11.7282 26.2589 12.7834C26.1812 13.8385 26.0003 14.4789 25.9094 15.1006C25.8186 15.7222 25.7669 16.5696 25.4759 17.0876C25.3479 17.3269 25.0744 18.0779 24.4336 18.6411C23.7151 19.2623 22.6416 19.6962 22.479 19.7286C22.194 19.7931 20.7506 19.9356 20.1618 20.2594C19.9549 20.3695 19.5986 20.4988 19.2039 20.8678C18.4206 21.5731 17.3787 22.8352 16.6277 24.3563C15.4757 26.6283 14.3237 33.0423 14.3237 33.0423L14.5827 32.6089C14.5827 32.6089 14.6151 32.0329 15.1911 31.0229C15.7543 30.0134 15.5926 28.8806 16.3756 26.9453C16.6798 26.2076 17.0616 25.2497 17.5276 24.4339C18.2657 23.107 19.1587 21.9678 20.0586 21.3466C21.5276 20.3371 23.1459 20.1169 23.1459 20.1169L24.8871 18.9649C24.8871 18.9649 25.1914 18.3761 25.5928 17.7028C26.1556 16.7582 26.8728 15.703 27.0294 14.1692C27.2692 11.8972 26.6928 10.4085 26.7252 9.0624C26.7576 7.71627 26.7704 6.72597 27.0427 6.48619C27.3149 6.2464 27.1203 6.33728 27.1203 6.33728L27.1199 6.33643Z" fill="#A88F33"/>
<path fill-rule="evenodd" clip-rule="evenodd" d="M27.12 16.4983C27.12 16.4983 27.888 14.6082 28.2396 12.9318C28.3044 12.5952 28.4337 12.259 28.4661 11.9872C28.6278 10.4013 28.6731 9.74763 28.4661 8.88021C28.3044 8.24021 27.6832 7.66336 27.3593 7.21621C27.0423 6.74987 26.8934 6.57621 26.9583 6.47808C27.0231 6.37995 27.2753 6.21952 27.5211 6.23872C27.7823 6.24632 28.0393 6.30698 28.2763 6.417C28.5134 6.52702 28.7256 6.68411 28.9 6.87872C29.3984 7.45472 29.7931 9.4097 29.7931 9.4097L30.2082 11.9893L31.2633 15.2384L27.1208 16.5009L27.12 16.4983Z" fill="#C99E3D"/>
<path fill-rule="evenodd" clip-rule="evenodd" d="M34.3363 14.531C34.3363 14.531 34.1938 14.5954 33.9352 14.531C33.9463 14.6367 33.9279 14.7433 33.8822 14.8392C33.8365 14.9351 33.7653 15.0166 33.6763 15.0746C33.4045 14.9645 30.8603 15.1846 30.8603 15.1846C30.8603 15.1846 29.6758 14.9773 29.3068 13.411C29.0482 12.3686 29.5009 10.9321 29.352 9.98699C29.1254 8.5952 28.8084 8.32299 28.776 7.88992C28.7436 7.45685 28.7111 7.34635 28.7111 7.07456C28.5686 7.04213 28.4846 6.99691 28.3425 6.99691C28.3101 6.86891 28.3745 6.75712 28.2324 6.53056C28.3101 6.56299 28.8408 6.62784 29.4621 7.21664C29.9741 7.69579 29.9741 7.87029 30.0513 7.96757C30.1482 8.06443 30.9315 8.73557 31.2682 9.40459C31.6048 10.0736 32.2584 12.2069 32.4074 12.5564C32.4526 12.6989 32.5499 12.8414 32.7914 13.1648C33.1668 13.6311 33.7168 14.4021 34.338 14.5301L34.3363 14.531Z" fill="#B58634"/>
<path fill-rule="evenodd" clip-rule="evenodd" d="M30.1426 8C30.5347 8.63339 30.8869 9.29059 31.1973 9.96779C31.5792 10.8284 31.8057 11.5341 32.2849 12.1101C32.0259 11.3596 31.5664 9.88373 31.2946 9.35936C30.9904 8.80469 30.3691 8.20736 30.1426 8.00043V8Z" fill="#A88F33"/>
<path fill-rule="evenodd" clip-rule="evenodd" d="M25.7413 18.6411C25.7413 18.6411 25.0876 18.8028 23.8708 19.4436C23.4693 19.6506 23.0878 19.8251 22.7188 19.9872C21.7601 20.4207 20.7318 20.8213 19.916 21.0423C19.9809 21.12 20.0129 21.152 20.0129 21.152C20.0129 21.152 20.0129 21.4694 20.1878 21.6503C20.0909 21.7476 18.796 22.6278 19.1783 25.5727C19.4369 25.4758 19.7411 25.3461 19.7863 25.3461C19.8644 25.3594 19.8836 25.5727 19.9804 25.5727C20.0773 25.5727 20.3947 25.4447 20.7314 25.0095C20.7186 25.1844 20.5244 26.9449 21.5664 28.1293C21.7605 27.9027 22.2524 27.1518 22.2524 27.1518L22.2652 26.9124C22.2652 26.9124 22.3105 26.0774 22.5827 25.3137C22.8549 24.55 23.3852 23.9868 23.3852 23.9868L26.1547 20.032L25.7404 18.6406L25.7413 18.6411Z" fill="#E6C367"/>
<path fill-rule="evenodd" clip-rule="evenodd" d="M23.1521 24.448C23.0253 24.5376 22.8856 24.6074 22.7378 24.6549C22.6926 24.4932 22.6278 23.9364 23.0096 23.3929C23.4564 22.7388 24.4334 21.891 24.7052 21.2169C24.8801 20.7829 24.8025 19.6958 26.356 18.304C27.9095 16.9122 28.5175 16.4335 28.5175 16.4335L31.0288 15.1714L34.1162 16.3883L32.5823 22.4L31.3915 25.216L26.6555 24.323L23.1517 24.448H23.1521Z" fill="#DCBA5A"/>
<path fill-rule="evenodd" clip-rule="evenodd" d="M24.96 22.8156L25.5492 22.0779V21.5535C25.5492 21.5535 26.2028 21.3786 26.9081 20.66C27.6134 19.9415 28.5909 18.563 29.4519 18.647C30.3129 18.7443 30.397 20.5175 30.4294 21.0163C30.4618 21.5151 30.5719 22.647 30.7464 23.2559C30.9405 23.8643 28.6493 26.1683 28.6493 26.1683L27.0933 27.3527L24.96 22.8156Z" fill="#E9CE77"/>
<path fill-rule="evenodd" clip-rule="evenodd" d="M26.7832 28.9579C26.7832 28.9579 27.2623 28.2069 26.9112 28.0452C27.1181 27.5793 27.5 27.0874 27.5 27.0874C27.5 27.0874 27.7718 26.4145 28.652 25.5859C29.5322 24.7573 30.0762 24.2069 30.2187 23.6506C30.3066 23.288 30.3544 22.9168 30.3612 22.5438C30.4564 22.6215 30.5582 22.6908 30.6654 22.7507C30.8079 22.8156 31.4808 23.3719 31.384 24.4919C31.2871 25.6119 30.872 26.0779 30.872 26.0779C30.872 26.0779 30.4709 26.4789 30.1863 26.6863C29.8817 26.8932 29.772 27.1326 29.2604 27.1522C29.313 27.1104 29.3721 27.0775 29.4354 27.0549C29.4354 27.0549 28.9046 26.9905 28.6196 27.2491C28.3346 27.5076 27.7287 28.3042 27.4245 28.544C27.1203 28.7381 26.7845 28.9583 26.7845 28.9583L26.7832 28.9579Z" fill="#CDAE50"/>
<path fill-rule="evenodd" clip-rule="evenodd" d="M48.3041 16.3686C47.5394 16.0899 46.7357 15.9327 45.9224 15.9027C44.563 15.8575 42.5761 15.9351 40.6279 15.9479C38.5308 15.9607 36.6279 15.2294 33.9873 15.1002C33.5538 14.8412 32.4513 13.7084 29.0098 16.1097C29.2167 16.0969 31.5083 15.5789 32.3041 16.576C33.1066 17.5663 32.8801 19.2491 32.7704 19.6501C32.563 20.5436 31.8898 21.8445 31.6184 22.7571C31.347 23.6698 31.411 24.1493 31.2169 24.7893C31.0228 25.4293 30.5957 25.7472 30.8478 26.4849C31.1845 26.278 31.3598 26.278 31.9222 25.0159C32.4845 23.7538 32.3689 22.854 33.3012 21.786C34.2138 20.7117 35.7332 19.2422 36.3109 18.8732C36.8886 18.5041 41.4757 16.1225 46.2787 18.3945C47.4371 18.2716 48.3045 16.3682 48.3045 16.3682L48.3041 16.3686Z" fill="#D2A83E"/>
<path fill-rule="evenodd" clip-rule="evenodd" d="M30.9447 15.488C30.9399 15.4394 30.9292 15.3915 30.9127 15.3455C30.8678 15.2508 30.8088 15.1635 30.7377 15.0865C30.7377 15.0865 29.5985 14.8796 29.0225 14.944C28.0126 15.0541 27.1 16.3034 26.6729 16.9442C26.2458 17.5851 25.715 18.5749 25.139 19.0865C25.1453 19.0367 25.1338 18.9862 25.1066 18.944C25.1066 18.944 25.139 18.9892 25.0746 19.0541C25.0102 19.1189 25.0097 19.1509 25.0422 19.1821L25.1394 19.2789C25.1714 19.2789 26.0649 18.8774 27.2817 17.7429C28.5762 16.5585 29.5665 15.9509 30.0845 15.7427C30.3607 15.6253 30.6495 15.5399 30.9451 15.488H30.9447Z" fill="#C29637"/>
<path fill-rule="evenodd" clip-rule="evenodd" d="M53.0423 10.6214C53.0423 10.6214 52.835 10.88 52.576 11.165C52 11.7734 51.249 12.4591 50.6082 13.1648C50.0002 13.8381 49.3141 14.3625 48.5435 15.2427C47.773 16.1229 46.8795 17.0999 46.6534 17.385C46.4465 17.67 46.2848 18.1359 46.2848 18.3753C46.1747 18.2976 46.0454 18.2135 46.0454 18.2135C46.0998 18.3152 46.1649 18.4107 46.2395 18.4986C46.4013 18.7251 46.6534 19.0106 46.7831 19.1846C46.9423 19.4062 47.0565 19.6569 47.1193 19.9223C47.197 19.9351 47.6953 20.0324 48.317 19.0097C48.9386 17.987 49.7536 16.8674 49.7536 16.8674L51.0481 14.9449L51.8639 13.3141L52.8879 11.4889L53.0436 10.6214H53.0423Z" fill="#AC8132"/>
<path fill-rule="evenodd" clip-rule="evenodd" d="M54.3694 9.31413C54.3694 9.31413 53.586 9.95413 53.2818 10.3381C52.9776 10.7221 52.2578 11.7299 52.2578 11.7299L52.5168 11.6975L53.8309 10.5327L54.3429 9.62005L54.369 9.31584L54.3694 9.31413Z" fill="#A88F33"/>
<path fill-rule="evenodd" clip-rule="evenodd" d="M54.1294 60.7509C54.1294 60.7509 54.1166 60.2202 54.4144 59.9032C54.7186 59.5857 55.4888 59.1198 56.2397 57.3722C56.9906 55.6245 57.0742 55.2299 57.0742 55.2299C57.0742 55.2299 55.7281 56.3819 54.8982 56.6537C55.0924 56.2522 55.2025 55.9676 55.2997 55.7602C55.1897 55.6634 54.7237 55.5533 54.6785 55.5017C54.9371 55.2427 55.0796 54.6082 55.604 54.1875C56.2772 53.6755 57.5069 52.7957 58.4626 52.0115C59.4184 51.2273 61.2974 49.4033 61.5372 48.8725C61.6797 49.0795 61.7117 49.2088 61.7117 49.2088C61.7117 49.2088 60.767 50.4388 60.2751 51.2218C59.8412 51.895 59.8736 52.2769 59.8736 52.2769L60.767 51.8929C60.767 51.8929 61.0256 52.8508 59.8544 54.3074C60.3664 54.1133 60.5729 54.2298 60.8639 54.0676C60.3848 54.3723 59.7247 54.7866 59.1035 55.9253C58.495 57.0645 57.6665 58.3915 56.2687 59.2196C54.9093 60.0934 54.126 60.7471 54.126 60.7471L54.1294 60.7509Z" fill="#A67A2E"/>
<path fill-rule="evenodd" clip-rule="evenodd" d="M50.6213 17.0423C50.6213 17.0423 50.0905 18.1487 50.0128 19.0097C50 19.2171 49.948 19.3788 49.948 19.6181C49.9352 20.3883 49.9932 21.2493 49.82 21.6504C49.7551 21.4886 49.7227 21.3786 49.6579 21.3141C49.561 21.5859 49.3861 22.4337 49.2436 22.7507C49.1791 22.5438 49.0366 21.8253 49.0499 20.9775C49.0631 20.1297 49.0819 19.9676 49.0819 19.7931C49.0499 20.0516 48.8749 20.4015 48.8101 20.6084C48.7132 20.4339 48.6031 20.2074 48.4734 20.0196C48.3958 20.1476 48.2989 20.3366 48.2149 20.4339C48.2016 20.3563 48.1696 20.1489 48.15 19.8579C48.1372 19.5213 48.1176 19.0878 48.1372 18.9969C48.1692 18.8224 48.4414 18.1363 49.0174 17.5083C49.7035 16.7573 50.4092 15.3143 50.6161 14.8676C50.8231 14.4209 51.7033 12.5636 51.7033 12.5636H52.3766L51.3991 14.79C51.3991 14.79 50.8103 16.0068 50.5061 16.454C50.2019 16.9011 49.561 18.1824 49.276 18.6807C49.4829 18.409 49.6579 18.2665 49.8652 18.0075C50.0658 17.8261 50.6221 17.0432 50.6221 17.0432L50.6213 17.0423Z" fill="#8C6228"/>
<path fill-rule="evenodd" clip-rule="evenodd" d="M54.3823 9.22965C54.2724 9.56814 54.0986 9.88243 53.8703 10.1555C53.4688 10.6347 52.6078 11.2751 52.1876 11.7862C51.8036 12.2846 51.0355 13.6439 51.3846 15.2555C51.5126 14.906 51.7536 14.2135 52.3945 13.4302C53.0353 12.6468 53.7214 11.7474 54.0585 11.0485C54.3947 10.3428 54.4399 9.78645 54.4399 9.78645L54.5679 9.62475L54.4903 9.25568L54.3802 9.22965H54.3823Z" fill="#CBA94C"/>
<path fill-rule="evenodd" clip-rule="evenodd" d="M67.489 52.1617C67.489 52.1617 67.23 51.4564 67.1523 50.8156C67.0747 50.1747 67.2803 50.0476 67.0423 49.3141C66.8998 48.8674 66.6412 48.9301 66.5763 48.8674C66.5115 48.8047 66.4663 48.1297 66.4791 47.7606C66.4919 47.3916 66.4663 46.9129 66.4014 46.7055C66.3046 46.6278 66.2397 46.563 66.0972 46.0843C65.9355 45.6051 65.8578 45.3658 65.7802 45.2237C65.7025 45.0816 65.4755 44.9519 65.4755 44.8094C65.4755 44.5244 65.7345 44.3759 65.7345 44.2974C65.7217 44.1357 65.5276 44.2654 65.4755 44.2197C65.4111 44.1421 65.6377 43.6762 65.5536 43.6113C65.5212 43.5793 65.2946 43.8511 65.2362 43.7734C65.1713 43.6954 65.0937 42.9252 64.9772 42.4141C64.8675 41.9157 64.7506 41.5535 64.7378 41.4046C64.725 41.2621 63.8444 38.7507 63.6311 38.1423C63.4591 37.6282 63.3144 37.1054 63.1976 36.576C63.1327 36.2718 63.0875 35.6501 63.0551 35.715C63.0226 35.7798 63.0423 36.0969 62.9902 36.0841C62.945 36.0708 62.7833 34.9645 62.7317 34.7895C62.6864 34.6146 62.4142 34.0215 62.3477 33.5923C62.2828 33.1584 62.1407 32.0256 62.0434 31.2555C61.9462 30.4853 61.9009 30.1683 61.9009 29.9755C61.9168 29.5038 61.8909 29.0316 61.8233 28.5645C61.6953 27.7487 61.4393 26.7584 61.2149 26.1828C60.7814 25.0953 59.6289 22.3121 59.4229 21.6196C59.4229 21.4447 59.6494 21.542 59.6494 21.542C59.6494 21.542 60.2122 22.953 60.6265 24.0401C61.028 25.1277 61.4098 26.0855 61.5071 26.1828C61.5848 26.2797 62.1932 27.3476 62.465 29.0953C62.7368 30.8429 62.8336 32.4544 62.9958 33.5287C63.0734 34.0407 63.1383 34.5839 63.3 35.1275C63.4745 35.7167 63.7463 36.3251 64.1025 37.257C64.4067 38.0403 64.6333 38.694 64.7562 39.2572C64.8987 39.9757 64.8987 40.5193 64.9827 40.8755C65.0608 41.1797 65.1769 41.7877 65.4491 42.6675C65.7213 43.5473 66.1219 44.6805 66.3937 45.3858C66.9249 46.7968 67.1617 47.9748 67.2419 48.6029C67.3128 49.2501 67.5526 51.4897 67.4877 52.1626L67.489 52.1617Z" fill="#A88F33"/>
<path fill-rule="evenodd" clip-rule="evenodd" d="M54.4145 9.152L54.382 9.22965C54.382 9.22965 54.4789 9.26208 54.4597 9.39178C54.4611 9.56924 54.4502 9.74659 54.4273 9.92256C54.3953 10.1491 54.3304 10.3236 54.3176 10.4661C54.3176 10.7703 54.3628 11.1198 53.9336 11.9872C53.8056 12.2266 53.7267 12.4335 53.6618 12.576C53.5001 12.9254 53.4677 12.9775 53.3252 13.1392C53.5518 13.0112 54.3675 12.4992 54.7814 12.576C54.4968 12.7377 54.0629 13.0551 53.7911 13.4694C53.856 13.4822 54.1278 13.5343 54.5591 13.4694C55.2776 13.3594 56.0802 13.1004 56.7855 13.152C57.556 13.1972 57.2518 12.2266 57.2518 12.2266L56.3626 10.272L54.6799 9.088L54.4145 9.15242V9.152Z" fill="#BE9C44"/>
<path fill-rule="evenodd" clip-rule="evenodd" d="M58.8028 23.7931C58.8028 23.7931 58.0518 23.0421 57.7476 20.4651C57.4434 17.876 57.5083 14.0651 57.5083 14.0651L56.8998 12.5764C56.8998 12.5764 56.7718 11.5861 56.4531 11.2175C56.1344 10.8489 55.5085 10.2272 55.2235 9.92298C54.9384 9.61877 54.615 9.20448 54.4209 9.13962C54.5178 8.97792 54.9517 8.06528 56.6148 8.05248C58.278 8.03968 58.7908 8.96512 58.9645 9.30176C59.1381 9.6384 59.9223 11.0938 60.2133 13.8671C60.4851 16.637 60.4983 16.8444 60.4531 17.8022C60.4207 18.333 60.2458 19.5627 59.9411 20.8764C59.6629 21.99 59.3587 23.2328 58.8019 23.7956L58.8028 23.7931Z" fill="#A17C34"/>
<path fill-rule="evenodd" clip-rule="evenodd" d="M56.4481 26.0002C56.6983 26.0183 56.9483 25.9619 57.1666 25.8381C57.4059 25.8253 58.2733 25.9354 58.9398 25.0876C58.985 25.2813 59.1019 25.8061 58.7973 26.272C58.9594 26.1099 59.1988 26.0454 59.2312 26.0002C59.244 26.2396 59.4706 26.9773 58.5127 28.7701C58.7713 28.4855 59.0755 28.4983 59.3473 28.4659C59.3605 28.8026 59.5414 29.9349 59.0627 30.5438C58.7457 30.9581 58.2277 30.8284 58.2277 30.8284C58.2353 30.7379 58.2353 30.647 58.2277 30.5566C58.2149 30.3817 58.15 30.2071 58.1957 30.0907C57.9454 29.9763 57.7174 29.8184 57.5224 29.6243C56.9592 29.0935 56.2279 28.1877 56.1763 27.5145C56.1114 26.7635 56.7847 26.6018 56.7847 26.6018C56.7283 26.5514 56.6802 26.4923 56.6422 26.4269C56.6098 26.3172 56.5773 26.1423 56.4481 26.0002Z" fill="#8C6228"/>
<path fill-rule="evenodd" clip-rule="evenodd" d="M51.456 17.8577C51.456 17.8577 51.4235 17.8125 51.249 18.0194C51.2815 17.8125 51.3139 17.6179 51.3267 17.4302C51.4093 17.2564 51.5162 17.0952 51.6441 16.9515C51.5468 17.1452 51.482 17.3201 51.482 17.3201C51.482 17.3201 51.7218 16.8734 52.0712 16.6016C52.3106 16.4075 52.6148 16.317 52.7441 16.1357C52.8866 15.9415 52.8541 15.9091 52.8866 15.8767C52.8866 15.8767 53.204 15.6698 53.6896 15.0609C53.754 14.9832 53.8513 14.8992 53.9161 14.8215C54.0258 14.7763 54.2848 14.6598 54.589 14.5041C54.9064 14.3296 55.2622 14.0902 55.4824 13.9921C55.9159 13.798 56.3759 13.8176 56.5892 13.513C56.7509 13.4677 56.9254 12.9822 56.8934 12.5683C57.1328 12.6652 58.3624 13.4289 58.7835 15.0989C59.0877 16.2833 58.5437 18.1086 58.3172 18.9892C58.0906 19.8699 58.0586 20.5231 57.7412 20.9242C57.3397 21.4554 56.0456 22.2042 55.7282 22.5749C55.4564 22.8791 54.641 23.6493 54.673 24.2056C54.7055 24.6199 55.2166 24.8456 55.3271 24.9242C55.4376 25.0027 55.4368 25.0991 55.6441 25.0522C55.8515 25.0052 55.9287 24.9096 56.0132 24.9096C56.11 24.9224 56.11 24.9421 56.1553 24.9421C56.1881 24.9411 56.2207 24.9367 56.2525 24.9288C56.2525 24.9288 56.2201 25.5181 54.8416 25.6968C54.7443 25.7101 54.6474 25.7421 54.5241 25.7617C54.6863 25.684 54.7831 25.684 54.958 25.4447C54.7639 25.4123 54.2071 25.3798 54.0646 25.3346C54.1098 25.257 54.2587 25.0496 54.3816 24.9527C54.4917 24.8559 54.3688 24.8247 54.272 24.8751C54.1052 24.9885 53.9452 25.1116 53.7928 25.2437C53.6311 25.3862 53.4886 25.5804 53.2296 25.7557C53.152 25.4967 53.1648 25.0048 53.4694 24.649C53.3913 24.6618 53.2424 24.8883 53.1003 24.8431C53.0746 24.607 53.0899 24.3683 53.1456 24.1374C53.2232 23.846 53.6439 23.3348 53.6439 23.3348L55.6761 19.7035L56.1096 16.9527L51.456 17.8568V17.8577Z" fill="#92723A"/>
<path fill-rule="evenodd" clip-rule="evenodd" d="M51.3462 18.013C51.3462 18.013 51.2362 18.0907 51.4563 18.2396C51.4239 18.2848 51.3462 18.4465 51.249 18.5566C51.1393 18.6846 51.0224 18.7639 50.9772 18.874C50.8803 19.1006 50.8027 19.2559 50.8027 19.3532C50.8027 19.4505 50.7702 20.0717 50.4985 20.4727C50.4012 20.6153 50.2911 20.8546 50.2134 21.0163C50.0517 21.3009 49.9092 21.5283 49.8768 21.6563C49.8124 21.8829 49.7671 22.5041 49.7671 22.5041C49.7671 22.5041 49.9097 22.3292 49.9613 22.2648C49.8832 22.4265 49.7991 22.601 49.6763 22.7307C49.7539 22.6658 49.9805 22.5041 50.3623 22.1675C50.8931 21.7212 51.7217 20.9702 52.7316 20.3755C52.427 20.4855 52.1684 20.4856 51.9615 20.518C52.1232 20.3563 53.5794 18.6475 54.3431 18.4858C54.3895 18.427 54.4126 18.3531 54.408 18.2784L53.7539 18.214L52.427 18.4986L52.2333 17.4746L51.3462 18.0117V18.013Z" fill="#B18E3E"/>
<path fill-rule="evenodd" clip-rule="evenodd" d="M53.4564 23.8383C53.4564 23.8383 53.2815 24.0128 53.1198 24.4467C52.9953 24.3167 52.8885 24.1708 52.8023 24.0128C52.563 23.6117 52.1943 23.1002 51.3333 23.3916C51.3205 23.1198 51.3009 22.9773 51.3333 22.7831C51.4758 22.7511 51.9093 22.4017 52.3428 21.8901C52.6474 21.5407 52.932 21.1392 53.1262 20.6281C53.2542 20.5308 53.4756 20.3691 53.7662 20.1813C54.1805 19.8967 54.6788 19.5081 54.7565 19.0746C54.5623 19.1522 54.148 19.3463 53.5264 19.3143C53.7662 19.2043 54.1348 19.0878 54.0896 18.6086C54.1869 18.5438 54.2645 18.4986 54.2645 18.4986C54.1915 18.4742 54.1148 18.4632 54.0379 18.4661C54.0247 18.4209 54.0055 18.3565 53.8954 18.3885C53.7854 18.4205 53.7674 18.4209 53.7529 18.4661C53.7077 18.4794 53.5588 18.4661 53.4487 18.5442C53.3386 18.6223 53.0344 18.8804 52.9179 18.9257C52.9632 18.848 53.0276 18.7319 53.0276 18.7319C53.0276 18.7319 52.7106 18.7639 52.484 18.8599C52.0697 19.0025 51.591 19.2614 51.1055 19.5136C51.1507 19.4359 51.1703 19.3856 51.2023 19.3711C51.2343 19.3566 51.3124 19.3391 51.3124 19.3259C51.3124 19.3126 51.2804 19.1979 51.2996 19.1514C51.4447 18.8438 51.616 18.5493 51.8116 18.2711C52.0382 17.9665 52.0834 17.533 52.0834 17.533L53.0737 17.0347L55.8568 16.3947L57.6629 16.5047L57.4363 17.754L56.3697 19.9351L55.457 21.9221L54.4147 23.1394L53.4568 23.8383H53.4564Z" fill="#543E26"/>
<path fill-rule="evenodd" clip-rule="evenodd" d="M57.9676 18.432C57.9676 18.432 56.88 19.7781 56.5758 19.9855C56.7699 19.5712 57.9676 17.1051 58.4011 16.419C58.3042 16.3413 58.1745 16.3413 58.4787 15.139C58.2202 15.747 58.1293 16.0644 57.9159 16.2261C57.7026 16.3878 57.6762 16.3362 57.5319 16.3362C57.5592 16.287 57.5704 16.2304 57.5639 16.1745C57.5639 16.1745 56.6513 16.0644 56.0279 16.0644C55.4046 16.0644 54.1707 16.4011 53.4842 16.6729C52.9406 16.8994 52.6364 16.8994 52.4422 17.0415C52.2481 17.2032 52.138 17.3781 52.0407 17.4234C51.9631 17.4686 51.5945 17.5851 51.51 17.708C51.4323 17.836 51.303 17.9797 51.303 18.0122C51.303 18.0446 51.2706 18.0902 51.3679 18.0574C51.3999 18.0446 51.6397 17.9149 51.9115 17.7532C52.2801 17.5462 52.7268 17.3069 53.0507 17.1644C53.9761 16.7953 54.2675 16.8602 54.6814 16.7825C55.1149 16.7049 55.7365 16.5235 56.1504 16.5235C56.5647 16.5107 57.3481 16.5235 57.5294 16.556C57.4517 16.6208 57.3869 16.6985 57.4193 16.9702C57.4193 17.0479 57.3545 17.132 57.2913 17.3197C57.0976 17.8505 56.7285 18.7307 56.5233 19.1774C56.2387 19.7854 55.9153 20.297 55.7553 20.614C55.5953 20.931 55.2433 21.766 54.8947 22.2127C54.5461 22.6594 54.3639 22.9312 54.2547 23.0285C54.1455 23.1258 53.3613 23.7013 53.4197 23.9087C53.5622 23.8635 54.4621 23.5247 55.1153 22.7891C55.7685 22.0536 55.8987 21.6047 56.4098 21.2032C56.921 20.8017 57.3225 20.1289 57.5618 19.5725C57.7623 19.0545 57.7171 18.8928 57.9693 18.4333L57.9676 18.432Z" fill="#806031"/>
<path fill-rule="evenodd" clip-rule="evenodd" d="M34.5308 28.4791C34.5308 28.4791 34.3883 29.068 34.0644 29.3594C33.7474 29.6444 33.1842 29.8901 33.1198 30.3693C33.0422 30.848 33.683 31.0878 33.683 31.0878C33.683 31.0878 33.3331 31.6638 33.3331 32.0973C33.3331 32.544 33.3203 32.6281 33.3656 33.0551C33.3142 33.0882 33.2706 33.1318 33.2376 33.1831C33.2376 33.1831 33.2696 33.5974 33.587 33.856C33.9044 34.1146 34.1758 34.2703 34.3375 34.2054C34.3622 34.2582 34.3839 34.3123 34.4024 34.3676C34.4024 34.3676 34.6422 33.7591 34.8039 33.2284C34.9656 32.6848 35.1081 32.762 35.1725 32.0307C35.2369 31.2994 35.9405 30.0437 35.9405 30.0437L36.4205 28.9707L35.6376 28.3622L34.5308 28.4787V28.4791Z" fill="#B6903C"/>
<path fill-rule="evenodd" clip-rule="evenodd" d="M35.9874 29.5339C35.8259 29.6996 35.6769 29.877 35.5415 30.0646C35.3346 30.3497 35.1728 30.6082 34.8686 30.7187C34.5644 30.8292 34.3703 30.8284 34.3895 31.133C34.4087 31.4377 34.6937 31.5665 34.8554 31.7218C35.0303 31.8835 35.1728 32.1553 35.0952 32.4599C35.192 32.4147 35.367 32.3627 35.5287 32.0132C35.6904 31.6638 36.8215 29.5343 36.8215 29.5343H35.9874V29.5339Z" fill="#685026"/>
<path fill-rule="evenodd" clip-rule="evenodd" d="M40.4482 24.6212C40.4482 24.6212 40.545 24.3627 40.4482 24.1749C40.3509 23.9808 39.7621 23.916 39.4707 23.6958C39.1665 23.4692 38.7974 23.3118 38.4932 23.4112C38.5384 23.3011 38.7197 23.0613 38.5708 23.0097C38.4283 22.9645 37.898 23.2038 37.7555 23.3139C37.613 23.424 37.2891 23.5533 37.2247 23.6314C37.1603 23.7094 37.0498 23.8579 36.9849 23.7931C36.9201 23.7478 36.8881 23.6314 36.778 23.6958C36.6679 23.7602 36.138 24.1941 36.0403 24.4467C35.9426 24.6993 35.7228 25.2625 35.0628 25.9029C34.4027 26.5434 34.1177 26.9581 34.3118 27.1974C34.506 27.4368 34.5969 27.2623 34.6293 27.4692C34.6542 27.6724 34.6432 27.8783 34.5969 28.0777C34.5192 28.4143 34.3899 28.7313 34.5644 28.7962C35.0111 28.9387 35.4451 28.6682 35.5419 28.7509C35.7361 28.9254 35.4318 29.5535 35.8914 29.6764C36.3577 29.8044 36.8172 29.5663 36.8172 29.5663L38.5128 28.6537L40.1439 27.7931L40.9785 26.1423L40.5309 24.7637L40.4456 24.6212H40.4482Z" fill="#D4B968"/>
<path fill-rule="evenodd" clip-rule="evenodd" d="M38.8482 28.5632C38.8482 28.5632 38.5632 28.1297 38.9131 27.7474C39.2629 27.3651 39.7609 27.2038 39.955 26.9645C39.918 26.9189 39.8685 26.8852 39.8125 26.8676C39.9413 26.637 40.1379 26.4516 40.3757 26.3364C40.2788 26.2396 40.1491 26.1619 40.007 26.1619C39.6896 26.1619 39.495 26.3561 39.2041 26.3561C38.9195 26.3561 38.887 26.2135 38.887 26.2135C38.887 26.2135 39.3662 26.1683 39.3205 25.9546C39.2753 25.728 39.1925 25.728 39.1925 25.728C39.1925 25.728 40.118 25.344 40.2797 25.1392C40.4414 24.9344 40.4222 24.6925 40.4546 24.5956C40.5643 24.5956 41.2051 24.259 41.4641 24.4015C41.7231 24.544 41.5418 24.9323 41.5418 24.9323C41.5418 24.9323 42.3255 24.343 42.7249 23.7653C43.0743 23.7978 43.2369 23.526 43.4929 23.526C43.8103 23.526 44.3087 23.9595 44.4055 24.8849C44.4704 25.4157 44.5673 25.7199 44.4704 26.6586C44.4252 27.1893 44.438 28.3226 44.5984 28.8849C44.708 29.3316 44.967 29.2864 44.967 29.2864C44.9273 29.4225 44.8485 29.544 44.7405 29.6358C44.5655 29.7975 44.5463 30.2251 44.5655 30.3868C44.5913 30.505 44.6238 30.6217 44.6628 30.7362C44.6628 30.7362 44.4559 30.9756 44.4038 31.1377C44.3586 31.2994 44.1453 31.4095 43.9895 31.4095C43.8338 31.4095 43.9119 31.3963 43.705 31.4095C43.498 31.4227 43.4332 31.4547 43.3035 31.4095C43.1738 31.3643 43.0769 31.3122 43.129 30.8975C43.1742 30.4832 41.5302 29.5189 41.5302 29.5189L38.8422 28.5611L38.8482 28.5632Z" fill="#CCA849"/>
<path fill-rule="evenodd" clip-rule="evenodd" d="M35.7604 32.6537C35.7604 32.6537 36.3492 33.437 38.7701 33.437C39.9221 33.437 40.3236 33.3269 40.5621 33.2621C40.8211 33.1972 41.7918 32.8158 42.7693 31.6634C43.6495 30.6214 43.4554 30.1943 43.4554 30.1943L42.9434 30.1167L41.2794 30.3433L36.3556 32.4403L35.7583 32.6537H35.7604Z" fill="#585136"/>
<path fill-rule="evenodd" clip-rule="evenodd" d="M37.5663 32.8478C37.5663 32.8478 35.4692 33.3141 35.4692 31.9872C35.4692 30.6927 36.7637 29.3333 37.0876 29.094C37.4242 28.8542 38.2268 28.582 38.2268 28.582H40.1621L40.5308 29.5595L40.3691 31.6693L37.5663 32.8474V32.8478Z" fill="#252211"/>
<path fill-rule="evenodd" clip-rule="evenodd" d="M39.5014 28.9775C39.5014 28.9775 39.1004 28.6084 38.1877 29.1055C37.2751 29.6026 36.537 30.6415 36.4917 31.5849C36.4465 32.4194 37.1778 33.0411 38.317 33.0735C39.1648 33.1055 39.6764 33.0086 39.9354 32.9455C39.8705 32.8678 39.5339 32.4471 39.5339 32.4471L39.5019 28.9779L39.5014 28.9775Z" fill="#C3B378"/>
<path fill-rule="evenodd" clip-rule="evenodd" d="M39.1068 29.184C39.1068 29.184 39.01 29.1064 38.7228 29.2617C38.4835 29.3897 38.134 29.728 37.8622 29.9674C37.6873 30.1099 37.5772 30.1743 37.4782 30.2844C37.0767 30.7635 36.7401 31.5469 36.9347 31.9351C37.1292 32.3234 37.7696 32.7701 39.4008 32.4659L39.1021 29.1844L39.1068 29.184Z" fill="#E6D89C"/>
<path fill-rule="evenodd" clip-rule="evenodd" d="M38.5761 29.987C38.5761 29.987 38.3171 30.3885 38.3171 31.0293C38.3171 31.683 38.6862 32.7249 40.0456 32.8026C41.0875 32.8674 41.7864 31.3011 42.5437 30.6927C43.1197 30.2268 43.4692 30.2135 43.4692 30.2135C43.4692 30.2135 42.8804 29.5735 41.3077 28.7445C39.7542 27.9095 38.0129 27.7995 37.0679 29.0812C37.5146 29.0487 38.958 28.6797 38.958 28.6797L39.6637 28.9062L38.5761 29.9874V29.987Z" fill="#252211"/>
<path fill-rule="evenodd" clip-rule="evenodd" d="M40.6084 30.8348C40.5632 30.7379 40.5308 30.6082 40.7185 30.5762C40.9062 30.5442 40.9903 30.563 41.0551 30.7042C41.12 30.8454 41.1831 30.9632 41.0871 31.0216C40.9903 31.0733 40.7377 31.0216 40.608 30.8339L40.6084 30.8348ZM40.3042 29.9221C40.3042 29.9221 40.2393 29.9674 40.2718 29.8769C40.2846 29.7672 40.3691 29.5727 40.576 29.6183C40.7829 29.664 40.7381 29.8901 40.704 29.955C40.6699 30.0198 40.4971 30.1295 40.3673 30.083C40.3509 30.0788 40.3357 30.0708 40.3229 30.0596C40.3102 30.0484 40.3002 30.0343 40.2939 30.0186C40.2876 30.0028 40.2851 29.9858 40.2866 29.9689C40.2881 29.952 40.2935 29.9357 40.3025 29.9213L40.3042 29.9221Z" fill="#6F674D"/>
<path fill-rule="evenodd" clip-rule="evenodd" d="M22.7842 30.336C22.7842 30.336 23.2962 30.72 23.891 30.7051C24.4798 30.6918 25.2371 30.0838 25.5865 29.6952C25.7935 29.4686 25.9705 29.2292 26.1625 29.0415C26.3247 28.8798 26.4343 28.8021 26.512 28.6921C26.622 28.5641 26.7385 28.3234 26.797 28.2453C26.6545 28.3554 26.4475 28.55 26.2338 28.6793C26.0268 28.8073 25.5801 29.0479 25.3988 29.1128C25.2243 29.1776 23.4118 30.1368 23.4118 30.1368L22.7842 30.336Z" fill="#AC924C"/>
<path fill-rule="evenodd" clip-rule="evenodd" d="M23.5664 25.5535C23.5664 25.5535 23.851 25.3594 24.4014 25.2361C24.9322 25.1081 26.0001 25.0095 26.0001 25.0095L26.8803 25.3935L27.2298 26.7204L26.5898 28.0994L25.7744 28.6114L24.8485 27.1228L23.5685 25.5561L23.5664 25.5535Z" fill="#9F8E57"/>
<path fill-rule="evenodd" clip-rule="evenodd" d="M22.4145 26.7379L22.1099 26.9653C22.1099 26.9653 22.1879 26.8228 22.2524 26.3893C22.3168 25.9558 22.6539 24.9007 23.1458 24.2923C23.6378 23.6838 23.625 23.7163 23.625 23.7163C23.5797 23.708 23.5332 23.7095 23.4885 23.7206C23.4439 23.7317 23.4021 23.7522 23.366 23.7807C23.4308 23.6373 23.8451 23.1253 24.2594 22.8693C24.6737 22.6133 24.8354 22.5327 25.2689 22.7413C25.7024 22.95 25.8125 23.0584 26.1299 23.0456C26.4474 23.0328 26.7187 22.6961 26.7187 22.6961C26.7187 22.6961 26.7836 22.903 26.5442 23.3822C26.3049 23.8613 25.3598 24.8384 25.3598 24.8384L23.392 26.1845L22.4145 26.7392V26.7379Z" fill="#EAC970"/>
<path fill-rule="evenodd" clip-rule="evenodd" d="M23.8704 25.3918C23.8704 25.3918 25.2946 25.5859 25.7281 25.1849C25.7409 25.2301 25.7929 25.2301 25.7929 25.2625C25.7894 25.2869 25.778 25.3096 25.7605 25.3269C25.8076 25.3194 25.8553 25.3151 25.903 25.3141C25.96 25.3311 26.0186 25.342 26.0779 25.3466C26.1257 25.3455 26.1733 25.3411 26.2204 25.3333C26.2159 25.3655 26.205 25.3964 26.1883 25.4243C26.1716 25.4522 26.1494 25.4764 26.1232 25.4955C26.188 25.4955 26.2512 25.5083 26.2512 25.5599C26.2512 25.6115 26.264 25.7673 26.1863 25.7997C26.122 25.8175 26.0535 25.8128 25.9922 25.7865C25.9973 25.909 26.0306 26.0287 26.0895 26.1363C26.2175 26.3757 26.4905 26.6483 26.8575 26.5698C26.8575 26.5698 27.0512 27.0357 26.2358 28.0712C26.1261 28.2138 26.0092 28.4079 25.8672 28.5696C25.811 28.692 25.7681 28.82 25.7392 28.9515C25.7392 28.9515 27.1181 28.4207 27.5128 27.2102C27.9143 25.9934 27.992 24.7962 27.9143 23.6766C27.9011 23.3591 27.8495 23.133 27.7718 22.9709C27.5777 22.5694 27.0337 22.6342 26.8139 22.8608C26.4965 23.1782 25.9657 23.9676 25.228 24.5111C24.4771 25.0547 24.4451 25.1511 23.8687 25.3918H23.8704Z" fill="#D7BC6B"/>
<path fill-rule="evenodd" clip-rule="evenodd" d="M22.162 27.1394C22.162 27.1394 21.8902 27.3011 21.7477 27.9074C21.6052 28.5286 21.8757 29.286 22.0323 29.5253C22.1889 29.7647 22.5443 30.4188 23.2815 30.4512C23.464 30.4502 23.6445 30.4128 23.8123 30.3411C24.0697 30.2231 24.3111 30.073 24.5308 29.8944C24.8483 29.655 25.1068 29.4481 25.0744 29.4285C24.9968 29.396 23.1198 27.8426 23.1198 27.8426L22.4141 27.0549L22.1615 27.1403L22.162 27.1394Z" fill="#585136"/>
<path fill-rule="evenodd" clip-rule="evenodd" d="M23.9358 29.7152C23.9358 29.7152 24.3177 29.6832 24.5442 29.5407C24.7708 29.3982 23.2173 27.8579 23.2173 27.8579L23.3274 29.5219L23.9358 29.7152Z" fill="#453A25"/>
<path fill-rule="evenodd" clip-rule="evenodd" d="M22.285 27.0225C22.285 27.0225 22.0909 27.3916 22.0909 27.4889C22.0585 27.8059 22.1557 28.8026 22.2334 29.1196C22.311 29.4562 22.7317 29.9674 23.2757 29.9674C23.6119 29.9674 24.0783 29.7604 24.0783 29.7088C24.0783 29.6439 23.5991 29.5808 23.4699 29.3397C23.3922 29.2117 23.3598 28.8934 23.3419 28.5717C23.3291 28.3648 23.3291 28.1382 23.4067 28.0597C23.5817 27.8656 23.6137 27.3088 23.6137 27.3088L24.2349 26.1547H23.4178L22.4403 26.7631L22.285 27.0225Z" fill="#84754B"/>
<path fill-rule="evenodd" clip-rule="evenodd" d="M22.0454 27.3788C22.0454 27.3788 22.6854 26.531 23.2623 26.3364C23.8391 26.1419 24.0973 26.2588 24.0973 26.2588L23.7606 27.1198L23.2815 27.6506L23.3139 27.9223C23.3139 27.9223 23.2358 28.6409 23.715 29.1392C24.1941 29.6376 24.5499 29.6183 24.7573 29.6183C24.9647 29.6183 25.5599 29.4434 25.8641 28.7249C26.1359 28.0521 26.3624 27.1889 25.8188 26.3236C25.2876 25.4626 24.3494 25.4293 24.1681 25.4293C23.9867 25.4293 22.563 25.5006 22.0454 27.3775V27.3788Z" fill="#252211"/>
<path fill-rule="evenodd" clip-rule="evenodd" d="M38.4788 30.2588C38.2395 30.1487 38.466 29.4758 38.7054 29.2685C38.9447 29.0611 39.2489 28.8222 39.7801 28.7893C39.9739 28.7765 40.1616 28.8994 40.1296 29.0291C40.0844 29.2685 39.7477 29.6051 39.4435 29.8445C39.0228 30.1747 38.7506 30.3817 38.4788 30.2588Z" fill="#F7F7E7"/>
<path fill-rule="evenodd" clip-rule="evenodd" d="M25.5339 26.589C25.7089 26.5762 25.9354 26.717 25.9806 26.9064C26.0259 27.1134 25.8706 27.5277 25.5339 27.5277C25.2621 27.5277 25.1196 27.191 25.1196 27.0942C25.1227 27.0145 25.1449 26.9368 25.1845 26.8676C25.1973 26.848 25.2297 26.6214 25.5339 26.589Z" fill="#F8F6DE"/>
<path fill-rule="evenodd" clip-rule="evenodd" d="M23.0097 26.7379C23.0097 26.7379 22.5629 26.9449 22.356 27.3779C22.2081 27.6977 22.1634 28.0556 22.228 28.4019C22.2604 28.5636 22.4221 28.9647 22.5322 29.1072C22.6423 29.2497 22.7912 29.347 22.9013 29.3338C23.0114 29.3205 23.2375 29.0296 23.2375 28.855C23.2375 28.6805 23.2507 27.9424 23.4641 27.5409C23.6518 27.1398 23.0109 26.7384 23.0109 26.7384L23.0097 26.7379Z" fill="#D4C38B"/>
<path fill-rule="evenodd" clip-rule="evenodd" d="M23.0745 26.7055C22.9968 26.7507 22.8675 26.8156 22.8995 26.8996C22.932 26.9773 23.2037 27.0276 23.301 27.2171C23.4111 27.4112 23.4111 27.6181 23.3787 27.7154C23.4632 27.6753 23.5399 27.6203 23.6052 27.5533C23.7477 27.3916 23.9222 27.1718 24.0711 27.1718C24.1684 27.1718 24.2653 27.2171 24.3562 27.2171C24.4987 27.2171 24.6407 27.1718 24.6604 27.0229C24.6924 26.8288 24.3886 26.6539 24.2137 26.6863C24.2461 26.5583 24.2913 26.3693 24.1488 26.2396C24.0063 26.1099 23.56 26.3369 23.4627 26.4017C23.3654 26.4666 23.0745 26.7059 23.0745 26.7059V26.7055Z" fill="#E2D59D"/>
<path fill-rule="evenodd" clip-rule="evenodd" d="M33.3594 40.3042L34.3173 40.0213L34.5891 40.2155C34.5891 40.2155 34.7828 40.6298 35.0874 40.6814C34.9901 40.8883 34.7376 41.0654 34.7508 41.2122C34.764 41.3589 34.8933 41.4711 34.8933 41.4711C34.8933 41.4711 34.0323 42.8949 35.7283 44.3298C35.3268 44.4915 34.8156 44.7138 34.5439 44.8418C34.7376 44.887 35.1518 44.9698 35.3268 45.1268C35.5017 45.2838 35.5017 45.3338 35.6634 45.431C35.8251 45.5283 35.922 45.6576 35.89 45.7156C35.7799 45.6508 35.4108 45.4571 35.3464 45.638C35.282 45.8189 33.7477 45.7481 33.7477 45.7481L31.1587 46.2464C31.1587 46.2464 31.2555 45.9874 30.9837 45.7481C30.6667 45.4635 30.2785 45.7609 29.8642 45.4438C29.3206 45.0295 29.301 44.5504 29.1265 44.3695C29.301 44.2594 29.6572 44.0977 30.505 43.9855C30.4726 43.9206 30.3625 43.7265 30.4274 43.552C30.505 43.3254 30.8284 43.1829 30.7316 42.912C30.8741 42.8796 30.9385 42.8796 31.2948 42.4329C31.6314 41.9861 31.8384 41.8893 32.0973 41.8569C32.3563 41.8244 32.5116 41.8569 32.9908 41.4101C33.327 41.0931 33.2173 40.8213 33.2173 40.8213C33.2173 40.8213 33.4371 40.7501 33.3599 40.3034L33.3594 40.3042Z" fill="#CBAC5A"/>
<path fill-rule="evenodd" clip-rule="evenodd" d="M30.5308 40.448C30.5436 40.3831 30.5956 40.3507 30.9451 40.3831C31.2945 40.4156 33.5081 40.1762 34.1101 40.1438C34.7185 40.0986 36.8608 40.1306 37.9032 40.3507C38.9455 40.5709 40.0002 40.8299 40.5114 40.9591C41.0234 41.1016 41.1847 41.1528 41.165 41.2177C41.1522 41.2826 41.037 41.3457 40.9709 41.3278C40.9065 41.315 39.2105 40.797 38.6865 40.6878C38.1626 40.5786 36.3497 40.2863 35.3585 40.3038C34.4331 40.317 34.064 40.291 33.2811 40.3814C32.4977 40.4787 31.2032 40.608 30.815 40.5564C30.431 40.5111 30.5103 40.5111 30.5299 40.4463L30.5308 40.448Z" fill="#D6BC6F"/>
<path fill-rule="evenodd" clip-rule="evenodd" d="M35.7409 45.5211C35.7409 45.5211 37.0679 46.2396 37.547 47.1198C37.8964 47.7734 37.3401 48.0973 37.3401 48.0973C37.3401 48.0973 38.091 48.0973 37.9937 48.5116C37.9485 48.7701 36.6992 49.469 35.8642 49.8381C35.0164 50.2071 35.0489 50.1879 34.6346 50.2524C34.2331 50.3172 33.1327 50.1244 32.9061 50.4465C32.6796 50.7686 32.7781 51.1006 32.8413 51.1522C32.9061 51.1974 33.4305 51.2623 33.4305 51.2623C33.4305 51.2623 33.3204 51.5665 32.2333 51.5989C31.1461 51.6314 30.8739 51.7086 30.8091 51.8255C30.7442 51.9351 31.016 51.8707 31.5148 51.9535C32.0131 52.0311 32.712 52.0815 32.712 52.0815C32.712 52.0815 32.4855 52.2756 31.8967 52.4309C31.2234 52.6054 30.1682 52.7676 29.8512 52.9617C30.0129 53.0718 30.2527 53.2335 30.3632 53.2463C30.0914 53.3111 29.7091 53.4536 29.6447 53.5053C29.7416 53.5701 29.8713 53.6478 29.8713 53.6478C29.8713 53.6478 29.3273 54.3014 29.0103 54.4636C28.6932 54.6257 26.868 55.4731 26.2399 55.3114C24.6736 54.8971 24.4795 53.1819 24.0976 53.0526C23.5216 52.8585 23.2498 53.2463 22.7383 52.9745C22.9648 52.8128 23.0881 52.7159 23.3275 52.6059C23.0685 52.4779 21.7288 51.6284 21.7288 51.6284C21.5887 51.323 21.4332 51.025 21.2628 50.7354C21.0039 50.2886 20.6228 49.693 20.337 49.1686C19.7157 48.0166 19.6833 47.4859 19.1201 46.8322C19.2174 46.7042 19.5536 46.7221 19.5536 46.7221L24.2725 48.2756L32.6399 48.518L34.8159 45.4114L35.7413 45.5215L35.7409 45.5211Z" fill="#DFC677"/>
<path fill-rule="evenodd" clip-rule="evenodd" d="M23.3462 50.2588C23.3967 50.315 23.4555 50.363 23.5207 50.4013C23.6828 50.5114 23.9222 50.6411 24.0839 50.8348C24.1488 50.7379 24.3105 50.563 24.5959 50.8348C24.8813 51.1066 25.2359 50.9128 25.4565 50.9773C25.683 51.0554 25.6958 51.0874 25.6958 51.0874C25.6958 51.0874 25.8238 50.9773 26.1101 50.8608C26.2851 50.7959 26.492 50.7507 26.7186 50.6863C26.9255 50.6411 27.1521 50.5762 27.3078 50.5762C27.4503 50.6731 27.9614 51.2162 30.0133 50.4145C31.9486 49.6636 32.3949 49.5795 32.7188 49.6956C32.7512 49.6179 32.7836 49.469 33.282 49.4886C33.282 49.2817 32.8677 48.576 32.8677 48.576L30.5829 47.7931H29.3332L25.5858 48.4791L23.5092 49.664L23.3475 50.2613L23.3462 50.2588Z" fill="#C4A859"/>
<path fill-rule="evenodd" clip-rule="evenodd" d="M22.0972 48.9451C22.0972 48.9451 22.1424 49.2945 22.6604 49.6636C23.1724 50.0322 23.3332 50.2524 23.3332 50.2524C23.3332 50.2524 23.4305 50.1244 23.5082 49.9938C23.5858 49.8513 23.6507 49.6896 23.7799 49.6444C24.0389 49.5343 24.6277 49.7412 24.7574 49.7088C24.8675 49.6768 24.8351 49.4502 24.9516 49.4502C25.2234 49.437 25.3979 49.6247 25.4951 49.6247C25.5924 49.6247 25.8314 49.6119 25.8638 49.5603C25.8962 49.5087 25.909 48.9711 26.2781 48.7121C26.6796 48.4275 27.1715 48.5504 27.3021 48.6152C27.3021 48.7121 27.3149 48.9519 27.5739 48.9647C27.8328 48.9775 27.8584 48.9323 28.0859 49.0099C28.3133 49.0876 28.5842 48.9971 28.7071 49.3785C28.8172 49.3465 29.0762 49.3141 29.0113 48.9451C29.1393 48.8482 29.2511 48.7833 29.5233 48.4015C29.5882 48.3046 29.6978 48.1945 29.7823 48.052C30.0088 48.052 30.2806 48.0068 30.6429 48.3238C30.5328 48.4015 30.4679 48.4518 30.4359 48.5308C30.5307 48.6246 30.6172 48.7263 30.6945 48.835C30.7918 48.963 30.8566 49.12 30.9795 49.1524C31.2513 49.2301 31.698 49.12 32.1964 49.1524C32.6755 49.1848 33.0766 49.3593 33.2515 49.4694C33.3164 49.4374 33.3164 49.4242 33.4781 49.4566C33.6398 49.4891 33.7627 49.5018 33.5882 49.2949C33.685 49.3401 33.7951 49.4374 33.8924 49.3401C33.9896 49.2429 34.0669 49.1008 34.3387 49.0684C34.6104 49.0359 34.7077 49.0812 34.8178 48.7966C34.9603 48.4471 34.4684 48.4471 34.4684 48.4471C34.4684 48.4471 34.6949 48.2398 34.9475 47.968C35.2517 47.6834 35.6012 47.3143 35.6852 46.8612C35.8277 46.0262 35.0124 45.9166 35.0124 45.9166L31.0576 47.1334L26.2226 46.8936L22.0997 48.9455L22.0972 48.9451Z" fill="#927D49"/>
<path fill-rule="evenodd" clip-rule="evenodd" d="M18.5437 37.5211C18.5437 37.5211 18.4157 37.6828 18.3368 38.0646C18.2578 38.4465 18.2915 38.4013 18.2267 38.6731C18.1618 38.9448 17.3653 41.6503 17.6639 42.563C17.9626 43.4756 18.4797 43.8123 18.8031 44.55C18.868 44.7117 18.9311 44.809 18.9648 44.9515C19.0749 45.4302 18.9781 45.7992 19.1073 46.2784C19.1526 46.4401 19.2695 46.6278 19.444 46.822C19.828 47.223 20.4539 47.6049 20.724 47.8767C21.1054 48.2782 21.6494 49.094 22.3419 49.1712C22.711 49.2164 23.2353 49.0611 23.6688 48.8026C24.0528 48.5628 24.2901 48.2266 24.6928 48.0346C24.9774 47.892 25.2816 47.8404 25.5534 47.7756C26.1166 47.6655 26.6282 47.6476 26.9324 47.7107C27.3983 47.808 28.4987 48.1446 29.1084 48.1446C29.5848 48.137 30.0586 48.0718 30.5194 47.9505C31.4448 47.6787 32.5644 47.2124 33.3025 47.0054C33.736 46.8774 34.0855 46.8437 34.4417 46.7661C35.0502 46.6236 35.5613 46.4294 35.8527 46.0604C35.6586 45.8338 35.4192 45.4844 34.1243 45.4972C32.6553 45.5296 30.9593 46.345 30.1243 46.4747C29.2893 46.6044 28.9271 46.714 27.9948 46.3774C27.0809 46.0373 27.0506 45.8125 27.0506 45.8125C27.0506 45.8125 26.091 45.1413 25.6895 43.4304C25.288 41.7195 25.6895 40.4727 26.7319 39.2879C27.0037 38.9837 26.9388 38.7119 26.9388 38.7119C26.9388 38.7119 27.6249 37.7864 27.4371 36.9199C27.2302 36.0589 25.9033 36.2338 25.9033 36.2338L18.5441 37.5211H18.5437Z" fill="#6E6342"/>
<path fill-rule="evenodd" clip-rule="evenodd" d="M19.6503 40.4015C19.5933 40.5088 19.5664 40.6296 19.5727 40.7509C19.5855 40.9254 19.6375 41.152 20.1615 41.6636C20.6082 42.1099 20.5109 42.6082 20.5109 42.6082C20.5109 42.6082 20.7358 42.6534 21.3459 42.368C21.825 42.1414 21.9859 42.5429 21.9859 42.5429C22.1254 42.4698 22.2765 42.4216 22.4326 42.4004C22.574 42.3874 22.7109 42.3437 22.8337 42.2724C22.8337 42.2724 23.3969 42.8484 23.8888 43.1202C24.3355 43.36 24.5945 43.5217 24.8147 43.36C25.0216 43.2175 25.0216 42.9261 25.0084 42.7968C24.9571 42.6775 24.8921 42.5645 24.8147 42.4602C24.6722 42.2532 24.4456 42.0134 24.4307 41.8202C24.3983 41.3739 24.7673 40.8427 24.6893 40.7134C24.6112 40.5841 24.3206 40.5517 23.6021 40.8107C22.858 41.0564 19.6473 40.4028 19.6473 40.4028L19.6503 40.4015Z" fill="#39331F"/>
<path fill-rule="evenodd" clip-rule="evenodd" d="M21.346 43.2947C21.346 43.2947 20.9773 42.9453 21.1066 41.2493C21.2631 41.247 21.4194 41.2622 21.5725 41.2945C21.5725 41.2945 21.7735 42.6086 21.346 43.2947Z" fill="#292311"/>
<path fill-rule="evenodd" clip-rule="evenodd" d="M18.7187 36.2266C18.7702 36.1885 18.8179 36.1456 18.8613 36.0986C18.7333 36.3379 18.1423 37.2958 18.6215 38.8041C19.1006 40.3055 20.3042 41.4251 21.7865 41.4771C23.2687 41.5292 24.0478 40.8038 24.9387 39.7167C25.2881 39.2832 25.6896 38.7392 26.0455 38.3706C26.5762 37.7941 26.9905 37.6324 26.9905 37.0761C26.9905 35.9369 25.8253 35.4253 24.1101 34.9141C22.3949 34.403 20.8478 34.4661 20.0453 34.816C19.2623 35.1974 18.9257 35.5989 18.7183 36.227L18.7187 36.2266Z" fill="#252211"/>
<path fill-rule="evenodd" clip-rule="evenodd" d="M24.2264 43.8059L24.3544 43.741C24.3544 43.741 24.3864 43.229 24.5937 43.2427C24.8007 43.2751 24.898 43.5473 24.8783 43.6442C24.8655 43.741 24.8139 43.9031 24.6065 43.8835C24.3347 43.8899 24.2251 43.8059 24.2251 43.8059H24.2264Z" fill="#3F3824"/>
<path fill-rule="evenodd" clip-rule="evenodd" d="M23.6504 41.6311C23.6504 41.6311 23.7784 41.5859 23.935 41.7412C24.063 41.7412 24.6211 41.6764 24.796 41.7865C24.9709 41.8965 25.0225 41.9934 25.0225 41.9934C25.0225 41.9934 24.3689 42.1359 24.0126 41.9934C23.6504 41.8705 23.6504 41.6311 23.6504 41.6311Z" fill="#2D2815"/>
<path fill-rule="evenodd" clip-rule="evenodd" d="M26.5309 41.728C26.5309 41.6956 26.1815 41.4562 25.8124 41.3781C25.7476 41.3653 25.7343 41.4106 25.6844 41.4106C25.652 41.3978 25.6392 41.3005 25.6392 41.3005L25.4293 41.411C25.4293 41.411 25.3968 41.4562 25.5069 41.539C25.6038 41.6166 25.7659 41.6815 25.8111 41.8108C25.8564 41.9401 25.8564 41.9853 25.876 42.0049C25.8888 42.0177 26.1153 42.0049 26.2254 41.9401C26.3355 41.8752 26.5429 41.7694 26.5296 41.7267L26.5309 41.728Z" fill="#82764F"/>
<path fill-rule="evenodd" clip-rule="evenodd" d="M23.2622 43.0421C23.2622 43.0421 23.3266 42.5958 23.7606 42.5762C24.2068 42.5438 24.2913 42.9773 24.2913 42.9773L24.0323 43.2363C24.0323 43.2299 23.8382 42.9581 23.2643 43.0421H23.2622Z" fill="#2D2816"/>
<path fill-rule="evenodd" clip-rule="evenodd" d="M26.0777 41.1196C26.0777 41.1196 25.8379 41.3786 25.3075 41.4562C25.2623 41.3914 25.165 41.2621 25.3075 41.0552C25.45 40.8482 25.6118 40.7834 25.7735 40.8478C25.8448 40.8594 25.9114 40.8911 25.9653 40.9392C26.0192 40.9874 26.0582 41.05 26.0777 41.1196Z" fill="#574F35"/>
<path fill-rule="evenodd" clip-rule="evenodd" d="M27.055 41.437C27.0682 41.3722 27.023 41.3594 27.055 41.3269C27.087 41.2945 27.2623 41.2301 27.2947 41.2621C27.3075 41.2753 27.2947 41.3269 27.2947 41.3901C27.2947 41.4532 27.2948 41.5181 27.2623 41.5646C27.2171 41.6294 27.0878 41.6619 27.023 41.6427C26.9581 41.6235 26.9453 41.5326 26.9453 41.5147C26.9773 41.5019 27.055 41.4694 27.055 41.437ZM28.16 40.7381C28.16 40.7057 28.2701 40.6409 28.335 40.6409C28.4318 40.6409 28.4318 40.7185 28.445 40.7381C28.477 40.7509 28.477 40.7249 28.5095 40.7834C28.5419 40.8418 28.5876 40.9451 28.5547 41.0099C28.5218 41.0748 28.393 41.1196 28.361 41.1068C28.3158 41.0744 28.1733 40.7834 28.16 40.7381Z" fill="#82764F"/>
<path fill-rule="evenodd" clip-rule="evenodd" d="M25.9355 41.5859C25.9355 41.5859 26.0784 41.618 26.2729 41.7805C26.2079 41.8258 26.1104 41.8775 26.1104 41.8775C26.1104 41.8775 26.0976 41.7283 25.9355 41.5855V41.5859Z" fill="#6E6342"/>
<path fill-rule="evenodd" clip-rule="evenodd" d="M25.6184 40.1617C25.586 40.1297 25.7153 40.0521 25.7929 40.0649C25.8706 40.0777 25.903 40.1297 25.987 40.1425C26.0711 40.1553 26.0843 40.1101 26.115 40.0777C26.1458 40.0452 26.2575 40.0649 26.2767 40.0777C26.2887 40.0919 26.2995 40.107 26.3092 40.1229C26.3105 40.0983 26.3169 40.0742 26.328 40.0522C26.3391 40.0301 26.3546 40.0106 26.3736 39.9949C26.3984 39.9766 26.4271 39.9642 26.4574 39.9586C26.4876 39.953 26.5188 39.9543 26.5485 39.9625C26.5613 40.0077 26.6262 40.1694 26.6134 40.2018C26.6006 40.2342 26.4065 40.2799 26.3736 40.247C26.406 40.3251 26.5485 40.4868 26.5677 40.5188C26.5869 40.5508 26.4252 40.6289 26.3608 40.6161C26.2703 40.6097 25.7135 40.2859 25.6167 40.163L25.6184 40.1617ZM26.4662 39.0874C26.4542 39.0548 26.4313 39.0273 26.4013 39.0097C26.3561 38.9969 26.2072 39.0097 26.2072 39.0874C26.2072 39.165 26.3352 39.5994 26.479 39.8255C26.6411 40.0521 26.7508 40.2394 26.8609 40.2914C26.8954 40.3072 26.9347 40.3092 26.9707 40.2972C27.0067 40.2851 27.0368 40.2599 27.055 40.2266C27.0678 40.1941 27.1002 39.9548 27.0874 39.3916C27.0746 38.8284 27.055 38.2848 27.0226 38.2524C26.9901 38.2199 26.8609 38.2204 26.8156 38.2848C26.7704 38.3492 26.479 38.9905 26.4658 39.0874H26.4662Z" fill="#585136"/>
<path fill-rule="evenodd" clip-rule="evenodd" d="M25.89 42.4013C25.89 42.4013 25.6635 42.2588 25.4433 42.3561C25.2364 42.4533 25.2492 42.8352 25.2492 42.8352C25.2957 42.8534 25.346 42.86 25.3957 42.8544C25.4454 42.8487 25.4929 42.831 25.5342 42.8028C25.6767 42.7059 25.8576 42.5442 25.89 42.4017V42.4013Z" fill="#574F35"/>
<path fill-rule="evenodd" clip-rule="evenodd" d="M26.3175 42.9128C26.3047 42.7848 26.1895 42.7848 26.1895 42.7187C26.1974 42.6871 26.2157 42.6591 26.2415 42.6391C26.2672 42.6192 26.2989 42.6084 26.3315 42.6086C26.3964 42.6086 26.4595 42.6863 26.5389 42.7366C26.6165 42.7819 26.733 42.8646 26.7458 42.9632C26.7586 43.0618 26.6178 43.3318 26.4612 43.3318C26.3047 43.3318 26.3512 43.0404 26.3187 42.9111L26.3175 42.9128ZM27.5667 42.7379C27.5667 42.7379 27.3077 42.8156 27.3269 42.7379C27.3461 42.6603 27.405 42.6411 27.4891 42.6411C27.5318 42.5964 27.5892 42.5686 27.6508 42.563C27.686 42.5612 27.7206 42.5728 27.7476 42.5954C27.7476 42.5954 27.9226 42.5178 27.9742 42.563C28.0258 42.6082 27.9874 42.6082 28.0194 42.6603C28.0602 42.718 28.0869 42.7845 28.0975 42.8544C28.0975 42.906 27.9034 43.0161 27.7476 42.9969C27.5667 42.9581 27.5987 42.7703 27.5667 42.7379ZM29.0746 42.4465C29.0746 42.4465 29.1522 42.4917 29.0878 42.5438C29.0426 42.589 28.816 42.6718 28.6215 42.6863C28.4273 42.6863 28.2528 42.7183 28.2528 42.6539C28.2528 42.5894 28.4145 42.4597 28.5114 42.4273C28.5308 42.403 28.5555 42.3834 28.5835 42.3699C28.6116 42.3565 28.6424 42.3495 28.6735 42.3496C28.7512 42.3496 29.0549 42.3172 29.1394 42.3044C29.2171 42.2912 29.2819 42.3364 29.2363 42.4013C29.2171 42.4465 29.0746 42.4465 29.0746 42.4465ZM29.5213 40.448C29.5213 40.448 29.424 40.6549 29.3144 40.6549C29.2043 40.6421 29.2043 40.6097 29.2043 40.5773C29.2043 40.532 29.3144 40.4156 29.3011 40.3831C29.2691 40.3831 29.1911 40.3831 29.2043 40.3055C29.2043 40.2406 29.3144 40.163 29.4112 40.1775C29.4844 40.1173 29.5755 40.0833 29.6702 40.0806C29.7803 40.0806 29.8771 40.1126 29.8771 40.1775C29.8771 40.2423 29.7491 40.3844 29.7022 40.4173C29.6506 40.4689 29.5857 40.5026 29.5213 40.4493V40.448ZM28.0455 44.2731C28.0455 44.2731 27.9175 44.2863 27.9175 44.3507C27.9175 44.3831 27.9495 44.3831 27.9951 44.3639C28.0214 44.3625 28.0475 44.358 28.0728 44.3507C28.0856 44.3639 28.0856 44.4284 28.1828 44.4284C28.2627 44.4176 28.3397 44.3912 28.4094 44.3507C28.4871 44.3187 28.5519 44.2859 28.5519 44.2227C28.5195 44.1126 28.4546 44.0606 28.3578 44.0606C28.3081 44.0574 28.2587 44.0687 28.2153 44.093C28.2153 44.093 28.1828 44.0282 28.0728 44.093C27.9627 44.1579 27.9755 44.1579 28.0079 44.1903C28.0659 44.2419 28.0467 44.2756 28.0467 44.2756L28.0455 44.2731ZM27.3141 44.9463C27.3141 44.9139 27.4759 44.8491 27.5211 44.8687C27.5663 44.8815 27.6956 45.1272 27.6956 45.1533C27.6956 45.1857 27.5339 45.2634 27.469 45.2634C27.4042 45.2634 27.2945 45.1533 27.2945 45.1354C27.2945 45.1226 27.3722 45.1034 27.3722 45.0901C27.3914 45.0581 27.3141 44.98 27.3141 44.9476V44.9463ZM26.8021 44.0013C26.8346 43.9885 26.8346 43.956 26.8798 43.9236C26.894 43.9142 26.9101 43.9082 26.927 43.9059C26.9438 43.9037 26.961 43.9054 26.9771 43.9108C26.9885 43.8905 27.0043 43.8729 27.0233 43.8594C27.0424 43.8459 27.0642 43.8368 27.0872 43.8327C27.1648 43.8199 27.2297 43.8327 27.2152 43.8652C27.2152 43.9624 27.28 44.0269 27.28 44.1045C27.28 44.1822 27.2348 44.2795 27.0731 44.3443C26.9114 44.3895 26.6912 44.3895 26.6588 44.3767C26.6264 44.3639 26.5939 44.2342 26.6264 44.1694C26.6588 44.1045 26.7492 44.0337 26.8013 44.0013H26.8021Z" fill="#82764F"/>
<path fill-rule="evenodd" clip-rule="evenodd" d="M27.0079 44.0452C27.0079 44.0452 26.8978 44.1101 26.8978 44.1425C26.888 44.1738 26.8837 44.2066 26.885 44.2394C26.885 44.2586 27.0275 44.2266 27.0467 44.2069C27.0531 44.1941 27.0079 44.0789 27.0079 44.0452Z" fill="#6E6342"/>
<path fill-rule="evenodd" clip-rule="evenodd" d="M26.0455 43.741C26.1099 43.7542 26.22 43.741 26.304 43.7734C26.3689 43.8059 26.4141 43.8707 26.3492 43.9484C26.2844 44.026 26.2212 44.1425 26.0775 44.1229C25.9158 44.1101 25.7604 44.026 25.7604 43.9612C25.7577 43.9201 25.7632 43.879 25.7765 43.8401C25.7899 43.8012 25.8108 43.7653 25.8381 43.7346C25.903 43.683 25.935 43.7154 26.045 43.741H26.0455Z" fill="#585136"/>
<path fill-rule="evenodd" clip-rule="evenodd" d="M25.9678 43.8059C25.9678 43.8059 25.7609 43.9676 25.7088 44.0457C25.644 44.1233 25.327 44.5244 25.2301 44.6084C25.2623 44.5517 25.2989 44.4976 25.3398 44.4467C25.2118 44.5286 25.1158 44.652 25.068 44.7962C24.9903 45.0359 25.5019 45.1652 25.8381 45.2625C26.1743 45.3598 26.3044 45.3905 26.3044 45.3905C26.1807 45.2045 26.0744 45.0074 25.987 44.8017C25.859 44.4975 25.7929 44.4651 25.8769 44.3226C25.9418 44.1801 26.0391 44.0832 26.0391 43.9731C26.0002 43.8707 25.9678 43.8059 25.9678 43.8059Z" fill="#574F35"/>
<path fill-rule="evenodd" clip-rule="evenodd" d="M18.5892 44.3174C18.6363 44.3261 18.6846 44.3261 18.7317 44.3174C18.8286 44.3042 19.8385 43.9334 20.8937 44C21.6836 44.0477 22.4665 44.1764 23.2301 44.384C24.557 44.7334 26.2074 45.4259 27.2753 45.821C27.5599 45.9307 27.8385 46.1252 28.0433 46.2025C28.8591 46.5199 28.8911 46.5199 29.3702 46.6039C29.9334 46.6816 30.5094 46.4939 31.1115 46.3646C31.8492 46.2025 33.1113 46.1248 34.218 45.9631C34.5759 45.9135 34.9289 45.8334 35.2732 45.7237C35.2732 45.7237 34.393 46.6039 32.2827 46.921C31.4297 47.0505 30.5629 47.0614 29.7069 46.9534C29.0336 46.8885 28.5873 46.7913 28.2507 46.6944C27.8688 46.5843 27.0854 46.2929 26.1212 46.0544C25.4479 45.8795 24.697 45.7502 23.8364 45.5885C21.7133 45.1998 19.4093 44.7535 18.5884 44.32L18.5892 44.3174Z" fill="#252211"/>
<path fill-rule="evenodd" clip-rule="evenodd" d="M16.2068 40.3174C15.6948 40.7509 15.1516 41.1652 14.6213 41.5663L13.0226 42.7947C12.479 43.1957 11.9482 43.61 11.4042 44.0115C10.8602 44.413 10.3171 44.7944 9.74023 45.1635C10.2522 44.73 10.7954 44.3285 11.339 43.9339C11.8825 43.5392 12.4462 43.1522 12.9705 42.752L14.5692 41.5219C15.1192 41.1208 15.65 40.7066 16.2068 40.3183V40.3174ZM13.3784 44.8482C13.3784 44.8482 13.9544 44.3691 14.6729 43.6962C15.5659 42.8616 16.6599 41.7933 17.0094 41.5996L13.378 44.8486L13.3784 44.8482Z" fill="#CFB66C"/>
<path fill-rule="evenodd" clip-rule="evenodd" d="M13.3784 44.8478C13.6634 44.5632 13.9676 44.285 14.2719 44.0128L14.7378 43.6117C14.8803 43.4837 15.0424 43.34 15.1845 43.1974C15.4691 42.9129 15.7477 42.6082 16.0323 42.3172C16.1733 42.1709 16.3225 42.0326 16.479 41.9029C16.5573 41.8337 16.6442 41.7749 16.7376 41.728C16.8156 41.6828 16.8997 41.6 17.0094 41.5855C16.9449 41.6828 16.8673 41.728 16.8024 41.8121C16.7248 41.8769 16.6599 41.9546 16.5955 42.019C16.453 42.1615 16.2913 42.2908 16.1488 42.4205C15.8446 42.6795 15.5275 42.9325 15.2233 43.2034C14.9191 43.4744 14.6345 43.7666 14.3299 44.0384C14.0001 44.317 13.6959 44.5888 13.3784 44.8491V44.8478ZM17.2491 42.2588C17.2491 42.2588 15.1393 44.3238 14.7054 44.6601L17.2491 42.2588Z" fill="#CFB66C"/>
<path fill-rule="evenodd" clip-rule="evenodd" d="M17.2494 42.2588C17.0596 42.4785 16.8561 42.686 16.6401 42.88L16.0001 43.4884C15.7931 43.6954 15.5986 43.9027 15.3788 44.1096C15.1523 44.3038 14.9454 44.4937 14.7056 44.6729L15.3268 44.0644C15.5342 43.8575 15.7607 43.683 15.9809 43.4756L16.6021 42.8672C16.8154 42.6539 17.0228 42.4465 17.2494 42.2588ZM17.3462 43.3783C17.1517 43.9211 16.9226 44.4509 16.6601 44.9643C16.1166 46.0518 15.3012 47.4108 14.9449 48.1037L17.3462 43.3783Z" fill="#CFB66C"/>
<path fill-rule="evenodd" clip-rule="evenodd" d="M17.3461 43.3788C17.3461 43.6181 17.2812 43.8255 17.2035 44.0324C17.1279 44.2395 17.0415 44.4426 16.945 44.6409C16.8477 44.835 16.7376 45.0423 16.6275 45.2301C16.5175 45.4178 16.3882 45.6115 16.2909 45.8061L15.6373 46.9581C15.4107 47.3421 15.1905 47.7282 14.9512 48.0973C15.1129 47.683 15.333 47.2947 15.5404 46.9129C15.767 46.5289 15.9739 46.1449 16.1804 45.7476C16.2812 45.5497 16.3719 45.3468 16.4522 45.1396C16.549 44.9323 16.6459 44.7381 16.724 44.5504C16.8208 44.3435 16.8985 44.1489 16.9958 43.9616C17.1054 43.7606 17.1963 43.5665 17.3452 43.3788H17.3461Z" fill="#CFB66C"/>
<path fill-rule="evenodd" clip-rule="evenodd" d="M19.6503 48.6861C19.6503 48.6861 19.0103 49.5339 19.0743 50.6082C19.2488 50.0455 19.469 49.1844 19.6503 48.6861ZM20.2587 49.536C20.2587 49.536 20.0322 51.84 19.8445 52.9728C20.1098 51.6634 20.1615 51.7734 20.2587 49.536ZM24.4981 53.1089C24.4981 53.1089 23.5402 55.9249 23.5206 56.7074C23.728 55.9027 24.129 54.2588 24.4981 53.1068V53.1089Z" fill="#DEC270"/>
<path fill-rule="evenodd" clip-rule="evenodd" d="M26.7378 48.512C26.7378 48.512 28.2913 51.075 29.4565 53.2625C29.1412 52.1617 28.4159 50.1427 26.7378 48.512Z" fill="#CBAF59"/>
<path fill-rule="evenodd" clip-rule="evenodd" d="M30.9131 52.285C31.766 53.7927 32.5352 55.3463 33.2171 56.9387C33.0878 55.8383 32.7379 53.955 30.9131 52.285Z" fill="#E3C677"/>
<path fill-rule="evenodd" clip-rule="evenodd" d="M43.1846 56.064C43.4432 55.9023 43.9548 55.0217 44.4015 54.8019C44.8478 54.5754 45.1844 54.5301 45.5859 54.0834C45.987 53.6171 46.0979 53.3325 46.9773 52.9638C48.2074 52.4326 47.3613 51.7466 47.3613 51.7466C47.4968 51.6135 47.6416 51.4903 47.7948 51.3779C48.1122 51.1386 48.4808 50.8471 48.4488 50.3356C48.4036 49.475 48.2419 48.2257 47.5362 47.5008C48.2223 47.3583 49.536 47.2614 50.3522 47.0545C51.2968 46.8147 51.7308 46.4781 51.7308 46.4781C51.7308 46.4781 51.1872 45.5526 52.0674 44.6208C52.9476 43.689 53.6661 43.1322 54.1969 42.0898C53.5885 42.0122 52.6609 41.6887 50.2938 42.5882C50.4215 42.6483 50.5449 42.7174 50.6628 42.7951C50.6628 42.7951 49.2066 43.1966 48.6758 43.6433C47.75 44.4262 47.6335 45.0671 46.6304 45.5462C45.6273 46.0254 44.6174 45.8957 43.7828 46.2839C42.9483 46.6722 42.825 47.0024 42.5203 47.145C42.5852 47.2226 42.5075 47.3519 42.6304 47.462C42.5527 47.5721 42.0996 48.3098 41.6401 48.3098C41.6853 48.4847 42.0736 48.614 42.0736 48.614C42.0736 48.614 41.789 48.8213 41.0641 48.873C41.4327 49.257 41.7826 49.6755 42.7469 50.2839C42.6692 50.4457 42.3454 50.6854 42.4751 50.9896C42.6176 51.2939 42.9871 51.7082 44.4621 52.0448C43.7111 52.0768 42.8314 52.2517 41.6461 52.09C40.4616 51.9475 40.2675 51.8635 39.5362 52.0448C39.6139 52.1225 39.8208 52.1224 40.0021 52.3294C39.808 52.3422 38.5911 52.1869 38.1768 52.7309C37.7434 53.2937 37.5556 54.2195 37.588 54.8407C37.3615 54.9508 37.1413 55.145 37.2514 55.5464C37.3615 55.9479 37.9375 56.0772 38.3066 56.3294C38.6752 56.6012 38.7076 56.698 39.0575 56.6336C39.4261 56.5559 39.9697 56.1873 40.2871 56.1873C40.6046 56.1873 40.8307 56.4267 40.8307 56.4267C40.8307 56.4267 41.6917 56.0124 41.7758 56.09C41.8534 56.1677 41.7886 56.666 41.8726 56.7437C41.958 56.8021 42.9278 56.2261 43.1868 56.064H43.1846Z" fill="#ECD592"/>
<path fill-rule="evenodd" clip-rule="evenodd" d="M62 30.1619C57.9548 19.7154 47.9545 17.7801 47.9545 17.7801H19.4238L19.5338 28.4207H25.2158V52.1813H19.4233V62.8028H47.1648C53.8507 62.8028 59.21 56.084 59.21 56.084C67.7924 43.9031 61.9996 30.1619 61.9996 30.1619H62ZM47.3137 48.9254C47.3137 48.9254 45.1377 52.0648 42.7701 52.0648H38.0341L37.9219 28.4467H43.9998C43.9998 28.4467 46.8158 29.0355 48.7831 34.6082C48.7831 34.6082 51.3913 42.5869 47.3137 48.9254Z" fill="white" fill-opacity="0.8"/>
</svg>
