<svg width="622" height="634" viewBox="0 0 622 634" fill="none" xmlns="http://www.w3.org/2000/svg">
<g filter="url(#filter0_d_159_1400)">
<rect x="50" y="40" width="522" height="534" rx="10" fill="#FAFAFA"/>
<g opacity="0.05">
<rect x="295.917" y="215.066" width="74.0418" height="74.0418" fill="#FF0083"/>
<rect x="396.4" y="215.066" width="47.5983" height="47.5983" fill="#FF0083" fill-opacity="0.5"/>
<rect x="221.875" y="237.278" width="29.6167" height="29.6167" fill="#FF0083" fill-opacity="0.3"/>
<rect x="256.78" y="175.929" width="39.1364" height="39.1364" fill="#FF0083" fill-opacity="0.9"/>
<rect x="369.958" y="289.107" width="74.0418" height="74.0418" fill="#FF0083" fill-opacity="0.8"/>
<rect x="369.958" y="363.149" width="74.0418" height="74.0418" fill="#FF0083"/>
<rect x="295.917" y="363.149" width="74.0418" height="74.0418" fill="#FF0083" fill-opacity="0.9"/>
<rect x="221.875" y="289.107" width="74.0418" height="74.0418" fill="#FF0083" fill-opacity="0.6"/>
<rect x="178.507" y="363.149" width="43.3673" height="43.3673" fill="#FF0083" fill-opacity="0.7"/>
</g>
<path d="M156.226 322V303.9H153.126V299.65H156.226V295.2C156.226 294.067 156.443 293.017 156.876 292.05C157.343 291.083 158.093 290.3 159.126 289.7C160.193 289.1 161.593 288.8 163.326 288.8H165.826C169.826 288.8 172.693 288.983 174.426 289.35C176.193 289.717 177.076 290.033 177.076 290.3L175.576 294.1C175.009 293.867 173.993 293.65 172.526 293.45C171.059 293.217 169.293 293.1 167.226 293.1H164.726C163.893 293.1 163.276 293.25 162.876 293.55C162.509 293.85 162.326 294.367 162.326 295.1V299.65H172.726V303.9H162.326V322H156.226ZM181.625 296.45C180.392 296.45 179.492 296.2 178.925 295.7C178.359 295.2 178.075 294.367 178.075 293.2C178.075 292 178.342 291.167 178.875 290.7C179.442 290.2 180.359 289.95 181.625 289.95C182.892 289.95 183.809 290.2 184.375 290.7C184.942 291.167 185.225 292 185.225 293.2C185.225 294.333 184.942 295.167 184.375 295.7C183.809 296.2 182.892 296.45 181.625 296.45ZM178.575 322V299.6H184.675V322H178.575ZM191.21 322V299.6H195.31L197.21 300.6C198.077 300.133 199.01 299.767 200.01 299.5C201.01 299.233 202.277 299.1 203.81 299.1C206.243 299.1 208.21 299.367 209.71 299.9C211.243 300.433 212.26 300.833 212.76 301.1L211.01 305.45C210.61 305.25 209.943 305 209.01 304.7C208.11 304.367 207.043 304.067 205.81 303.8C204.577 303.533 203.227 303.4 201.76 303.4H201.21C199.61 303.4 198.56 303.717 198.06 304.35C197.593 304.983 197.343 306.033 197.31 307.5V322H191.21ZM222.359 322C220.692 322 219.409 321.783 218.509 321.35C217.609 320.917 216.959 320.367 216.559 319.7C216.192 319.033 215.959 318.333 215.859 317.6C215.792 316.867 215.759 316.2 215.759 315.6V306C215.759 305.5 215.792 304.9 215.859 304.2C215.959 303.467 216.192 302.75 216.559 302.05C216.959 301.35 217.609 300.767 218.509 300.3C219.442 299.833 220.725 299.6 222.359 299.6H233.109C235.309 299.6 237.025 299.817 238.259 300.25C239.525 300.65 240.409 301.317 240.909 302.25C241.442 303.183 241.709 304.433 241.709 306V313.4H232.959C229.959 313.4 227.509 313.333 225.609 313.2C223.742 313.067 222.492 312.983 221.859 312.95V315.7C221.825 317.033 222.625 317.7 224.259 317.7H226.809C228.609 317.7 230.359 317.683 232.059 317.65C233.792 317.583 235.375 317.517 236.809 317.45C238.242 317.35 239.392 317.267 240.259 317.2L242.259 320.45C242.259 321.483 238.975 322 232.409 322H222.359ZM221.859 309.1H235.609V305.9C235.609 305.233 235.525 304.767 235.359 304.5C235.225 304.233 234.792 304.067 234.059 304C233.325 303.933 232.075 303.9 230.309 303.9H224.259C222.659 303.9 221.859 304.567 221.859 305.9V309.1ZM253.715 322C251.181 322 249.348 321.417 248.215 320.25C247.081 319.05 246.515 317.417 246.515 315.35C246.515 313.183 247.098 311.517 248.265 310.35C249.465 309.183 251.281 308.6 253.715 308.6H256.265C258.765 308.6 261.015 308.667 263.015 308.8C265.015 308.933 266.665 309.067 267.965 309.2V305.9C267.965 305.6 267.931 305.3 267.865 305C267.798 304.667 267.598 304.4 267.265 304.2C266.931 304 266.365 303.9 265.565 303.9H263.065C259.431 303.9 256.398 303.967 253.965 304.1C251.531 304.2 249.881 304.3 249.015 304.4L248.465 300.6C248.465 300.133 249.731 299.85 252.265 299.75C254.798 299.65 259.031 299.6 264.965 299.6H267.465C269.131 299.6 270.415 299.833 271.315 300.3C272.215 300.767 272.848 301.35 273.215 302.05C273.615 302.75 273.848 303.467 273.915 304.2C274.015 304.9 274.065 305.5 274.065 306V322H269.965L268.015 321C266.615 321.233 264.931 321.467 262.965 321.7C260.998 321.9 258.748 322 256.215 322H253.715ZM255.015 317.7H266.465C267.198 317.7 267.631 317.633 267.765 317.5C267.898 317.367 267.965 316.95 267.965 316.25V312.4H255.015C254.115 312.4 253.481 312.617 253.115 313.05C252.781 313.483 252.615 314.167 252.615 315.1C252.615 316.033 252.815 316.7 253.215 317.1C253.615 317.5 254.215 317.7 255.015 317.7ZM279.833 331.3V299.6H283.933L285.183 300.25C286.683 300.083 288.466 299.933 290.533 299.8C292.633 299.667 295.016 299.6 297.683 299.6H300.233C301.9 299.6 303.183 299.817 304.083 300.25C304.983 300.683 305.616 301.233 305.983 301.9C306.383 302.567 306.616 303.267 306.683 304C306.783 304.733 306.833 305.4 306.833 306V315.6C306.833 316.1 306.783 316.717 306.683 317.45C306.616 318.15 306.383 318.85 305.983 319.55C305.616 320.25 304.983 320.833 304.083 321.3C303.183 321.767 301.9 322 300.233 322H297.683C295.15 322 292.9 321.933 290.933 321.8C288.966 321.667 287.3 321.533 285.933 321.4V331.3H279.833ZM287.483 317.7H298.333C298.966 317.7 299.516 317.533 299.983 317.2C300.483 316.867 300.733 316.367 300.733 315.7V305.9C300.766 305.167 300.583 304.65 300.183 304.35C299.816 304.05 299.2 303.9 298.333 303.9H295.833C293.7 303.9 291.8 303.95 290.133 304.05C288.5 304.117 287.1 304.2 285.933 304.3V316.15C285.933 316.883 286 317.333 286.133 317.5C286.3 317.633 286.75 317.7 287.483 317.7ZM318.453 322C316.786 322 315.503 321.783 314.603 321.35C313.703 320.917 313.053 320.367 312.653 319.7C312.286 319.033 312.053 318.333 311.953 317.6C311.886 316.867 311.853 316.2 311.853 315.6V306C311.853 305.5 311.886 304.9 311.953 304.2C312.053 303.467 312.286 302.75 312.653 302.05C313.053 301.35 313.703 300.767 314.603 300.3C315.536 299.833 316.819 299.6 318.453 299.6H329.203C331.403 299.6 333.119 299.817 334.353 300.25C335.619 300.65 336.503 301.317 337.003 302.25C337.536 303.183 337.803 304.433 337.803 306V313.4H329.053C326.053 313.4 323.603 313.333 321.703 313.2C319.836 313.067 318.586 312.983 317.953 312.95V315.7C317.919 317.033 318.719 317.7 320.353 317.7H322.903C324.703 317.7 326.453 317.683 328.153 317.65C329.886 317.583 331.469 317.517 332.903 317.45C334.336 317.35 335.486 317.267 336.353 317.2L338.353 320.45C338.353 321.483 335.069 322 328.503 322H318.453ZM317.953 309.1H331.703V305.9C331.703 305.233 331.619 304.767 331.453 304.5C331.319 304.233 330.886 304.067 330.153 304C329.419 303.933 328.169 303.9 326.403 303.9H320.353C318.753 303.9 317.953 304.567 317.953 305.9V309.1ZM347.908 322C346.675 322 345.775 321.75 345.208 321.25C344.642 320.75 344.358 319.917 344.358 318.75C344.358 317.55 344.625 316.717 345.158 316.25C345.725 315.75 346.642 315.5 347.908 315.5C349.175 315.5 350.092 315.75 350.658 316.25C351.225 316.717 351.508 317.55 351.508 318.75C351.508 319.883 351.225 320.717 350.658 321.25C350.092 321.75 349.175 322 347.908 322ZM367.195 322C364.662 322 362.928 321.467 361.995 320.4C361.062 319.333 360.595 317.733 360.595 315.6V303.9H356.495V299.6H358.595C359.228 299.6 359.678 299.5 359.945 299.3C360.245 299.1 360.462 298.7 360.595 298.1L361.595 292.75H366.695V299.6H377.095V303.9H366.695V315.65C366.695 316.483 366.895 317.033 367.295 317.3C367.695 317.567 368.295 317.7 369.095 317.7H376.145L376.645 321.5C375.945 321.6 374.878 321.717 373.445 321.85C372.012 321.95 370.445 322 368.745 322H367.195ZM387.203 322C384.969 322 383.303 321.55 382.203 320.65C381.136 319.75 380.603 318.283 380.603 316.25V306C380.603 305.5 380.636 304.9 380.703 304.2C380.803 303.467 381.036 302.75 381.403 302.05C381.803 301.35 382.453 300.767 383.353 300.3C384.286 299.833 385.569 299.6 387.203 299.6H401.003C402.669 299.6 403.953 299.833 404.853 300.3C405.753 300.767 406.386 301.35 406.753 302.05C407.153 302.75 407.386 303.467 407.453 304.2C407.553 304.9 407.603 305.5 407.603 306V315.6C407.603 316.2 407.553 316.867 407.453 317.6C407.386 318.333 407.153 319.033 406.753 319.7C406.353 320.367 405.703 320.917 404.803 321.35C403.903 321.783 402.636 322 401.003 322H387.203ZM389.103 317.7H399.103C400.736 317.7 401.553 317.033 401.553 315.7V305.9C401.553 304.567 400.736 303.9 399.103 303.9H389.103C387.503 303.9 386.703 304.567 386.703 305.9V315.7C386.703 317.033 387.503 317.7 389.103 317.7ZM413.085 322V299.6H417.185L418.435 300.2C419.402 300.033 420.585 299.9 421.985 299.8C423.385 299.667 425.052 299.6 426.985 299.6H429.485C430.452 299.6 431.385 299.733 432.285 300C433.185 300.233 433.852 300.583 434.285 301.05C435.152 300.617 436.352 300.267 437.885 300C439.418 299.733 441.418 299.6 443.885 299.6H446.385C448.052 299.6 449.335 299.833 450.235 300.3C451.135 300.767 451.768 301.35 452.135 302.05C452.535 302.75 452.768 303.467 452.835 304.2C452.935 304.9 452.985 305.5 452.985 306V322H446.885V305.9C446.885 304.567 446.085 303.9 444.485 303.9H437.485C436.952 303.9 436.585 303.967 436.385 304.1C436.185 304.233 436.085 304.533 436.085 305V322H429.985V305.9C429.985 304.567 429.185 303.9 427.585 303.9H420.685C420.052 303.9 419.635 303.967 419.435 304.1C419.268 304.2 419.185 304.5 419.185 305V322H413.085ZM462.289 296.45C461.056 296.45 460.156 296.2 459.589 295.7C459.023 295.2 458.739 294.367 458.739 293.2C458.739 292 459.006 291.167 459.539 290.7C460.106 290.2 461.023 289.95 462.289 289.95C463.556 289.95 464.473 290.2 465.039 290.7C465.606 291.167 465.889 292 465.889 293.2C465.889 294.333 465.606 295.167 465.039 295.7C464.473 296.2 463.556 296.45 462.289 296.45ZM459.239 322V299.6H465.339V322H459.239Z" fill="#FF0083"/>
<rect x="51" y="41" width="520" height="532" rx="9" stroke="#FF0083" stroke-width="2"/>
</g>
<defs>
<filter id="filter0_d_159_1400" x="0" y="0" width="622" height="634" filterUnits="userSpaceOnUse" color-interpolation-filters="sRGB">
<feFlood flood-opacity="0" result="BackgroundImageFix"/>
<feColorMatrix in="SourceAlpha" type="matrix" values="0 0 0 0 0 0 0 0 0 0 0 0 0 0 0 0 0 0 127 0" result="hardAlpha"/>
<feOffset dy="10"/>
<feGaussianBlur stdDeviation="25"/>
<feComposite in2="hardAlpha" operator="out"/>
<feColorMatrix type="matrix" values="0 0 0 0 0 0 0 0 0 0 0 0 0 0 0 0 0 0 0.05 0"/>
<feBlend mode="normal" in2="BackgroundImageFix" result="effect1_dropShadow_159_1400"/>
<feBlend mode="normal" in="SourceGraphic" in2="effect1_dropShadow_159_1400" result="shape"/>
</filter>
</defs>
</svg>
