<svg width="30" height="30" viewBox="0 0 30 30" fill="none" xmlns="http://www.w3.org/2000/svg">
<path d="M28.9998 15C29.0102 16.8348 28.6558 18.6535 27.9569 20.3516C27.258 22.0497 26.2284 23.5936 24.9274 24.8947C23.6263 26.1957 22.0795 27.2282 20.3758 27.9328C18.6721 28.6373 16.8452 29 15 29C13.1549 29 11.3279 28.6373 9.6242 27.9328C7.9205 27.2282 6.37366 26.1957 5.07262 24.8947C3.77159 23.5936 2.74203 22.0497 2.04314 20.3516C1.34425 18.6535 0.989815 16.8348 1.00022 15C0.989815 13.1652 1.34425 11.3465 2.04314 9.64842C2.74203 7.95033 3.77159 6.40636 5.07262 5.10531C6.37366 3.80425 7.9205 2.77177 9.6242 2.06723C11.3279 1.3627 13.1549 1 15 1C16.8452 1 18.6721 1.3627 20.3758 2.06723C22.0795 2.77177 23.6263 3.80425 24.9274 5.10531C26.2284 6.40636 27.258 7.95033 27.9569 9.64842C28.6558 11.3465 29.0102 13.1652 28.9998 15Z" fill="#FAFAFA" stroke="#D3D3D3" stroke-width="1.5"/>
<path d="M9.8421 9.86252L19.9715 20.3045" stroke="#FF0083" stroke-width="2" stroke-linecap="round"/>
<path d="M19.9715 9.86252L9.8421 20.3045" stroke="#FF0083" stroke-width="2" stroke-linecap="round"/>
</svg>
