<svg width="80" height="80" viewBox="0 0 80 80" fill="none" xmlns="http://www.w3.org/2000/svg">
<path d="M40 80C62.0914 80 80 62.0914 80 40C80 17.9086 62.0914 0 40 0C17.9086 0 0 17.9086 0 40C0 62.0914 17.9086 80 40 80Z" fill="#172852"/>
<path d="M32.2202 17.876C36.9042 16.124 42.1762 16.12 46.9482 17.56C53.1602 19.488 58.4042 24.176 61.1442 30.06C61.9002 31.736 62.6242 33.484 62.6962 35.348C59.2042 33.324 55.3762 32.012 51.5402 30.816C45.4042 28.604 38.9802 27.068 33.1722 24.028C31.8202 23.22 30.0962 22.392 29.7282 20.708C29.5802 19.252 31.1202 18.44 32.2202 17.876Z" fill="#FFD83D"/>
<path d="M18.0801 32.036C19.4361 28.356 21.6601 24.94 24.6801 22.408C25.4481 28.724 28.1361 34.828 32.5761 39.42C37.9001 44.952 45.4841 48.348 53.2001 48.22C56.2641 48.316 59.2601 47.608 62.2481 47.036C59.3081 57.66 47.6641 64.712 36.8761 63.016C30.3641 62.184 24.3521 58.328 20.7241 52.884C16.6321 46.868 15.6001 38.88 18.0801 32.036Z" fill="#FFD83D"/>
<path d="M51.54 30.816C55.376 32.012 59.204 33.324 62.696 35.348L62.932 35.472C63.256 37.908 63.492 40.392 63.06 42.832C61.304 42.088 59.88 40.78 58.392 39.624C55.528 37.24 52.604 34.512 51.54 30.816Z" fill="#FF6F03"/>
</svg>
