<svg width="80" height="80" viewBox="0 0 80 80" fill="none" xmlns="http://www.w3.org/2000/svg">
<path fill-rule="evenodd" clip-rule="evenodd" d="M79.9736 40.0003C79.9736 62.0626 62.0772 79.9471 40.0002 79.9471C17.9235 79.9471 0.0268555 62.0626 0.0268555 40.0003C0.0268555 17.9383 17.9235 0.0535278 40.0002 0.0535278C62.0772 0.0535278 79.9736 17.9383 79.9736 40.0003ZM28.6729 55.8971H20.9152C19.2851 55.8971 18.4799 55.8971 17.9889 55.5833C17.4586 55.2397 17.1346 54.6705 17.0953 54.0424C17.0658 53.4636 17.4685 52.7568 18.2737 51.3437L37.4284 17.6033C38.2435 16.1705 38.6559 15.4541 39.1763 15.1892C39.7361 14.9046 40.4039 14.9046 40.9636 15.1892C41.4841 15.4541 41.8965 16.1705 42.7115 17.6033L46.6493 24.4726L46.6694 24.5077C47.5497 26.0447 47.9962 26.8242 48.1911 27.6423C48.4071 28.5353 48.4071 29.4774 48.1911 30.3704C47.9947 31.1947 47.5528 31.9799 46.6591 33.5402L36.5976 51.3143L36.5716 51.3598C35.6855 52.9095 35.2364 53.695 34.614 54.2876C33.9364 54.9354 33.1214 55.4062 32.2277 55.6716C31.4127 55.8971 30.4995 55.8971 28.6729 55.8971ZM48.2637 55.8971H59.3796C61.0195 55.8971 61.8446 55.8971 62.3358 55.5737C62.866 55.2301 63.1997 54.6509 63.2295 54.0232C63.2577 53.4631 62.8639 52.7838 62.0921 51.4528C62.0655 51.4075 62.0388 51.3614 62.0117 51.3145L56.4436 41.7955L56.3803 41.6884C55.5979 40.3661 55.2029 39.6984 54.6957 39.4403C54.1362 39.1557 53.4778 39.1557 52.9184 39.4403C52.4077 39.7053 51.9953 40.402 51.1802 41.8053L45.632 51.3243L45.613 51.3571C44.8008 52.7582 44.3949 53.4583 44.4241 54.0328C44.4634 54.661 44.7875 55.2397 45.3177 55.5833C45.7989 55.8971 46.6238 55.8971 48.2637 55.8971Z" fill="#E84142"/>
</svg>
