<svg width="242" height="185" viewBox="0 0 242 185" fill="none" xmlns="http://www.w3.org/2000/svg">
<rect width="241.25" height="185" rx="10" fill="#FFF9FC"/>
<g opacity="0.05">
<rect x="113.395" y="50.1316" width="34.3028" height="34.3028" fill="#FF0083"/>
<rect x="159.948" y="50.1316" width="22.0518" height="22.0518" fill="#FF0083" fill-opacity="0.5"/>
<rect x="79.0918" y="60.4224" width="13.7211" height="13.7211" fill="#FF0083" fill-opacity="0.3"/>
<rect x="95.2632" y="32" width="18.1315" height="18.1315" fill="#FF0083" fill-opacity="0.9"/>
<rect x="147.697" y="84.4342" width="34.3028" height="34.3028" fill="#FF0083" fill-opacity="0.8"/>
<rect x="147.697" y="118.737" width="34.3028" height="34.3028" fill="#FF0083"/>
<rect x="113.395" y="118.737" width="34.3028" height="34.3028" fill="#FF0083" fill-opacity="0.9"/>
<rect x="79.0918" y="84.4342" width="34.3028" height="34.3028" fill="#FF0083" fill-opacity="0.6"/>
<rect x="59" y="118.737" width="20.0916" height="20.0916" fill="#FF0083" fill-opacity="0.7"/>
</g>
<path d="M57.6017 100V90.588H55.9897V88.378H57.6017V86.064C57.6017 85.4747 57.7144 84.9287 57.9397 84.426C58.1824 83.9233 58.5724 83.516 59.1097 83.204C59.6644 82.892 60.3924 82.736 61.2937 82.736H62.5937C64.6737 82.736 66.1644 82.8313 67.0657 83.022C67.9844 83.2127 68.4437 83.3773 68.4437 83.516L67.6637 85.492C67.3691 85.3707 66.8404 85.258 66.0777 85.154C65.3151 85.0327 64.3964 84.972 63.3217 84.972H62.0217C61.5884 84.972 61.2677 85.05 61.0597 85.206C60.8691 85.362 60.7737 85.6307 60.7737 86.012V88.378H66.1817V90.588H60.7737V100H57.6017ZM70.7431 100C69.4258 100 68.4724 99.6967 67.8831 99.09C67.2938 98.466 66.9991 97.6167 66.9991 96.542C66.9991 95.4153 67.3024 94.5487 67.9091 93.942C68.5331 93.3353 69.4778 93.032 70.7431 93.032H72.0691C73.3691 93.032 74.5391 93.0667 75.5791 93.136C76.6191 93.2053 77.4771 93.2747 78.1531 93.344V91.628C78.1531 91.472 78.1358 91.316 78.1011 91.16C78.0664 90.9867 77.9624 90.848 77.7891 90.744C77.6158 90.64 77.3211 90.588 76.9051 90.588H75.6051C73.7158 90.588 72.1384 90.6227 70.8731 90.692C69.6078 90.744 68.7498 90.796 68.2991 90.848L68.0131 88.872C68.0131 88.6293 68.6718 88.482 69.9891 88.43C71.3064 88.378 73.5078 88.352 76.5931 88.352H77.8931C78.7598 88.352 79.4271 88.4733 79.8951 88.716C80.3631 88.9587 80.6924 89.262 80.8831 89.626C81.0911 89.99 81.2124 90.3627 81.2471 90.744C81.2991 91.108 81.3251 91.42 81.3251 91.68V100H79.1931L78.1791 99.48C77.4511 99.6013 76.5758 99.7227 75.5531 99.844C74.5304 99.948 73.3604 100 72.0431 100H70.7431ZM71.4191 97.764H77.3731C77.7544 97.764 77.9798 97.7293 78.0491 97.66C78.1184 97.5907 78.1531 97.374 78.1531 97.01V95.008H71.4191C70.9511 95.008 70.6218 95.1207 70.4311 95.346C70.2578 95.5713 70.1711 95.9267 70.1711 96.412C70.1711 96.8973 70.2751 97.244 70.4831 97.452C70.6911 97.66 71.0031 97.764 71.4191 97.764ZM87.7566 100C86.9073 100 86.24 99.8873 85.7546 99.662C85.2866 99.4367 84.9486 99.1507 84.7406 98.804C84.55 98.4573 84.4286 98.0933 84.3766 97.712C84.342 97.3307 84.3246 96.984 84.3246 96.672V88.352H87.4966V96.724C87.4793 97.1053 87.6006 97.374 87.8606 97.53C88.138 97.686 88.4326 97.764 88.7446 97.764H93.8926C94.274 97.764 94.4993 97.7293 94.5686 97.66C94.638 97.5907 94.6726 97.3653 94.6726 96.984V88.352H97.8446V100H95.7126L94.7246 99.48C94.0313 99.6187 93.208 99.74 92.2546 99.844C91.3186 99.948 90.2613 100 89.0826 100H87.7566ZM101.216 100V85.596L100.956 83.516H104.388V100H101.216ZM112.03 100C110.713 100 109.812 99.7227 109.326 99.168C108.841 98.6133 108.598 97.7813 108.598 96.672V90.588H106.466V88.352H107.558C107.888 88.352 108.122 88.3 108.26 88.196C108.416 88.092 108.529 87.884 108.598 87.572L109.118 84.79H111.77V88.352H117.178V90.588H111.77V96.698C111.77 97.1313 111.874 97.4173 112.082 97.556C112.29 97.6947 112.602 97.764 113.018 97.764H116.684L116.944 99.74C116.58 99.792 116.026 99.8527 115.28 99.922C114.535 99.974 113.72 100 112.836 100H112.03ZM121.628 100C120.987 100 120.519 99.87 120.224 99.61C119.929 99.35 119.782 98.9167 119.782 98.31C119.782 97.686 119.921 97.2527 120.198 97.01C120.493 96.75 120.969 96.62 121.628 96.62C122.287 96.62 122.763 96.75 123.058 97.01C123.353 97.2527 123.5 97.686 123.5 98.31C123.5 98.8993 123.353 99.3327 123.058 99.61C122.763 99.87 122.287 100 121.628 100ZM131.657 100C130.34 100 129.439 99.7227 128.953 99.168C128.468 98.6133 128.225 97.7813 128.225 96.672V90.588H126.093V88.352H127.185C127.515 88.352 127.749 88.3 127.887 88.196C128.043 88.092 128.156 87.884 128.225 87.572L128.745 84.79H131.397V88.352H136.805V90.588H131.397V96.698C131.397 97.1313 131.501 97.4173 131.709 97.556C131.917 97.6947 132.229 97.764 132.645 97.764H136.311L136.571 99.74C136.207 99.792 135.653 99.8527 134.907 99.922C134.162 99.974 133.347 100 132.463 100H131.657ZM142.061 100C140.9 100 140.033 99.766 139.461 99.298C138.906 98.83 138.629 98.0673 138.629 97.01V91.68C138.629 91.42 138.646 91.108 138.681 90.744C138.733 90.3627 138.854 89.99 139.045 89.626C139.253 89.262 139.591 88.9587 140.059 88.716C140.544 88.4733 141.212 88.352 142.061 88.352H149.237C150.104 88.352 150.771 88.4733 151.239 88.716C151.707 88.9587 152.036 89.262 152.227 89.626C152.435 89.99 152.556 90.3627 152.591 90.744C152.643 91.108 152.669 91.42 152.669 91.68V96.672C152.669 96.984 152.643 97.3307 152.591 97.712C152.556 98.0933 152.435 98.4573 152.227 98.804C152.019 99.1507 151.681 99.4367 151.213 99.662C150.745 99.8873 150.086 100 149.237 100H142.061ZM143.049 97.764H148.249C149.098 97.764 149.523 97.4173 149.523 96.724V91.628C149.523 90.9347 149.098 90.588 148.249 90.588H143.049C142.217 90.588 141.801 90.9347 141.801 91.628V96.724C141.801 97.4173 142.217 97.764 143.049 97.764ZM155.52 100V88.352H157.652L158.302 88.664C158.805 88.5773 159.42 88.508 160.148 88.456C160.876 88.3867 161.743 88.352 162.748 88.352H164.048C164.551 88.352 165.036 88.4213 165.504 88.56C165.972 88.6813 166.319 88.8633 166.544 89.106C166.995 88.8807 167.619 88.6987 168.416 88.56C169.213 88.4213 170.253 88.352 171.536 88.352H172.836C173.703 88.352 174.37 88.4733 174.838 88.716C175.306 88.9587 175.635 89.262 175.826 89.626C176.034 89.99 176.155 90.3627 176.19 90.744C176.242 91.108 176.268 91.42 176.268 91.68V100H173.096V91.628C173.096 90.9347 172.68 90.588 171.848 90.588H168.208C167.931 90.588 167.74 90.6227 167.636 90.692C167.532 90.7613 167.48 90.9173 167.48 91.16V100H164.308V91.628C164.308 90.9347 163.892 90.588 163.06 90.588H159.472C159.143 90.588 158.926 90.6227 158.822 90.692C158.735 90.744 158.692 90.9 158.692 91.16V100H155.52ZM181.106 86.714C180.465 86.714 179.997 86.584 179.702 86.324C179.408 86.064 179.26 85.6307 179.26 85.024C179.26 84.4 179.399 83.9667 179.676 83.724C179.971 83.464 180.448 83.334 181.106 83.334C181.765 83.334 182.242 83.464 182.536 83.724C182.831 83.9667 182.978 84.4 182.978 85.024C182.978 85.6133 182.831 86.0467 182.536 86.324C182.242 86.584 181.765 86.714 181.106 86.714ZM179.52 100V88.352H182.692V100H179.52Z" fill="#FF0083"/>
</svg>
