<svg width="42" height="42" viewBox="0 0 42 42" fill="none" xmlns="http://www.w3.org/2000/svg">
<circle cx="21" cy="21" r="20.5" fill="white" stroke="url(#paint0_linear_36_2320)"/>
<path d="M20.9978 16.8952C18.7264 16.8952 16.8932 18.7285 16.8932 21C16.8932 23.2715 18.7264 25.1048 20.9978 25.1048C23.2693 25.1048 25.1025 23.2715 25.1025 21C25.1025 18.7285 23.2693 16.8952 20.9978 16.8952ZM20.9978 23.6678C19.5289 23.6678 18.3301 22.469 18.3301 21C18.3301 19.531 19.5289 18.3322 20.9978 18.3322C22.4668 18.3322 23.6656 19.531 23.6656 21C23.6656 22.469 22.4668 23.6678 20.9978 23.6678ZM25.2707 15.7705C24.7403 15.7705 24.312 16.1988 24.312 16.7291C24.312 17.2595 24.7403 17.6878 25.2707 17.6878C25.801 17.6878 26.2293 17.2615 26.2293 16.7291C26.2294 16.6032 26.2048 16.4784 26.1566 16.3621C26.1085 16.2457 26.0379 16.1399 25.9489 16.0509C25.8598 15.9618 25.7541 15.8912 25.6377 15.8431C25.5213 15.795 25.3966 15.7703 25.2707 15.7705ZM28.9991 21C28.9991 19.8953 29.0091 18.8005 28.9471 17.6978C28.885 16.4169 28.5928 15.2801 27.6562 14.3435C26.7176 13.4049 25.5829 13.1147 24.302 13.0526C23.1973 12.9906 22.1026 13.0006 20.9999 13.0006C19.8951 13.0006 18.8004 12.9906 17.6977 13.0526C16.4168 13.1147 15.2801 13.4069 14.3435 14.3435C13.4049 15.2821 13.1147 16.4169 13.0526 17.6978C12.9906 18.8025 13.0006 19.8973 13.0006 21C13.0006 22.1027 12.9906 23.1995 13.0526 24.3022C13.1147 25.5831 13.4069 26.7199 14.3435 27.6565C15.2821 28.5951 16.4168 28.8853 17.6977 28.9474C18.8024 29.0094 19.8971 28.9994 20.9999 28.9994C22.1046 28.9994 23.1993 29.0094 24.302 28.9474C25.5829 28.8853 26.7196 28.5931 27.6562 27.6565C28.5948 26.7179 28.885 25.5831 28.9471 24.3022C29.0111 23.1995 28.9991 22.1047 28.9991 21ZM27.238 25.7192C27.0919 26.0834 26.9157 26.3556 26.6336 26.6358C26.3514 26.918 26.0812 27.0941 25.717 27.2402C24.6643 27.6585 22.1646 27.5644 20.9978 27.5644C19.8311 27.5644 17.3294 27.6585 16.2767 27.2422C15.9125 27.0961 15.6403 26.92 15.3601 26.6378C15.078 26.3556 14.9018 26.0854 14.7557 25.7212C14.3395 24.6665 14.4335 22.1668 14.4335 21C14.4335 19.8332 14.3395 17.3315 14.7557 16.2788C14.9018 15.9146 15.078 15.6424 15.3601 15.3622C15.6423 15.082 15.9125 14.9039 16.2767 14.7578C17.3294 14.3415 19.8311 14.4356 20.9978 14.4356C22.1646 14.4356 24.6663 14.3415 25.719 14.7578C26.0832 14.9039 26.3554 15.08 26.6356 15.3622C26.9177 15.6444 27.0939 15.9146 27.24 16.2788C27.6562 17.3315 27.5622 19.8332 27.5622 21C27.5622 22.1668 27.6562 24.6665 27.238 25.7192Z" fill="url(#paint1_linear_36_2320)"/>
<defs>
<linearGradient id="paint0_linear_36_2320" x1="21" y1="0" x2="21" y2="42" gradientUnits="userSpaceOnUse">
<stop stop-color="#FF0083"/>
<stop offset="1" stop-color="#FF0083"/>
</linearGradient>
<linearGradient id="paint1_linear_36_2320" x1="21" y1="13" x2="21" y2="29" gradientUnits="userSpaceOnUse">
<stop stop-color="#FF0083"/>
<stop offset="1" stop-color="#FF0083"/>
</linearGradient>
</defs>
</svg>
