<svg width="38" height="39" viewBox="0 0 38 39" fill="none" xmlns="http://www.w3.org/2000/svg">
<path d="M37.9997 19.9727C38.0138 22.4627 37.5328 24.931 36.5843 27.2355C35.6358 29.5401 34.2386 31.6355 32.4729 33.4012C30.7072 35.1669 28.6079 36.5681 26.2957 37.5243C23.9836 38.4804 21.5041 38.9727 19 38.9727C16.4959 38.9727 14.0164 38.4804 11.7043 37.5243C9.39211 36.5681 7.29282 35.1669 5.52713 33.4012C3.76144 31.6355 2.36418 29.5401 1.41569 27.2355C0.467191 24.931 -0.0138228 22.4627 0.000302295 19.9727C-0.0138228 17.4826 0.467191 15.0143 1.41569 12.7098C2.36418 10.4052 3.76144 8.30986 5.52713 6.54415C7.29282 4.77843 9.39211 3.3772 11.7043 2.42105C14.0164 1.46489 16.4959 0.972656 19 0.972656C21.5041 0.972656 23.9836 1.46489 26.2957 2.42105C28.6079 3.3772 30.7072 4.77843 32.4729 6.54415C34.2386 8.30986 35.6358 10.4052 36.5843 12.7098C37.5328 15.0143 38.0138 17.4826 37.9997 19.9727Z" fill="white"/>
<path d="M12.0002 13L25.7473 27.1713" stroke="url(#paint0_linear_8_2797)" stroke-width="4" stroke-linecap="round"/>
<path d="M25.7473 13L12.0002 27.1713" stroke="url(#paint1_linear_8_2797)" stroke-width="4" stroke-linecap="round"/>
<defs>
<linearGradient id="paint0_linear_8_2797" x1="18.8738" y1="13" x2="18.8738" y2="27.1713" gradientUnits="userSpaceOnUse">
<stop stop-color="#8A56E1"/>
<stop offset="1" stop-color="#D836F9"/>
</linearGradient>
<linearGradient id="paint1_linear_8_2797" x1="18.8738" y1="13" x2="18.8738" y2="27.1713" gradientUnits="userSpaceOnUse">
<stop stop-color="#8A56E1"/>
<stop offset="1" stop-color="#D836F9"/>
</linearGradient>
</defs>
</svg>
