<svg width="42" height="42" viewBox="0 0 42 42" fill="none" xmlns="http://www.w3.org/2000/svg">
<circle cx="21" cy="21" r="20.5" fill="white" stroke="url(#paint0_linear_36_2323)"/>
<path d="M14.923 16.8525C15.985 16.8525 16.846 15.9901 16.846 14.9263C16.846 13.8624 15.985 13 14.923 13C13.861 13 13 13.8624 13 14.9263C13 15.9901 13.861 16.8525 14.923 16.8525Z" fill="url(#paint1_linear_36_2323)"/>
<path d="M18.6617 18.3122V28.9991H21.9742V23.7142C21.9742 22.3197 22.2361 20.9692 23.9623 20.9692C25.6647 20.9692 25.6857 22.5636 25.6857 23.8022V29H29V23.1393C29 20.2605 28.3813 18.0481 25.0222 18.0481C23.4094 18.0481 22.3284 18.9346 21.8863 19.7736H21.8415V18.3122H18.6617ZM13.2637 18.3122H16.5814V28.9991H13.2637V18.3122Z" fill="url(#paint2_linear_36_2323)"/>
<defs>
<linearGradient id="paint0_linear_36_2323" x1="21" y1="0" x2="21" y2="42" gradientUnits="userSpaceOnUse">
<stop stop-color="#FF0083"/>
<stop offset="1" stop-color="#FF0083"/>
</linearGradient>
<linearGradient id="paint1_linear_36_2323" x1="21" y1="13" x2="21" y2="29" gradientUnits="userSpaceOnUse">
<stop stop-color="#FF0083"/>
<stop offset="1" stop-color="#FF0083"/>
</linearGradient>
<linearGradient id="paint2_linear_36_2323" x1="21" y1="13" x2="21" y2="29" gradientUnits="userSpaceOnUse">
<stop stop-color="#FF0083"/>
<stop offset="1" stop-color="#FF0083"/>
</linearGradient>
</defs>
</svg>
