<svg width="267" height="50" viewBox="0 0 267 50" fill="none" xmlns="http://www.w3.org/2000/svg">
<path d="M0 8.5034C0 3.8071 3.8071 0 8.5034 0H41.4966C46.1929 0 50 3.8071 50 8.5034V41.4966C50 46.1929 46.1929 50 41.4966 50H8.5034C3.8071 50 0 46.1929 0 41.4966V8.5034Z" fill="#24315C"/>
<path fill-rule="evenodd" clip-rule="evenodd" d="M19.3877 10.8848C14.6914 10.8848 10.8843 14.6919 10.8843 19.3882V30.6127C10.8843 35.309 14.6914 39.1161 19.3877 39.1161H30.6122C35.3085 39.1161 39.1156 35.309 39.1156 30.6127V19.3882C39.1156 14.6919 35.3085 10.8848 30.6122 10.8848H19.3877ZM18.0271 17.3474C17.6514 17.3474 17.3469 17.6519 17.3469 18.0276V31.9732C17.3469 32.3489 17.6514 32.6535 18.0271 32.6535H31.9727C32.3484 32.6535 32.653 32.3489 32.653 31.9732V18.0276C32.653 17.6519 32.3484 17.3474 31.9727 17.3474H18.0271Z" fill="#FF539B"/>
<path d="M73.3504 39.8324L66 19.6328H69.5911L74.6973 33.6321L79.8031 19.6328H83.2258L88.3601 33.6321L93.4662 19.6328H97.0571L89.7067 39.8324H86.9854L81.5146 24.823L76.0439 39.8324H73.3504Z" fill="#FF0083"/>
<path d="M101.401 39.8315C100.709 39.8315 100.082 39.6631 99.5212 39.3266C98.9601 38.9713 98.5018 38.5131 98.1465 37.9519C97.8097 37.3908 97.6416 36.7642 97.6416 36.0723V27.3191C97.6416 26.627 97.8097 26.0003 98.1465 25.4392C98.5018 24.8781 98.9601 24.4294 99.5212 24.0926C100.082 23.7372 100.709 23.5596 101.401 23.5596H110.406C111.117 23.5596 111.753 23.7372 112.315 24.0926C112.875 24.4294 113.324 24.8781 113.661 25.4392C113.998 26.0003 114.166 26.627 114.166 27.3191V36.0723C114.166 36.7642 113.998 37.3908 113.661 37.9519C113.324 38.5131 112.875 38.9713 112.315 39.3266C111.753 39.6631 111.117 39.8315 110.406 39.8315H101.401ZM101.513 36.4932H110.294C110.444 36.4932 110.566 36.4462 110.659 36.3529C110.771 36.2404 110.827 36.1097 110.827 35.9598V27.4313C110.827 27.2814 110.771 27.16 110.659 27.0663C110.566 26.9542 110.444 26.8983 110.294 26.8983H101.513C101.363 26.8983 101.232 26.9542 101.12 27.0663C101.027 27.16 100.98 27.2814 100.98 27.4313V35.9598C100.98 36.1097 101.027 36.2404 101.12 36.3529C101.232 36.4462 101.363 36.4932 101.513 36.4932Z" fill="#FF0083"/>
<path d="M116.013 39.8315V27.3191C116.013 26.627 116.181 26.0003 116.518 25.4392C116.873 24.8781 117.331 24.4294 117.893 24.0926C118.472 23.7372 119.099 23.5596 119.772 23.5596H128.834V26.8983H119.884C119.735 26.8983 119.604 26.9542 119.492 27.0663C119.398 27.16 119.351 27.2814 119.351 27.4313V39.8315H116.013Z" fill="#FF0083"/>
<path d="M133.412 39.8319C132.72 39.8319 132.084 39.6635 131.504 39.327C130.943 38.9717 130.494 38.5134 130.157 37.9523C129.82 37.3912 129.652 36.7645 129.652 36.0727V27.3195C129.652 26.6273 129.82 26.0007 130.157 25.4396C130.494 24.8784 130.943 24.4298 131.504 24.093C132.084 23.7376 132.72 23.56 133.412 23.56H142.866V18.2295H146.205V39.8319H133.412ZM133.552 36.4935H142.333C142.483 36.4935 142.604 36.4466 142.698 36.3533C142.81 36.2408 142.866 36.1101 142.866 35.9602V27.4317C142.866 27.2818 142.81 27.1604 142.698 27.0667C142.604 26.9546 142.483 26.8986 142.333 26.8986H133.552C133.402 26.8986 133.271 26.9546 133.159 27.0667C133.065 27.1604 133.019 27.2818 133.019 27.4317V35.9602C133.019 36.1101 133.065 36.2408 133.159 36.3533C133.271 36.4466 133.402 36.4935 133.552 36.4935Z" fill="#FF0083"/>
<path d="M152.265 39.8315C151.573 39.8315 150.946 39.6631 150.385 39.3266C149.824 38.9713 149.366 38.5131 149.011 37.9519C148.674 37.3908 148.505 36.7642 148.505 36.0723V35.5393H151.844V35.9598C151.844 36.1097 151.891 36.2404 151.984 36.3529C152.097 36.4462 152.228 36.4932 152.377 36.4932H161.158C161.308 36.4932 161.43 36.4462 161.523 36.3529C161.635 36.2404 161.691 36.1097 161.691 35.9598V33.884C161.691 33.753 161.635 33.6408 161.523 33.5472C161.43 33.435 161.308 33.3788 161.158 33.3788H152.265C151.573 33.3788 150.946 33.2107 150.385 32.8739C149.824 32.5186 149.366 32.0603 149.011 31.4992C148.674 30.9381 148.505 30.3114 148.505 29.6196V27.3191C148.505 26.627 148.674 26.0003 149.011 25.4392C149.366 24.8781 149.824 24.4294 150.385 24.0926C150.946 23.7372 151.573 23.5596 152.265 23.5596H161.271C161.981 23.5596 162.617 23.7372 163.178 24.0926C163.739 24.4294 164.188 24.8781 164.525 25.4392C164.88 26.0003 165.058 26.627 165.058 27.3191V27.8521H161.691V27.4313C161.691 27.2814 161.635 27.16 161.523 27.0663C161.43 26.9542 161.308 26.8983 161.158 26.8983H152.377C152.228 26.8983 152.097 26.9542 151.984 27.0663C151.891 27.16 151.844 27.2814 151.844 27.4313V29.5074C151.844 29.6381 151.891 29.7599 151.984 29.872C152.097 29.9657 152.228 30.0123 152.377 30.0123H161.271C161.981 30.0123 162.617 30.19 163.178 30.5453C163.739 30.8821 164.188 31.3308 164.525 31.8919C164.88 32.4531 165.058 33.0797 165.058 33.7715V36.0723C165.058 36.7642 164.88 37.3908 164.525 37.9519C164.188 38.5131 163.739 38.9713 163.178 39.3266C162.617 39.6631 161.981 39.8315 161.271 39.8315H152.265Z" fill="#FF0083"/>
<path d="M167.346 39.8325V36.4941H170.684V39.8325H167.346Z" fill="#FF0083"/>
<path d="M199.464 36.6242C199.519 36.5685 199.575 36.5407 199.63 36.5407C199.714 36.5407 199.783 36.5963 199.839 36.7076C199.894 36.791 199.88 36.874 199.797 36.9574C198.853 38.0685 198.005 38.8879 197.256 39.4154C196.534 39.9433 195.811 40.2073 195.089 40.2073C194.534 40.2073 194.131 40.0545 193.881 39.7487C193.631 39.4154 193.506 38.9016 193.506 38.2075C193.506 37.7352 193.575 37.0409 193.714 36.1244L194.922 29.5C195.061 28.5832 195.131 27.8614 195.131 27.3335C195.131 25.8338 194.645 25.0838 193.673 25.0838C192.867 25.0838 192.02 25.6114 191.131 26.6669C190.27 27.6946 189.437 29.2361 188.631 31.2914C187.826 33.319 187.159 35.7355 186.632 38.5408L186.465 39.4573C186.437 39.6794 186.285 39.8462 186.007 39.9571C185.729 40.0961 185.34 40.1654 184.84 40.1654C184.118 40.1654 183.757 40.0683 183.757 39.874C183.785 39.7072 183.868 39.2768 184.007 38.5824C184.174 37.888 184.299 37.277 184.382 36.7491L185.757 29.4582C185.868 28.7916 185.923 28.125 185.923 27.4584C185.923 25.8753 185.437 25.0838 184.465 25.0838C183.66 25.0838 182.799 25.6392 181.882 26.7503C180.993 27.8614 180.146 29.4722 179.341 31.5832C178.535 33.6939 177.883 36.1659 177.383 38.9991L177.299 39.4573C177.16 39.9293 176.605 40.1654 175.633 40.1654C174.911 40.1654 174.55 40.0683 174.55 39.874L174.758 38.9157L175.175 36.874L176.883 27.4584C176.966 27.042 177.008 26.6947 177.008 26.417C177.008 25.5558 176.744 25.1253 176.216 25.1253C175.549 25.1253 174.633 25.7363 173.466 26.9586C173.439 26.9864 173.397 27.0002 173.341 27.0002C173.258 27.0002 173.189 26.9586 173.133 26.8752C173.077 26.764 173.077 26.6809 173.133 26.6253C174.077 25.5142 174.952 24.6949 175.758 24.1673C176.563 23.6394 177.341 23.3755 178.091 23.3755C178.646 23.3755 179.049 23.5423 179.299 23.8756C179.549 24.1811 179.674 24.6812 179.674 25.3752C179.674 25.7919 179.605 26.417 179.466 27.2501L178.716 31.5832C179.66 28.9443 180.771 26.889 182.049 25.4171C183.354 23.9449 184.701 23.209 186.09 23.209C187.812 23.209 188.673 24.2782 188.673 26.417C188.673 27.028 188.59 27.778 188.423 28.6666L187.882 31.6247C188.854 28.9584 189.979 26.889 191.256 25.4171C192.562 23.9449 193.909 23.209 195.298 23.209C196.992 23.209 197.839 24.2645 197.839 26.3754C197.839 27.042 197.756 27.8195 197.589 28.7085L196.256 36.1244C196.172 36.5407 196.131 36.9018 196.131 37.2077C196.131 38.0129 196.381 38.4156 196.881 38.4156C197.158 38.4156 197.506 38.2628 197.922 37.9573C198.339 37.6518 198.853 37.2077 199.464 36.6242Z" fill="#24315C"/>
<path d="M215.575 36.6239C215.603 36.5961 215.644 36.5823 215.7 36.5823C215.783 36.5823 215.853 36.6379 215.908 36.7488C215.964 36.8322 215.964 36.9015 215.908 36.9571C214.991 38.0404 214.158 38.8598 213.408 39.4151C212.658 39.943 211.936 40.207 211.242 40.207C210.686 40.207 210.27 40.0402 209.992 39.7069C209.742 39.3736 209.617 38.846 209.617 38.1238C209.617 37.6793 209.687 37.0128 209.826 36.1241L210.492 32.1661C209.298 34.6934 207.923 36.6935 206.367 38.1654C204.812 39.6376 203.298 40.3735 201.826 40.3735C200.993 40.3735 200.34 40.1236 199.868 39.6235C199.424 39.0959 199.202 38.3044 199.202 37.2489C199.202 36.999 199.229 36.596 199.285 36.0407C199.562 34.1243 200.299 32.1661 201.493 30.1663C202.715 28.1388 204.145 26.4723 205.784 25.1669C207.423 23.8612 208.964 23.2087 210.409 23.2087C211.575 23.2087 212.52 23.5835 213.242 24.3335C213.769 23.889 214.131 23.403 214.325 22.8754C214.38 22.8198 214.436 22.792 214.492 22.792C214.575 22.792 214.658 22.8198 214.742 22.8754C214.825 22.9032 214.853 22.931 214.825 22.9588L212.408 36.1241C212.325 36.5405 212.284 36.9156 212.284 37.2489C212.284 38.0267 212.52 38.4153 212.992 38.4153C213.575 38.4153 214.436 37.8183 215.575 36.6239ZM203.701 37.9989C204.645 37.9989 205.631 37.5128 206.659 36.5404C207.715 35.5684 208.645 34.3464 209.45 32.8742C210.284 31.4024 210.839 29.9858 211.117 28.6248C211.2 28.2359 211.242 27.8611 211.242 27.5C211.242 26.6944 211.034 26.0556 210.617 25.5833C210.2 25.1113 209.603 24.8752 208.826 24.8752C207.881 24.8752 206.937 25.2641 205.992 26.0415C205.048 26.7915 204.229 27.8333 203.534 29.1664C202.84 30.4996 202.368 31.9993 202.118 33.6657C202.007 34.5547 201.951 35.1379 201.951 35.4156C201.951 37.1377 202.535 37.9989 203.701 37.9989Z" fill="#24315C"/>
<path d="M226.721 23.375C227.304 23.375 227.859 23.5834 228.387 24.0001C228.915 24.4168 229.179 24.9028 229.179 25.4582C229.179 25.8749 229.026 26.2497 228.721 26.583C228.442 26.8885 228.081 27.0416 227.637 27.0416C227.332 27.0416 227.082 26.986 226.887 26.8748C226.693 26.7357 226.485 26.5415 226.262 26.2916C226.123 26.1526 225.971 26.0276 225.804 25.9164C225.665 25.7777 225.498 25.7081 225.304 25.7081C224.748 25.7081 224.068 26.4999 223.263 28.083C222.485 29.6382 221.735 31.5131 221.013 33.7074C220.318 35.8737 219.805 37.7904 219.471 39.4568C219.416 39.6789 219.249 39.8457 218.971 39.9566C218.694 40.0956 218.319 40.165 217.846 40.165C217.124 40.165 216.763 40.0678 216.763 39.8735C216.791 39.7067 216.874 39.2763 217.013 38.5819C217.18 37.8875 217.305 37.2765 217.388 36.7486L218.888 28.5412C218.999 27.9024 219.055 27.3192 219.055 26.7913C219.055 25.6806 218.749 25.1249 218.138 25.1249C217.555 25.1249 216.736 25.6528 215.68 26.7083C215.652 26.7357 215.611 26.7498 215.555 26.7498C215.472 26.7498 215.402 26.7083 215.347 26.6249C215.291 26.5137 215.291 26.4302 215.347 26.375C216.236 25.3473 217.055 24.5973 217.805 24.125C218.555 23.6252 219.291 23.375 220.013 23.375C220.596 23.375 221.027 23.5555 221.305 23.9166C221.582 24.2777 221.721 24.8887 221.721 25.7499C221.721 26.4165 221.638 27.2774 221.471 28.3329L220.596 33.2073C221.485 30.3467 222.457 27.9996 223.512 26.1666C224.596 24.3055 225.665 23.375 226.721 23.375Z" fill="#24315C"/>
<path d="M243.791 36.7075C243.819 36.6797 243.86 36.6659 243.916 36.6659C244.027 36.6659 244.11 36.7212 244.166 36.8324C244.222 36.9158 244.222 36.9852 244.166 37.0408C242.305 39.1517 240.833 40.2072 239.75 40.2072C239.083 40.2072 238.5 40.0126 238 39.6237C237.5 39.2074 236.944 38.4711 236.333 37.4156L233.917 33.2911C233.667 32.8466 233.431 32.5552 233.209 32.4162C233.014 32.2775 232.737 32.2219 232.375 32.2497L231.042 39.4572C230.987 39.6793 230.82 39.8461 230.542 39.957C230.264 40.096 229.89 40.1654 229.417 40.1654C228.668 40.1654 228.292 40.0682 228.292 39.8739L228.459 39.0405C228.709 37.8464 228.862 37.0823 228.918 36.749L233.084 14.418C233.139 14.1681 233.167 13.8489 233.167 13.46C233.167 12.6822 232.876 12.2933 232.292 12.2933C231.848 12.2933 231.209 12.5017 230.376 12.9184H230.334C230.223 12.9184 230.14 12.8487 230.084 12.71C230.029 12.571 230.056 12.4739 230.167 12.4183L235.917 9.62695H236C236.111 9.62695 236.208 9.6685 236.292 9.7519C236.375 9.8353 236.403 9.90464 236.375 9.96025L233.334 26.7087C234.361 25.6254 235.5 24.7783 236.75 24.1673C238 23.5282 239.236 23.2089 240.458 23.2089C241.347 23.2089 241.972 23.4173 242.333 23.834C242.722 24.2504 242.916 24.7226 242.916 25.2502C242.916 26.3335 242.277 27.4027 241 28.4582C239.75 29.4859 238.028 30.4027 235.833 31.208L238.542 35.8741C239.097 36.7909 239.569 37.4156 239.958 37.7489C240.347 38.0544 240.763 38.2075 241.208 38.2075C241.93 38.2075 242.791 37.7074 243.791 36.7075ZM238.333 24.6255C237.028 24.6255 235.847 25.2224 234.792 26.4169C233.736 27.6111 232.986 29.2082 232.542 31.208L232.459 31.5831C234.847 31.0274 236.57 30.3749 237.625 29.6249C238.708 28.8471 239.347 27.8335 239.541 26.5834C239.569 26.4725 239.583 26.3198 239.583 26.1252C239.583 25.6532 239.472 25.2921 239.25 25.0419C239.028 24.7642 238.722 24.6255 238.333 24.6255Z" fill="#24315C"/>
<path d="M253 23.209C253.972 23.209 254.722 23.3895 255.25 23.7506C255.778 24.0839 256.041 24.5422 256.041 25.1253C256.041 26.4307 255.083 27.6252 253.167 28.7085C251.278 29.7637 248.987 30.5277 246.292 30.9997C246.181 31.6663 246.126 32.3885 246.126 33.1663C246.126 34.8605 246.487 36.2215 247.209 37.2492C247.959 38.2769 249.042 38.7907 250.459 38.7907C251.986 38.7907 253.334 38.3325 254.5 37.4157H254.542C254.625 37.4157 254.694 37.4575 254.75 37.5409C254.833 37.624 254.847 37.7074 254.792 37.7908C252.82 39.4851 250.75 40.3322 248.584 40.3322C246.751 40.3322 245.376 39.7628 244.46 38.6239C243.543 37.4853 243.084 36.0132 243.084 34.2077C243.084 33.5967 243.154 32.9023 243.293 32.1248C243.571 30.6805 244.168 29.2776 245.084 27.9166C246.029 26.5282 247.195 25.403 248.584 24.5422C249.973 23.6535 251.445 23.209 253 23.209ZM252.75 26.3336C252.806 26.0559 252.833 25.8753 252.833 25.7919C252.833 25.32 252.653 24.9589 252.292 24.7087C251.958 24.4588 251.542 24.3338 251.042 24.3338C249.903 24.3338 248.931 24.9033 248.126 26.0418C247.32 27.1529 246.737 28.611 246.376 30.4165C250.209 29.6943 252.334 28.3333 252.75 26.3336Z" fill="#24315C"/>
<path d="M266.693 23.8345C266.805 23.8345 266.888 23.876 266.943 23.9594C266.999 24.0425 267.013 24.14 266.985 24.2508C266.902 24.5285 266.721 24.8344 266.444 25.1677C266.166 25.5009 265.888 25.6674 265.61 25.6674C265.471 25.6674 264.944 25.5981 264.027 25.4591C263.138 25.3204 262.222 25.237 261.277 25.2092L259.444 35.4164C259.361 35.8331 259.319 36.2079 259.319 36.5412C259.319 37.2356 259.486 37.7494 259.819 38.0827C260.153 38.3885 260.68 38.5413 261.402 38.5413C262.069 38.5413 262.694 38.4023 263.277 38.1246C263.888 37.8191 264.555 37.3746 265.277 36.7914H265.319C265.402 36.7914 265.485 36.8329 265.569 36.9163C265.652 36.9997 265.666 37.0691 265.61 37.1247C264.36 38.2633 263.249 39.0826 262.277 39.5827C261.333 40.0828 260.416 40.3327 259.527 40.3327C258.639 40.3327 257.917 40.1243 257.361 39.7076C256.806 39.2631 256.528 38.5272 256.528 37.4995C256.528 37.333 256.556 36.9997 256.611 36.4996L258.361 27.084C258.472 26.6117 258.528 26.1813 258.528 25.7924C258.528 25.4035 258.416 25.1536 258.194 25.0424C257.972 24.9037 257.556 24.8344 256.945 24.8344C256.861 24.8344 256.82 24.7647 256.82 24.626C256.82 24.5426 256.833 24.4592 256.861 24.3758C256.917 24.2927 256.958 24.2508 256.986 24.2508C258.014 24.2508 258.903 23.9454 259.652 23.3344C260.43 22.6956 260.986 21.89 261.319 20.9179C261.319 20.8345 261.416 20.793 261.611 20.793C261.722 20.793 261.819 20.8208 261.902 20.8764C262.013 20.9042 262.055 20.932 262.027 20.9598L261.444 24.1678C262.111 24.14 262.75 24.1122 263.361 24.0844C263.972 24.0288 264.527 23.9872 265.027 23.9594C265.833 23.876 266.388 23.8345 266.693 23.8345Z" fill="#24315C"/>
</svg>
