<svg width="51" height="50" viewBox="0 0 51 50" fill="none" xmlns="http://www.w3.org/2000/svg">
<circle cx="25.5" cy="25" r="25" fill="white"/>
<mask id="mask0_16_7711" style="mask-type:alpha" maskUnits="userSpaceOnUse" x="0" y="0" width="51" height="50">
<circle cx="25.5" cy="25" r="25" fill="white"/>
</mask>
<g mask="url(#mask0_16_7711)">
<path d="M37.3823 12.4257L27.0391 20.1077L28.9518 15.5754L37.3823 12.4257Z" fill="#E2761B" stroke="#E2761B" stroke-linecap="round" stroke-linejoin="round"/>
<path d="M13.5046 12.4257L23.7647 20.1805L21.9456 15.5754L13.5046 12.4257Z" fill="#E4761B" stroke="#E4761B" stroke-linecap="round" stroke-linejoin="round"/>
<path d="M33.661 30.2326L30.9062 34.4531L36.8003 36.0747L38.4948 30.3262L33.661 30.2326Z" fill="#E4761B" stroke="#E4761B" stroke-linecap="round" stroke-linejoin="round"/>
<path d="M12.4131 30.3262L14.0971 36.0747L19.9912 34.4531L17.2365 30.2326L12.4131 30.3262Z" fill="#E4761B" stroke="#E4761B" stroke-linecap="round" stroke-linejoin="round"/>
<path d="M19.6588 23.1017L18.0164 25.5861L23.8689 25.846L23.661 19.5569L19.6588 23.1017Z" fill="#E4761B" stroke="#E4761B" stroke-linecap="round" stroke-linejoin="round"/>
<path d="M31.2283 23.1015L27.1742 19.4839L27.0391 25.8458L32.8812 25.5859L31.2283 23.1015Z" fill="#E4761B" stroke="#E4761B" stroke-linecap="round" stroke-linejoin="round"/>
<path d="M19.9912 34.4531L23.5048 32.7378L20.4694 30.3677L19.9912 34.4531Z" fill="#E4761B" stroke="#E4761B" stroke-linecap="round" stroke-linejoin="round"/>
<path d="M27.3818 32.7378L30.9058 34.4531L30.4172 30.3677L27.3818 32.7378Z" fill="#E4761B" stroke="#E4761B" stroke-linecap="round" stroke-linejoin="round"/>
<path d="M30.9061 34.4531L27.3821 32.7379L27.6628 35.0352L27.6316 36.0019L30.9061 34.4531Z" fill="#D7C1B3" stroke="#D7C1B3" stroke-linecap="round" stroke-linejoin="round"/>
<path d="M19.9912 34.4532L23.2657 36.0021L23.2449 35.0353L23.5048 32.738L19.9912 34.4532Z" fill="#D7C1B3" stroke="#D7C1B3" stroke-linecap="round" stroke-linejoin="round"/>
<path d="M23.3182 28.8502L20.3867 27.9874L22.4554 27.0414L23.3182 28.8502Z" fill="#233447" stroke="#233447" stroke-linecap="round" stroke-linejoin="round"/>
<path d="M27.5698 28.8502L28.4326 27.0414L30.5117 27.9874L27.5698 28.8502Z" fill="#233447" stroke="#233447" stroke-linecap="round" stroke-linejoin="round"/>
<path d="M19.9915 34.4532L20.4905 30.2328L17.2368 30.3263L19.9915 34.4532Z" fill="#CD6116" stroke="#CD6116" stroke-linecap="round" stroke-linejoin="round"/>
<path d="M30.4075 30.2328L30.9064 34.4532L33.6612 30.3263L30.4075 30.2328Z" fill="#CD6116" stroke="#CD6116" stroke-linecap="round" stroke-linejoin="round"/>
<path d="M32.8812 25.5861L27.0391 25.846L27.5796 28.8502L28.4424 27.0415L30.5215 27.9874L32.8812 25.5861Z" fill="#CD6116" stroke="#CD6116" stroke-linecap="round" stroke-linejoin="round"/>
<path d="M20.3867 27.9874L22.4658 27.0415L23.3182 28.8502L23.8691 25.846L18.0166 25.5861L20.3867 27.9874Z" fill="#CD6116" stroke="#CD6116" stroke-linecap="round" stroke-linejoin="round"/>
<path d="M18.0164 25.5862L20.4696 30.368L20.3865 27.9875L18.0164 25.5862Z" fill="#E4751F" stroke="#E4751F" stroke-linecap="round" stroke-linejoin="round"/>
<path d="M30.5212 27.9874L30.4172 30.3679L32.8809 25.5861L30.5212 27.9874Z" fill="#E4751F" stroke="#E4751F" stroke-linecap="round" stroke-linejoin="round"/>
<path d="M23.8686 25.8461L23.3176 28.8503L24.0037 32.3951L24.1596 27.7276L23.8686 25.8461Z" fill="#E4751F" stroke="#E4751F" stroke-linecap="round" stroke-linejoin="round"/>
<path d="M27.0392 25.8461L26.7585 27.7172L26.8833 32.3951L27.5798 28.8503L27.0392 25.8461Z" fill="#E4751F" stroke="#E4751F" stroke-linecap="round" stroke-linejoin="round"/>
<path d="M27.5798 28.85L26.8833 32.3948L27.3823 32.7379L30.4177 30.3677L30.5216 27.9872L27.5798 28.85Z" fill="#F6851B" stroke="#F6851B" stroke-linecap="round" stroke-linejoin="round"/>
<path d="M20.3867 27.9872L20.4699 30.3677L23.5053 32.7379L24.0043 32.3948L23.3182 28.85L20.3867 27.9872Z" fill="#F6851B" stroke="#F6851B" stroke-linecap="round" stroke-linejoin="round"/>
<path d="M27.6317 36.002L27.6629 35.0353L27.403 34.8066H23.484L23.2449 35.0353L23.2657 36.002L19.9912 34.4531L21.1347 35.3887L23.4528 37H27.4342L29.7627 35.3887L30.9062 34.4531L27.6317 36.002Z" fill="#C0AD9E" stroke="#C0AD9E" stroke-linecap="round" stroke-linejoin="round"/>
<path d="M27.3824 32.7379L26.8834 32.3949H24.004L23.505 32.7379L23.2451 35.0353L23.4842 34.8066H27.4032L27.6631 35.0353L27.3824 32.7379Z" fill="#161616" stroke="#161616" stroke-linecap="round" stroke-linejoin="round"/>
<path d="M37.8194 20.6067L38.7029 16.3654L37.3828 12.4257L27.3826 19.8478L31.2288 23.1015L36.6655 24.692L37.8713 23.2887L37.3516 22.9144L38.1832 22.1556L37.5387 21.6566L38.3703 21.0225L37.8194 20.6067Z" fill="#763D16" stroke="#763D16" stroke-linecap="round" stroke-linejoin="round"/>
<path d="M12.1951 16.3657L13.0787 20.6069L12.5173 21.0227L13.3489 21.6569L12.7148 22.1558L13.5464 22.9147L13.0267 23.2889L14.2221 24.6923L19.6588 23.1018L23.5051 19.8481L13.5049 12.4259L12.1951 16.3657Z" fill="#763D16" stroke="#763D16" stroke-linecap="round" stroke-linejoin="round"/>
<path d="M36.665 24.692L31.2283 23.1016L32.8811 25.586L30.4175 30.3678L33.6608 30.3262H38.4946L36.665 24.692Z" fill="#F6851B" stroke="#F6851B" stroke-linecap="round" stroke-linejoin="round"/>
<path d="M19.6585 23.1016L14.2219 24.692L12.4131 30.3262H17.2365L20.4694 30.3678L18.0161 25.586L19.6585 23.1016Z" fill="#F6851B" stroke="#F6851B" stroke-linecap="round" stroke-linejoin="round"/>
<path d="M27.039 25.846L27.382 19.848L28.9621 15.5756H21.9453L23.5046 19.848L23.8684 25.846L23.9932 27.738L24.0036 32.395H26.883L26.9038 27.738L27.039 25.846Z" fill="#F6851B" stroke="#F6851B" stroke-linecap="round" stroke-linejoin="round"/>
</g>
</svg>
