<svg width="42" height="42" viewBox="0 0 42 42" fill="none" xmlns="http://www.w3.org/2000/svg">
<circle cx="21" cy="21" r="20.5" fill="white" stroke="url(#paint0_linear_36_2317)"/>
<path d="M31 14.8979C30.2645 15.2186 29.4744 15.4353 28.6438 15.5333C29.5008 15.0286 30.142 14.2343 30.4477 13.2986C29.6425 13.7693 28.7612 14.1006 27.8422 14.2781C27.2242 13.6288 26.4057 13.1984 25.5136 13.0537C24.6216 12.9091 23.706 13.0583 22.909 13.4783C22.1119 13.8982 21.4781 14.5654 21.1058 15.3761C20.7336 16.1869 20.6437 17.0959 20.8503 17.9621C19.2187 17.8814 17.6226 17.4641 16.1655 16.7372C14.7085 16.0102 13.423 14.9899 12.3926 13.7424C12.0403 14.3405 11.8377 15.034 11.8377 15.7725C11.8373 16.4373 12.0036 17.092 12.322 17.6784C12.6404 18.2648 13.1009 18.7648 13.6627 19.134C13.0112 19.1136 12.374 18.9403 11.8042 18.6286V18.6806C11.8041 19.6131 12.1319 20.5169 12.7319 21.2386C13.3318 21.9603 14.1671 22.4555 15.0958 22.6402C14.4914 22.8012 13.8577 22.8249 13.2426 22.7096C13.5046 23.5119 14.0151 24.2135 14.7024 24.7162C15.3898 25.2188 16.2197 25.4974 17.0759 25.5128C15.6224 26.6357 13.8273 27.2448 11.9795 27.2421C11.6521 27.2422 11.3251 27.2234 11 27.1858C12.8757 28.3726 15.0591 29.0024 17.2891 29C24.8378 29 28.9644 22.8474 28.9644 17.5113C28.9644 17.338 28.96 17.1629 28.9521 16.9895C29.7548 16.4183 30.4476 15.7109 30.9982 14.9005L31 14.8979Z" fill="url(#paint1_linear_36_2317)"/>
<defs>
<linearGradient id="paint0_linear_36_2317" x1="21" y1="0" x2="21" y2="42" gradientUnits="userSpaceOnUse">
<stop stop-color="#FF0083"/>
<stop offset="1" stop-color="#FF0083"/>
</linearGradient>
<linearGradient id="paint1_linear_36_2317" x1="21" y1="13" x2="21" y2="29" gradientUnits="userSpaceOnUse">
<stop stop-color="#FF0083"/>
<stop offset="1" stop-color="#FF0083"/>
</linearGradient>
</defs>
</svg>
