<svg width="60" height="60" viewBox="0 0 60 60" fill="none" xmlns="http://www.w3.org/2000/svg">
<circle cx="30" cy="30" r="30" fill="#F4F2F2"/>
<path fill-rule="evenodd" clip-rule="evenodd" d="M21.8179 44.4774L26.8982 45.8253V44.0627L27.3129 43.6479H30.2159V45.7215V47.173H27.1056L23.2694 45.5142L21.8179 44.4774Z" fill="#CDBDB2"/>
<path fill-rule="evenodd" clip-rule="evenodd" d="M38.4067 44.4774L33.4302 45.8253V44.0627L33.0155 43.6479H30.1125V45.7215V47.173H33.2228L37.0588 45.5142L38.4067 44.4774Z" fill="#CDBDB2"/>
<path fill-rule="evenodd" clip-rule="evenodd" d="M27.3132 40.6418L26.8984 44.0631L27.4167 43.6484H32.808L33.4301 44.0631L33.0154 40.6418L32.1859 40.1233L28.0388 40.2271L27.3132 40.6418Z" fill="#393939"/>
<path fill-rule="evenodd" clip-rule="evenodd" d="M24.5137 17.5208L27.002 23.3267L28.1425 40.2264H32.1859L33.43 23.3267L35.7109 17.5208H24.5137Z" fill="#F89C35"/>
<path fill-rule="evenodd" clip-rule="evenodd" d="M13.6276 30.2744L10.7246 38.6723L17.9821 38.2576H22.6475V34.6289L22.4402 27.1641L21.4034 27.9935L13.6276 30.2744Z" fill="#F89D35"/>
<path fill-rule="evenodd" clip-rule="evenodd" d="M19.1226 31.2063L27.6242 31.4137L26.6912 35.7682L22.6476 34.7314L19.1226 31.2063Z" fill="#D87C30"/>
<path fill-rule="evenodd" clip-rule="evenodd" d="M19.1226 31.311L22.6476 34.6287V37.9465L19.1226 31.311Z" fill="#EA8D3A"/>
<path fill-rule="evenodd" clip-rule="evenodd" d="M22.6475 34.7322L26.7946 35.769L28.1425 40.2272L27.2093 40.7455L22.6475 38.0499V34.7322Z" fill="#F89D35"/>
<path fill-rule="evenodd" clip-rule="evenodd" d="M22.6473 38.0498L21.8179 44.4779L27.3129 40.6419L22.6473 38.0498Z" fill="#EB8F35"/>
<path fill-rule="evenodd" clip-rule="evenodd" d="M27.6242 31.4146L28.1427 40.2273L26.5874 35.7173L27.6242 31.4146Z" fill="#EA8E3A"/>
<path fill-rule="evenodd" clip-rule="evenodd" d="M17.8784 38.1536L22.6476 38.0498L21.8182 44.4779L17.8784 38.1536Z" fill="#D87C30"/>
<path fill-rule="evenodd" clip-rule="evenodd" d="M13.0055 47.277L21.8181 44.4776L17.8783 38.1533L10.7246 38.6716L13.0055 47.277Z" fill="#EB8F35"/>
<path fill-rule="evenodd" clip-rule="evenodd" d="M27.0021 23.3279L22.544 27.0603L19.1226 31.2074L27.6242 31.5186L27.0021 23.3279Z" fill="#E8821E"/>
<path fill-rule="evenodd" clip-rule="evenodd" d="M21.8179 44.4779L27.3129 40.6418L26.8982 43.9596V45.8258L23.1658 45.0999L21.8179 44.4779Z" fill="#DFCEC3"/>
<path fill-rule="evenodd" clip-rule="evenodd" d="M38.4067 44.4779L33.0155 40.6418L33.4302 43.9596V45.8258L37.1626 45.0999L38.4067 44.4779Z" fill="#DFCEC3"/>
<path fill-rule="evenodd" clip-rule="evenodd" d="M25.3433 33.2798L26.4839 35.6645L22.4403 34.6277L25.3433 33.2798Z" fill="#393939"/>
<path fill-rule="evenodd" clip-rule="evenodd" d="M12.9019 12.6482L27.0021 23.327L24.6176 17.521L12.9019 12.6482Z" fill="#E88F35"/>
<path fill-rule="evenodd" clip-rule="evenodd" d="M12.9019 12.6482L11.0356 18.3505L12.0724 24.5712L11.3467 24.9859L12.3835 25.919L11.554 26.6448L12.6945 27.6816L11.9688 28.3036L13.6276 30.3772L21.4035 27.9926C25.205 24.9514 27.0712 23.3962 27.0021 23.3271C26.933 23.258 22.2329 19.6983 12.9019 12.6482Z" fill="#8E5A30"/>
<path fill-rule="evenodd" clip-rule="evenodd" d="M46.597 30.2742L49.5 38.672L42.2425 38.2573H37.5771V34.6287L37.7844 27.1638L38.8212 27.9932L46.597 30.2742Z" fill="#F89D35"/>
<path fill-rule="evenodd" clip-rule="evenodd" d="M41.1021 31.207L32.6004 31.4144L33.5334 35.7689L37.577 34.7321L41.1021 31.207Z" fill="#D87C30"/>
<path fill-rule="evenodd" clip-rule="evenodd" d="M41.1021 31.3105L37.577 34.6283V37.946L41.1021 31.3105Z" fill="#EA8D3A"/>
<path fill-rule="evenodd" clip-rule="evenodd" d="M37.5771 34.7329L33.43 35.7697L32.0821 40.228L33.0153 40.7463L37.5771 38.0506V34.7329Z" fill="#F89D35"/>
<path fill-rule="evenodd" clip-rule="evenodd" d="M37.5773 38.0505L38.4067 44.4786L33.0155 40.7462L37.5773 38.0505Z" fill="#EB8F35"/>
<path fill-rule="evenodd" clip-rule="evenodd" d="M32.6004 31.4153L32.0819 40.228L33.6372 35.718L32.6004 31.4153Z" fill="#EA8E3A"/>
<path fill-rule="evenodd" clip-rule="evenodd" d="M42.3462 38.1543L37.577 38.0505L38.4064 44.4786L42.3462 38.1543Z" fill="#D87C30"/>
<path fill-rule="evenodd" clip-rule="evenodd" d="M47.2191 47.2778L38.4065 44.4783L42.3463 38.1541L49.5 38.6724L47.2191 47.2778Z" fill="#EB8F35"/>
<path fill-rule="evenodd" clip-rule="evenodd" d="M33.2225 23.3276L37.6806 27.0601L41.1021 31.2072L32.6004 31.5183L33.2225 23.3276Z" fill="#E8821E"/>
<path fill-rule="evenodd" clip-rule="evenodd" d="M34.8813 33.2805L33.7407 35.6652L37.7843 34.6284L34.8813 33.2805Z" fill="#393939"/>
<path fill-rule="evenodd" clip-rule="evenodd" d="M47.3228 12.6489L33.2225 23.3277L35.607 17.5217L47.3228 12.6489Z" fill="#E88F35"/>
<path fill-rule="evenodd" clip-rule="evenodd" d="M47.3228 12.6489L49.189 18.3512L48.1522 24.5719L48.8779 24.9867L47.8411 25.9198L48.6706 26.6455L47.5301 27.6823L48.2559 28.3044L46.597 30.3779L38.8211 27.9933C35.0196 24.9521 33.1534 23.3969 33.2225 23.3278C33.2916 23.2587 37.9917 19.6991 47.3228 12.6489Z" fill="#8E5A30"/>
</svg>
