<svg width="80" height="80" viewBox="0 0 80 80" fill="none" xmlns="http://www.w3.org/2000/svg">
<path d="M40 0C62.0934 0 80 17.9102 80 40C80 62.0934 62.0934 80 40 80C17.9102 80 0 62.0916 0 40C0 17.9102 17.9102 0 40 0Z" fill="#F5AC37"/>
<path d="M41.4742 42.8242H56.6735C56.9975 42.8242 57.1505 42.8242 57.1739 42.3994C57.2981 40.8532 57.2981 39.298 57.1739 37.75C57.1739 37.4494 57.0245 37.3252 56.6987 37.3252H26.4494C26.075 37.3252 25.9742 37.4494 25.9742 37.8004V42.25C25.9742 42.8242 25.9742 42.8242 26.5736 42.8242H41.4742ZM55.4765 32.1249C55.5197 32.0115 55.5197 31.8873 55.4765 31.7757C55.2227 31.2231 54.9221 30.6957 54.5729 30.2007C54.0473 29.3547 53.4281 28.5753 52.7225 27.8751C52.3895 27.4521 52.0043 27.0723 51.5723 26.7501C49.4086 24.9087 46.8364 23.6054 44.0716 22.9502C42.6766 22.637 41.2509 22.4876 39.8217 22.5002H26.3972C26.0228 22.5002 25.9724 22.6496 25.9724 22.9754V31.8495C25.9724 32.2239 25.9724 32.3247 26.4476 32.3247H55.2965C55.2965 32.3247 55.5467 32.2743 55.5971 32.1249H55.4747H55.4765ZM55.4765 48.0245C55.0517 47.9777 54.6233 47.9777 54.1985 48.0245H26.4746C26.1002 48.0245 25.9742 48.0245 25.9742 48.5249V57.201C25.9742 57.6006 25.9742 57.7014 26.4746 57.7014H39.2745C39.8865 57.7482 40.4985 57.705 41.0979 57.5772C42.9556 57.444 44.7826 57.0408 46.525 56.3766C47.1586 56.157 47.7706 55.8708 48.3484 55.527H48.523C51.5237 53.9663 53.9609 51.5147 55.4981 48.5051C55.4981 48.5051 55.6727 48.1271 55.4765 48.0281V48.0245ZM20.9503 62.1996V62.0502V56.2254V54.2507V48.3755C20.9503 48.0497 20.9503 48.0011 20.5507 48.0011H15.1255C14.8249 48.0011 14.7007 48.0011 14.7007 47.6015V42.8512H20.5003C20.8243 42.8512 20.9503 42.8512 20.9503 42.4264V37.7266C20.9503 37.426 20.9503 37.3522 20.5507 37.3522H15.1255C14.8249 37.3522 14.7007 37.3522 14.7007 36.9526V32.5533C14.7007 32.2779 14.7007 32.2041 15.1003 32.2041H20.4751C20.8495 32.2041 20.9503 32.2041 20.9503 31.7289V18.254C20.9503 17.8544 20.9503 17.7536 21.4508 17.7536H40.1997C41.5606 17.8076 42.9124 17.957 44.2498 18.2036C47.0056 18.713 49.6534 19.6976 52.0745 21.1034C53.6801 22.0484 55.1579 23.1896 56.4737 24.5036C57.4637 25.5315 58.3565 26.6439 59.1485 27.8283C59.9351 29.0289 60.5885 30.3123 61.1016 31.6533C61.1646 32.0025 61.4993 32.2383 61.8486 32.1789H66.3234C66.8976 32.1789 66.8976 32.1789 66.9228 32.7297V36.8302C66.9228 37.2298 66.7734 37.3306 66.372 37.3306H62.9214C62.5722 37.3306 62.4714 37.3306 62.4966 37.7806C62.6334 39.3034 62.6334 40.8316 62.4966 42.3544C62.4966 42.7792 62.4966 42.8296 62.9736 42.8296H66.921C67.0956 43.0546 66.921 43.2796 66.921 43.5064C66.9462 43.7962 66.9462 44.0896 66.921 44.3794V47.4053C66.921 47.8301 66.7968 47.9561 66.4206 47.9561H61.6956C61.3662 47.8931 61.0457 48.1037 60.9701 48.4313C59.8451 51.3563 58.0451 53.9789 55.7195 56.0814C54.8699 56.8464 53.9771 57.5664 53.0447 58.2306C52.0439 58.8066 51.07 59.406 50.044 59.8812C48.1558 60.7308 46.1758 61.3572 44.1436 61.755C42.214 62.1006 40.2573 62.2572 38.2935 62.2302H20.9431V62.205L20.9503 62.1996Z" fill="#FEFEFD"/>
</svg>
