<svg width="102" height="30" viewBox="0 0 102 30" fill="none" xmlns="http://www.w3.org/2000/svg">
<rect y="0.5" width="102" height="29" rx="14.5" fill="#36AB61"/>
<path d="M20.5 7.91675C16.597 7.91675 13.4166 11.0972 13.4166 15.0001C13.4166 18.903 16.597 22.0834 20.5 22.0834C24.4029 22.0834 27.5833 18.903 27.5833 15.0001C27.5833 11.0972 24.4029 7.91675 20.5 7.91675ZM23.8858 13.3709L19.8695 17.3872C19.7704 17.4863 19.6358 17.543 19.4941 17.543C19.3525 17.543 19.2179 17.4863 19.1187 17.3872L17.1141 15.3826C16.9087 15.1772 16.9087 14.8372 17.1141 14.6317C17.3195 14.4263 17.6595 14.4263 17.865 14.6317L19.4941 16.2609L23.135 12.6201C23.3404 12.4147 23.6804 12.4147 23.8858 12.6201C24.0912 12.8255 24.0912 13.1584 23.8858 13.3709Z" fill="white"/>
<path d="M39.0488 20.5L38.1943 18.333H33.7988L32.9443 20.5H31.5225L35.4258 10.6973H36.5879L40.5186 20.5H39.0488ZM34.3184 17.041H37.6953L36.0137 12.7412L34.3184 17.041ZM47.0059 13.6709L44.1211 20.5H43.0068L40.1221 13.6709H41.5234L43.5674 18.8184L45.5908 13.6709H47.0059ZM53.377 13.6709H54.6689V20.5H53.377V19.0986C53.1217 19.5954 52.7731 19.9759 52.3311 20.2402C51.889 20.5046 51.3695 20.6367 50.7725 20.6367C49.8519 20.6367 49.068 20.2926 48.4209 19.6045C47.7783 18.9118 47.457 18.071 47.457 17.082C47.457 16.0931 47.7783 15.2546 48.4209 14.5664C49.068 13.8737 49.8519 13.5273 50.7725 13.5273C51.3695 13.5273 51.889 13.6595 52.3311 13.9238C52.7731 14.1882 53.1217 14.5687 53.377 15.0654V13.6709ZM51.0391 19.4062C51.7135 19.4062 52.2718 19.1875 52.7139 18.75C53.1559 18.3125 53.377 17.7565 53.377 17.082C53.377 16.4076 53.1559 15.8516 52.7139 15.4141C52.2718 14.9766 51.7135 14.7578 51.0391 14.7578C50.3919 14.7578 49.8428 14.9834 49.3916 15.4346C48.9404 15.8857 48.7148 16.4349 48.7148 17.082C48.7148 17.7292 48.9404 18.2783 49.3916 18.7295C49.8428 19.1807 50.3919 19.4062 51.0391 19.4062ZM57.1162 10.6016C57.3486 10.6016 57.5514 10.6882 57.7246 10.8613C57.8978 11.0345 57.9844 11.2373 57.9844 11.4697C57.9844 11.7067 57.8978 11.9118 57.7246 12.085C57.5514 12.2536 57.3486 12.3379 57.1162 12.3379C56.8747 12.3379 56.6696 12.2536 56.501 12.085C56.3324 11.9163 56.248 11.7113 56.248 11.4697C56.248 11.2373 56.3324 11.0345 56.501 10.8613C56.6742 10.6882 56.8792 10.6016 57.1162 10.6016ZM56.46 13.6709H57.7656V20.5H56.46V13.6709ZM60.9102 10.6973V20.5H59.6045V10.6973H60.9102ZM68.0879 13.6709H69.3799V20.5H68.0879V19.0986C67.8327 19.5954 67.484 19.9759 67.042 20.2402C66.5999 20.5046 66.0804 20.6367 65.4834 20.6367C64.5628 20.6367 63.779 20.2926 63.1318 19.6045C62.4893 18.9118 62.168 18.071 62.168 17.082C62.168 16.0931 62.4893 15.2546 63.1318 14.5664C63.779 13.8737 64.5628 13.5273 65.4834 13.5273C66.0804 13.5273 66.5999 13.6595 67.042 13.9238C67.484 14.1882 67.8327 14.5687 68.0879 15.0654V13.6709ZM65.75 19.4062C66.4245 19.4062 66.9827 19.1875 67.4248 18.75C67.8669 18.3125 68.0879 17.7565 68.0879 17.082C68.0879 16.4076 67.8669 15.8516 67.4248 15.4141C66.9827 14.9766 66.4245 14.7578 65.75 14.7578C65.1029 14.7578 64.5537 14.9834 64.1025 15.4346C63.6514 15.8857 63.4258 16.4349 63.4258 17.082C63.4258 17.7292 63.6514 18.2783 64.1025 18.7295C64.5537 19.1807 65.1029 19.4062 65.75 19.4062ZM75.0605 13.5273C75.6712 13.5273 76.2318 13.6846 76.7422 13.999C77.2526 14.3135 77.6559 14.7441 77.9521 15.291C78.2484 15.8379 78.3965 16.4349 78.3965 17.082C78.3965 17.7292 78.2484 18.3262 77.9521 18.873C77.6559 19.4199 77.2526 19.8506 76.7422 20.165C76.2318 20.4795 75.6712 20.6367 75.0605 20.6367C74.4727 20.6367 73.9577 20.5068 73.5156 20.2471C73.0781 19.9827 72.7318 19.609 72.4766 19.126V20.5H71.1709V10.6973H72.4766V15.0381C72.7318 14.555 73.0781 14.1836 73.5156 13.9238C73.9577 13.6595 74.4727 13.5273 75.0605 13.5273ZM74.8008 19.4062C75.4479 19.4062 75.9948 19.1829 76.4414 18.7363C76.8926 18.2852 77.1182 17.7337 77.1182 17.082C77.1182 16.4303 76.8926 15.8812 76.4414 15.4346C75.9948 14.9834 75.4479 14.7578 74.8008 14.7578C74.1309 14.7578 73.5749 14.9788 73.1328 15.4209C72.6953 15.8584 72.4766 16.4121 72.4766 17.082C72.4766 17.752 72.6953 18.3079 73.1328 18.75C73.5749 19.1875 74.1309 19.4062 74.8008 19.4062ZM81.0625 10.6973V20.5H79.7568V10.6973H81.0625ZM89.1084 16.918C89.1084 17.1139 89.0993 17.2848 89.0811 17.4307H83.5918C83.6693 18.055 83.9085 18.5518 84.3096 18.9209C84.7152 19.29 85.2324 19.4746 85.8613 19.4746C86.3398 19.4746 86.7523 19.3675 87.0986 19.1533C87.445 18.9346 87.6615 18.6452 87.748 18.2852H89.04C88.9124 18.9961 88.5524 19.5658 87.96 19.9941C87.3675 20.4225 86.6543 20.6367 85.8203 20.6367C84.8268 20.6367 83.9951 20.2949 83.3252 19.6113C82.6553 18.9232 82.3203 18.071 82.3203 17.0547C82.3203 16.4076 82.473 15.8151 82.7783 15.2773C83.0837 14.735 83.5029 14.3089 84.0361 13.999C84.5739 13.6846 85.1641 13.5273 85.8066 13.5273C86.7318 13.5273 87.5133 13.8486 88.1514 14.4912C88.7894 15.1338 89.1084 15.9427 89.1084 16.918ZM83.6328 16.3438H87.707C87.6523 15.8607 87.445 15.4665 87.085 15.1611C86.7295 14.8558 86.2852 14.7031 85.752 14.7031C85.2142 14.7031 84.7562 14.849 84.3779 15.1406C83.9997 15.4323 83.7513 15.8333 83.6328 16.3438Z" fill="white"/>
</svg>
