<svg width="200" height="39" viewBox="0 0 200 39" fill="none" xmlns="http://www.w3.org/2000/svg">
<rect x="17.2471" y="5.74902" width="10.8765" height="10.8765" fill="#FF0083"/>
<rect x="32.0078" y="5.74902" width="6.99203" height="6.99203" fill="#FF0083" fill-opacity="0.5"/>
<rect x="6.37061" y="9.01196" width="4.3506" height="4.3506" fill="#FF0083" fill-opacity="0.3"/>
<rect x="11.498" width="5.749" height="5.749" fill="#FF0083" fill-opacity="0.9"/>
<rect x="28.1235" y="16.6255" width="10.8765" height="10.8765" fill="#FF0083" fill-opacity="0.8"/>
<rect x="28.1235" y="27.502" width="10.8765" height="10.8765" fill="#FF0083"/>
<rect x="17.2471" y="27.502" width="10.8765" height="10.8765" fill="#FF0083" fill-opacity="0.9"/>
<rect x="6.37061" y="16.6255" width="10.8765" height="10.8765" fill="#FF0083" fill-opacity="0.6"/>
<rect y="27.502" width="6.37052" height="6.37052" fill="#FF0083" fill-opacity="0.7"/>
<path d="M53.7949 4.64917C55.123 4.64917 56.3275 4.94865 57.4082 5.54761C58.4954 6.14657 59.3483 6.97664 59.9668 8.03784C60.5853 9.09904 60.8945 10.2839 60.8945 11.5925C60.8945 12.9272 60.5853 14.1348 59.9668 15.2156C59.3483 16.2898 58.4954 17.1329 57.4082 17.7449C56.3275 18.3503 55.123 18.6531 53.7949 18.6531H49V4.64917H53.7949ZM54 15.8113C55.1068 15.8113 56.0215 15.4109 56.7441 14.6101C57.4733 13.8093 57.8379 12.8035 57.8379 11.5925C57.8379 10.4011 57.4766 9.42131 56.7539 8.65308C56.0378 7.87834 55.1198 7.49097 54 7.49097H51.959V15.8113H54Z" fill="#121212"/>
<path d="M62.6133 4.64917H71.1875V7.49097H65.5723V10.0105H70.5723V12.8523H65.5723V15.8113H71.1875V18.6531H62.6133V4.64917Z" fill="#121212"/>
<path d="M78.9023 18.8484C77.5677 18.8484 76.3568 18.5359 75.2695 17.9109C74.1888 17.2859 73.3392 16.4233 72.7207 15.323C72.1087 14.2227 71.8027 12.9988 71.8027 11.6511C71.8027 10.3035 72.1087 9.07951 72.7207 7.97925C73.3392 6.87899 74.1888 6.01636 75.2695 5.39136C76.3568 4.76636 77.5677 4.45386 78.9023 4.45386C79.9896 4.45386 81.0182 4.67521 81.9883 5.11792C82.9583 5.55412 83.7624 6.1661 84.4004 6.95386C85.0449 7.73511 85.4323 8.6075 85.5625 9.57104H82.2617C82.0729 8.91349 81.666 8.37638 81.041 7.95972C80.4225 7.54305 79.7096 7.33472 78.9023 7.33472C77.75 7.33472 76.7832 7.74813 76.002 8.57495C75.2272 9.39526 74.8398 10.4207 74.8398 11.6511C74.8398 12.8816 75.2272 13.9102 76.002 14.7371C76.7832 15.5639 77.75 15.9773 78.9023 15.9773C79.7161 15.9773 80.4355 15.7494 81.0605 15.2937C81.6921 14.838 82.099 14.2585 82.2812 13.5554H85.6016C85.3346 15.1114 84.5762 16.3842 83.3262 17.3738C82.0827 18.3569 80.6081 18.8484 78.9023 18.8484Z" fill="#121212"/>
<path d="M87.3203 4.64917H95.8945V7.49097H90.2793V10.0105H95.2793V12.8523H90.2793V15.8113H95.8945V18.6531H87.3203V4.64917Z" fill="#121212"/>
<path d="M97.7109 4.64917H100.23L105.924 12.8132V4.64917H108.883V18.6531H106.402L100.67 10.489V18.6531H97.7109V4.64917Z" fill="#121212"/>
<path d="M121.529 4.64917V7.49097H117.428V18.6531H114.469V7.49097H110.387V4.64917H121.529Z" fill="#121212"/>
<path d="M134.244 18.6531H130.641L127.477 13.3113H125.963V18.6531H123.004V4.64917H128.404C129.186 4.64917 129.915 4.84123 130.592 5.22534C131.269 5.60946 131.809 6.1368 132.213 6.80737C132.617 7.47144 132.818 8.19409 132.818 8.97534C132.818 9.86076 132.62 10.642 132.223 11.3191C131.826 11.9962 131.279 12.5072 130.582 12.8523L134.244 18.6531ZM125.963 7.5105V10.7527H128.102C128.583 10.7527 128.99 10.5964 129.322 10.2839C129.654 9.97144 129.82 9.58081 129.82 9.11206C129.82 8.66284 129.654 8.28524 129.322 7.97925C128.99 7.66675 128.583 7.5105 128.102 7.5105H125.963Z" fill="#121212"/>
<path d="M144.645 18.6531L143.766 16.3093H138.365L137.467 18.6531H134.322L139.889 4.64917H142.281L147.867 18.6531H144.645ZM139.342 13.7703H142.789L141.09 9.29761L139.342 13.7703Z" fill="#121212"/>
<path d="M149.059 4.64917H152.018V15.8113H158.434V18.6531H149.059V4.64917Z" fill="#121212"/>
<path d="M159.996 4.64917H162.955V18.6531H159.996V4.64917Z" fill="#121212"/>
<path d="M170.094 18.8484C168.564 18.8484 167.298 18.3927 166.295 17.4812C165.292 16.5697 164.791 15.4141 164.791 14.0144H167.711C167.711 14.6264 167.932 15.1212 168.375 15.4988C168.818 15.8699 169.391 16.0554 170.094 16.0554C170.745 16.0554 171.272 15.9154 171.676 15.6355C172.086 15.3555 172.291 14.9877 172.291 14.532C172.291 14.2716 172.206 14.0437 172.037 13.8484C171.868 13.6531 171.64 13.4936 171.354 13.3699C171.074 13.2462 170.748 13.1355 170.377 13.0378C170.012 12.9337 169.625 12.8295 169.215 12.7253C168.811 12.6147 168.404 12.4942 167.994 12.364C167.59 12.2338 167.203 12.0645 166.832 11.8562C166.467 11.6479 166.142 11.407 165.855 11.1335C165.576 10.8536 165.351 10.4988 165.182 10.0691C165.012 9.63289 164.928 9.14136 164.928 8.59448C164.928 7.39657 165.383 6.40698 166.295 5.62573C167.213 4.84448 168.365 4.45386 169.752 4.45386C170.423 4.45386 171.038 4.53849 171.598 4.70776C172.158 4.87052 172.633 5.09839 173.023 5.39136C173.414 5.67782 173.743 6.01961 174.01 6.41675C174.277 6.80737 174.472 7.23055 174.596 7.68628C174.726 8.1355 174.791 8.61076 174.791 9.11206H171.734C171.721 8.56519 171.526 8.11922 171.148 7.77417C170.777 7.42912 170.279 7.25659 169.654 7.25659C169.094 7.25659 168.648 7.37378 168.316 7.60815C167.991 7.84253 167.828 8.16479 167.828 8.57495C167.828 8.82235 167.913 9.03719 168.082 9.21948C168.251 9.39526 168.479 9.54175 168.766 9.65894C169.052 9.76961 169.378 9.87378 169.742 9.97144C170.113 10.0626 170.504 10.1602 170.914 10.2644C171.324 10.3686 171.734 10.4858 172.145 10.616C172.555 10.7462 172.942 10.9187 173.307 11.1335C173.678 11.3484 174.007 11.6023 174.293 11.8953C174.579 12.1817 174.807 12.5496 174.977 12.9988C175.146 13.448 175.23 13.9591 175.23 14.532C175.23 15.7755 174.742 16.8074 173.766 17.6277C172.796 18.4415 171.572 18.8484 170.094 18.8484Z" fill="#121212"/>
<path d="M176.969 4.64917H185.543V7.49097H179.928V10.0105H184.928V12.8523H179.928V15.8113H185.543V18.6531H176.969V4.64917Z" fill="#121212"/>
<path d="M192.154 4.64917C193.482 4.64917 194.687 4.94865 195.768 5.54761C196.855 6.14657 197.708 6.97664 198.326 8.03784C198.945 9.09904 199.254 10.2839 199.254 11.5925C199.254 12.9272 198.945 14.1348 198.326 15.2156C197.708 16.2898 196.855 17.1329 195.768 17.7449C194.687 18.3503 193.482 18.6531 192.154 18.6531H187.359V4.64917H192.154ZM192.359 15.8113C193.466 15.8113 194.381 15.4109 195.104 14.6101C195.833 13.8093 196.197 12.8035 196.197 11.5925C196.197 10.4011 195.836 9.42131 195.113 8.65308C194.397 7.87834 193.479 7.49097 192.359 7.49097H190.318V15.8113H192.359Z" fill="#121212"/>
<path d="M49 23.9851H50.2236L55.2891 31.238V23.9851H56.6357V33.7878H55.4395L50.3604 26.5486V33.7878H49V23.9851Z" fill="#121212"/>
<path d="M66.0311 33.7878L65.1766 31.6208H60.7811L59.9266 33.7878H58.5047L62.408 23.9851H63.5701L67.5008 33.7878H66.0311ZM61.3006 30.3289H64.6775L62.9959 26.0291L61.3006 30.3289Z" fill="#121212"/>
<path d="M69.3492 33.7878V23.9851H70.9625L74.4625 31.8123L78.0445 23.9851H79.4186V33.7878H78.0582V26.6648L74.8658 33.7878H73.8746L70.7096 26.6648V33.7878H69.3492Z" fill="#121212"/>
<path d="M82.1078 23.9851H83.4682V33.7878H82.1078V23.9851Z" fill="#121212"/>
<path d="M86.1574 23.9851H87.3811L92.4465 31.238V23.9851H93.7932V33.7878H92.5969L87.5178 26.5486V33.7878H86.1574V23.9851Z" fill="#121212"/>
<path d="M105.697 28.4421C105.734 28.629 105.752 28.8933 105.752 29.2351C105.752 30.1283 105.547 30.935 105.137 31.655C104.727 32.3705 104.161 32.9288 103.441 33.3298C102.726 33.7263 101.928 33.9246 101.049 33.9246C100.133 33.9246 99.2988 33.7035 98.5469 33.2615C97.7949 32.8194 97.2048 32.2133 96.7764 31.4431C96.348 30.6684 96.1338 29.8116 96.1338 28.8728C96.1338 27.9386 96.348 27.0886 96.7764 26.323C97.2048 25.5528 97.7949 24.949 98.5469 24.5115C99.2988 24.0694 100.133 23.8484 101.049 23.8484C102.083 23.8484 103.036 24.156 103.906 24.7712C104.777 25.3865 105.321 26.1202 105.54 26.9724H104.016C103.815 26.4438 103.43 26.0085 102.86 25.6667C102.295 25.3204 101.691 25.1472 101.049 25.1472C100.055 25.1472 99.2191 25.5072 98.54 26.2273C97.861 26.9428 97.5215 27.8246 97.5215 28.8728C97.5215 29.5701 97.6764 30.2058 97.9863 30.78C98.2962 31.3497 98.7269 31.8009 99.2783 32.1335C99.8343 32.4617 100.452 32.6257 101.131 32.6257C101.988 32.6257 102.721 32.3546 103.332 31.8123C103.947 31.2699 104.307 30.5795 104.412 29.741H101.172V28.4421H105.697Z" fill="#121212"/>
<path d="M115.273 33.9246C114.239 33.9246 113.382 33.6192 112.703 33.0085C112.024 32.3933 111.684 31.6208 111.684 30.6912H113.017C113.017 31.2699 113.227 31.7416 113.646 32.1062C114.07 32.4708 114.612 32.6531 115.273 32.6531C115.893 32.6531 116.401 32.5072 116.797 32.2156C117.199 31.9194 117.399 31.5388 117.399 31.074C117.399 30.8051 117.335 30.5727 117.208 30.3767C117.08 30.1762 116.909 30.0167 116.695 29.8982C116.481 29.7751 116.235 29.6681 115.957 29.5769C115.679 29.4858 115.385 29.4014 115.075 29.324C114.765 29.2465 114.455 29.1645 114.145 29.0779C113.84 28.9913 113.548 28.8819 113.27 28.7498C112.992 28.613 112.746 28.4535 112.532 28.2712C112.318 28.0889 112.147 27.8497 112.019 27.5535C111.892 27.2572 111.828 26.9177 111.828 26.5349C111.828 25.7556 112.135 25.113 112.751 24.6072C113.37 24.1013 114.15 23.8484 115.088 23.8484C116.132 23.8484 116.95 24.1309 117.543 24.696C118.135 25.2566 118.431 25.9584 118.431 26.8015H117.05C117.037 26.3139 116.845 25.9128 116.476 25.5984C116.107 25.2794 115.631 25.1199 115.047 25.1199C114.487 25.1199 114.029 25.252 113.673 25.5164C113.318 25.7761 113.14 26.1156 113.14 26.5349C113.14 26.7764 113.204 26.9884 113.332 27.1707C113.459 27.3484 113.63 27.4919 113.844 27.6013C114.063 27.7061 114.311 27.7996 114.589 27.8816C114.872 27.9636 115.168 28.0434 115.478 28.1208C115.788 28.1938 116.096 28.2758 116.401 28.3669C116.711 28.4535 117.005 28.5697 117.283 28.7156C117.565 28.8569 117.814 29.0255 118.028 29.2214C118.247 29.4174 118.42 29.6749 118.547 29.9939C118.675 30.3083 118.739 30.6684 118.739 31.074C118.739 31.8988 118.411 32.5802 117.754 33.1179C117.098 33.6557 116.271 33.9246 115.273 33.9246Z" fill="#121212"/>
<path d="M121.032 23.9851H126.664V25.2771H122.392V27.9636H126.2V29.2488H122.392V32.5027H126.664V33.7878H121.032V23.9851Z" fill="#121212"/>
<path d="M136.326 33.7878H134.706L132.102 29.7136H130.434V33.7878H129.073V23.9851H132.69C133.515 23.9851 134.212 24.2585 134.781 24.8054C135.356 25.3523 135.643 26.0268 135.643 26.8289C135.643 27.5352 135.456 28.1368 135.082 28.6335C134.709 29.1257 134.205 29.4539 133.571 29.6179L136.326 33.7878ZM130.42 25.2771L130.434 28.4285H132.662C133.132 28.4285 133.519 28.2781 133.824 27.9773C134.13 27.672 134.282 27.2891 134.282 26.8289C134.282 26.3822 134.13 26.0131 133.824 25.7214C133.519 25.4252 133.132 25.2771 132.662 25.2771H130.42Z" fill="#121212"/>
<path d="M136.828 23.9851H138.271L141.107 31.6755L143.951 23.9851H145.366L141.668 33.7878H140.533L136.828 23.9851Z" fill="#121212"/>
<path d="M147.262 23.9851H148.623V33.7878H147.262V23.9851Z" fill="#121212"/>
<path d="M155.851 33.9246C154.94 33.9246 154.108 33.7035 153.356 33.2615C152.609 32.8194 152.021 32.211 151.592 31.4363C151.164 30.6615 150.95 29.8025 150.95 28.8591C150.95 27.9294 151.164 27.0818 151.592 26.3162C152.021 25.5505 152.609 24.949 153.356 24.5115C154.108 24.0694 154.94 23.8484 155.851 23.8484C156.959 23.8484 157.938 24.1697 158.791 24.8123C159.643 25.4503 160.156 26.2592 160.329 27.239H158.832C158.663 26.6238 158.301 26.1225 157.745 25.7351C157.193 25.3432 156.562 25.1472 155.851 25.1472C155.199 25.1472 154.605 25.3113 154.067 25.6394C153.529 25.963 153.105 26.4096 152.796 26.9792C152.49 27.5489 152.338 28.1755 152.338 28.8591C152.338 29.921 152.675 30.8142 153.349 31.5388C154.024 32.2634 154.858 32.6257 155.851 32.6257C156.576 32.6257 157.216 32.4207 157.772 32.0105C158.328 31.5958 158.686 31.0626 158.845 30.4109H160.356C160.156 31.45 159.636 32.2953 158.797 32.947C157.963 33.5987 156.981 33.9246 155.851 33.9246Z" fill="#121212"/>
<path d="M162.663 23.9851H168.295V25.2771H164.023V27.9636H167.83V29.2488H164.023V32.5027H168.295V33.7878H162.663V23.9851Z" fill="#121212"/>
</svg>
