<svg width="70" height="70" viewBox="0 0 70 70" fill="none" xmlns="http://www.w3.org/2000/svg">
<rect width="70" height="70" rx="35" fill="#FFF5FA"/>
<path d="M36.2624 23.65L43.6374 26.925C45.7624 27.8625 45.7624 29.4125 43.6374 30.35L36.2624 33.625C35.4249 34 34.0499 34 33.2124 33.625L25.8374 30.35C23.7124 29.4125 23.7124 27.8625 25.8374 26.925L33.2124 23.65C34.0499 23.275 35.4249 23.275 36.2624 23.65Z" stroke="#FF0083" stroke-width="2" stroke-linecap="round" stroke-linejoin="round"/>
<path d="M23.75 33.75C23.75 34.8 24.5375 36.0125 25.5 36.4375L33.9875 40.2125C34.6375 40.5 35.375 40.5 36.0125 40.2125L44.5 36.4375C45.4625 36.0125 46.25 34.8 46.25 33.75" stroke="#FF0083" stroke-width="2" stroke-linecap="round" stroke-linejoin="round"/>
<path d="M23.75 40C23.75 41.1625 24.4375 42.2125 25.5 42.6875L33.9875 46.4625C34.6375 46.75 35.375 46.75 36.0125 46.4625L44.5 42.6875C45.5625 42.2125 46.25 41.1625 46.25 40" stroke="#FF0083" stroke-width="2" stroke-linecap="round" stroke-linejoin="round"/>
</svg>
