<svg width="522" height="534" viewBox="0 0 522 534" fill="none" xmlns="http://www.w3.org/2000/svg">
<rect x="1" y="1" width="520" height="532" rx="9" fill="#FAFAFA"/>
<g opacity="0.05">
<rect x="245.917" y="175.066" width="74.0418" height="74.0418" fill="#FF0083"/>
<rect x="346.4" y="175.066" width="47.5983" height="47.5983" fill="#FF0083" fill-opacity="0.5"/>
<rect x="171.875" y="197.278" width="29.6167" height="29.6167" fill="#FF0083" fill-opacity="0.3"/>
<rect x="206.78" y="135.929" width="39.1364" height="39.1364" fill="#FF0083" fill-opacity="0.9"/>
<rect x="319.958" y="249.107" width="74.0418" height="74.0418" fill="#FF0083" fill-opacity="0.8"/>
<rect x="319.958" y="323.149" width="74.0418" height="74.0418" fill="#FF0083"/>
<rect x="245.917" y="323.149" width="74.0418" height="74.0418" fill="#FF0083" fill-opacity="0.9"/>
<rect x="171.875" y="249.107" width="74.0418" height="74.0418" fill="#FF0083" fill-opacity="0.6"/>
<rect x="128.507" y="323.149" width="43.3673" height="43.3673" fill="#FF0083" fill-opacity="0.7"/>
</g>
<path d="M106.226 282V263.9H103.126V259.65H106.226V255.2C106.226 254.067 106.443 253.017 106.876 252.05C107.343 251.083 108.093 250.3 109.126 249.7C110.193 249.1 111.593 248.8 113.326 248.8H115.826C119.826 248.8 122.693 248.983 124.426 249.35C126.193 249.717 127.076 250.033 127.076 250.3L125.576 254.1C125.009 253.867 123.993 253.65 122.526 253.45C121.059 253.217 119.293 253.1 117.226 253.1H114.726C113.893 253.1 113.276 253.25 112.876 253.55C112.509 253.85 112.326 254.367 112.326 255.1V259.65H122.726V263.9H112.326V282H106.226ZM131.625 256.45C130.392 256.45 129.492 256.2 128.925 255.7C128.359 255.2 128.075 254.367 128.075 253.2C128.075 252 128.342 251.167 128.875 250.7C129.442 250.2 130.359 249.95 131.625 249.95C132.892 249.95 133.809 250.2 134.375 250.7C134.942 251.167 135.225 252 135.225 253.2C135.225 254.333 134.942 255.167 134.375 255.7C133.809 256.2 132.892 256.45 131.625 256.45ZM128.575 282V259.6H134.675V282H128.575ZM141.21 282V259.6H145.31L147.21 260.6C148.077 260.133 149.01 259.767 150.01 259.5C151.01 259.233 152.277 259.1 153.81 259.1C156.243 259.1 158.21 259.367 159.71 259.9C161.243 260.433 162.26 260.833 162.76 261.1L161.01 265.45C160.61 265.25 159.943 265 159.01 264.7C158.11 264.367 157.043 264.067 155.81 263.8C154.577 263.533 153.227 263.4 151.76 263.4H151.21C149.61 263.4 148.56 263.717 148.06 264.35C147.593 264.983 147.343 266.033 147.31 267.5V282H141.21ZM172.359 282C170.692 282 169.409 281.783 168.509 281.35C167.609 280.917 166.959 280.367 166.559 279.7C166.192 279.033 165.959 278.333 165.859 277.6C165.792 276.867 165.759 276.2 165.759 275.6V266C165.759 265.5 165.792 264.9 165.859 264.2C165.959 263.467 166.192 262.75 166.559 262.05C166.959 261.35 167.609 260.767 168.509 260.3C169.442 259.833 170.725 259.6 172.359 259.6H183.109C185.309 259.6 187.025 259.817 188.259 260.25C189.525 260.65 190.409 261.317 190.909 262.25C191.442 263.183 191.709 264.433 191.709 266V273.4H182.959C179.959 273.4 177.509 273.333 175.609 273.2C173.742 273.067 172.492 272.983 171.859 272.95V275.7C171.825 277.033 172.625 277.7 174.259 277.7H176.809C178.609 277.7 180.359 277.683 182.059 277.65C183.792 277.583 185.375 277.517 186.809 277.45C188.242 277.35 189.392 277.267 190.259 277.2L192.259 280.45C192.259 281.483 188.975 282 182.409 282H172.359ZM171.859 269.1H185.609V265.9C185.609 265.233 185.525 264.767 185.359 264.5C185.225 264.233 184.792 264.067 184.059 264C183.325 263.933 182.075 263.9 180.309 263.9H174.259C172.659 263.9 171.859 264.567 171.859 265.9V269.1ZM203.715 282C201.181 282 199.348 281.417 198.215 280.25C197.081 279.05 196.515 277.417 196.515 275.35C196.515 273.183 197.098 271.517 198.265 270.35C199.465 269.183 201.281 268.6 203.715 268.6H206.265C208.765 268.6 211.015 268.667 213.015 268.8C215.015 268.933 216.665 269.067 217.965 269.2V265.9C217.965 265.6 217.931 265.3 217.865 265C217.798 264.667 217.598 264.4 217.265 264.2C216.931 264 216.365 263.9 215.565 263.9H213.065C209.431 263.9 206.398 263.967 203.965 264.1C201.531 264.2 199.881 264.3 199.015 264.4L198.465 260.6C198.465 260.133 199.731 259.85 202.265 259.75C204.798 259.65 209.031 259.6 214.965 259.6H217.465C219.131 259.6 220.415 259.833 221.315 260.3C222.215 260.767 222.848 261.35 223.215 262.05C223.615 262.75 223.848 263.467 223.915 264.2C224.015 264.9 224.065 265.5 224.065 266V282H219.965L218.015 281C216.615 281.233 214.931 281.467 212.965 281.7C210.998 281.9 208.748 282 206.215 282H203.715ZM205.015 277.7H216.465C217.198 277.7 217.631 277.633 217.765 277.5C217.898 277.367 217.965 276.95 217.965 276.25V272.4H205.015C204.115 272.4 203.481 272.617 203.115 273.05C202.781 273.483 202.615 274.167 202.615 275.1C202.615 276.033 202.815 276.7 203.215 277.1C203.615 277.5 204.215 277.7 205.015 277.7ZM229.833 291.3V259.6H233.933L235.183 260.25C236.683 260.083 238.466 259.933 240.533 259.8C242.633 259.667 245.016 259.6 247.683 259.6H250.233C251.9 259.6 253.183 259.817 254.083 260.25C254.983 260.683 255.616 261.233 255.983 261.9C256.383 262.567 256.616 263.267 256.683 264C256.783 264.733 256.833 265.4 256.833 266V275.6C256.833 276.1 256.783 276.717 256.683 277.45C256.616 278.15 256.383 278.85 255.983 279.55C255.616 280.25 254.983 280.833 254.083 281.3C253.183 281.767 251.9 282 250.233 282H247.683C245.15 282 242.9 281.933 240.933 281.8C238.966 281.667 237.3 281.533 235.933 281.4V291.3H229.833ZM237.483 277.7H248.333C248.966 277.7 249.516 277.533 249.983 277.2C250.483 276.867 250.733 276.367 250.733 275.7V265.9C250.766 265.167 250.583 264.65 250.183 264.35C249.816 264.05 249.2 263.9 248.333 263.9H245.833C243.7 263.9 241.8 263.95 240.133 264.05C238.5 264.117 237.1 264.2 235.933 264.3V276.15C235.933 276.883 236 277.333 236.133 277.5C236.3 277.633 236.75 277.7 237.483 277.7ZM268.453 282C266.786 282 265.503 281.783 264.603 281.35C263.703 280.917 263.053 280.367 262.653 279.7C262.286 279.033 262.053 278.333 261.953 277.6C261.886 276.867 261.853 276.2 261.853 275.6V266C261.853 265.5 261.886 264.9 261.953 264.2C262.053 263.467 262.286 262.75 262.653 262.05C263.053 261.35 263.703 260.767 264.603 260.3C265.536 259.833 266.819 259.6 268.453 259.6H279.203C281.403 259.6 283.119 259.817 284.353 260.25C285.619 260.65 286.503 261.317 287.003 262.25C287.536 263.183 287.803 264.433 287.803 266V273.4H279.053C276.053 273.4 273.603 273.333 271.703 273.2C269.836 273.067 268.586 272.983 267.953 272.95V275.7C267.919 277.033 268.719 277.7 270.353 277.7H272.903C274.703 277.7 276.453 277.683 278.153 277.65C279.886 277.583 281.469 277.517 282.903 277.45C284.336 277.35 285.486 277.267 286.353 277.2L288.353 280.45C288.353 281.483 285.069 282 278.503 282H268.453ZM267.953 269.1H281.703V265.9C281.703 265.233 281.619 264.767 281.453 264.5C281.319 264.233 280.886 264.067 280.153 264C279.419 263.933 278.169 263.9 276.403 263.9H270.353C268.753 263.9 267.953 264.567 267.953 265.9V269.1ZM297.908 282C296.675 282 295.775 281.75 295.208 281.25C294.642 280.75 294.358 279.917 294.358 278.75C294.358 277.55 294.625 276.717 295.158 276.25C295.725 275.75 296.642 275.5 297.908 275.5C299.175 275.5 300.092 275.75 300.658 276.25C301.225 276.717 301.508 277.55 301.508 278.75C301.508 279.883 301.225 280.717 300.658 281.25C300.092 281.75 299.175 282 297.908 282ZM317.195 282C314.662 282 312.928 281.467 311.995 280.4C311.062 279.333 310.595 277.733 310.595 275.6V263.9H306.495V259.6H308.595C309.228 259.6 309.678 259.5 309.945 259.3C310.245 259.1 310.462 258.7 310.595 258.1L311.595 252.75H316.695V259.6H327.095V263.9H316.695V275.65C316.695 276.483 316.895 277.033 317.295 277.3C317.695 277.567 318.295 277.7 319.095 277.7H326.145L326.645 281.5C325.945 281.6 324.878 281.717 323.445 281.85C322.012 281.95 320.445 282 318.745 282H317.195ZM337.203 282C334.969 282 333.303 281.55 332.203 280.65C331.136 279.75 330.603 278.283 330.603 276.25V266C330.603 265.5 330.636 264.9 330.703 264.2C330.803 263.467 331.036 262.75 331.403 262.05C331.803 261.35 332.453 260.767 333.353 260.3C334.286 259.833 335.569 259.6 337.203 259.6H351.003C352.669 259.6 353.953 259.833 354.853 260.3C355.753 260.767 356.386 261.35 356.753 262.05C357.153 262.75 357.386 263.467 357.453 264.2C357.553 264.9 357.603 265.5 357.603 266V275.6C357.603 276.2 357.553 276.867 357.453 277.6C357.386 278.333 357.153 279.033 356.753 279.7C356.353 280.367 355.703 280.917 354.803 281.35C353.903 281.783 352.636 282 351.003 282H337.203ZM339.103 277.7H349.103C350.736 277.7 351.553 277.033 351.553 275.7V265.9C351.553 264.567 350.736 263.9 349.103 263.9H339.103C337.503 263.9 336.703 264.567 336.703 265.9V275.7C336.703 277.033 337.503 277.7 339.103 277.7ZM363.085 282V259.6H367.185L368.435 260.2C369.402 260.033 370.585 259.9 371.985 259.8C373.385 259.667 375.052 259.6 376.985 259.6H379.485C380.452 259.6 381.385 259.733 382.285 260C383.185 260.233 383.852 260.583 384.285 261.05C385.152 260.617 386.352 260.267 387.885 260C389.418 259.733 391.418 259.6 393.885 259.6H396.385C398.052 259.6 399.335 259.833 400.235 260.3C401.135 260.767 401.768 261.35 402.135 262.05C402.535 262.75 402.768 263.467 402.835 264.2C402.935 264.9 402.985 265.5 402.985 266V282H396.885V265.9C396.885 264.567 396.085 263.9 394.485 263.9H387.485C386.952 263.9 386.585 263.967 386.385 264.1C386.185 264.233 386.085 264.533 386.085 265V282H379.985V265.9C379.985 264.567 379.185 263.9 377.585 263.9H370.685C370.052 263.9 369.635 263.967 369.435 264.1C369.268 264.2 369.185 264.5 369.185 265V282H363.085ZM412.289 256.45C411.056 256.45 410.156 256.2 409.589 255.7C409.023 255.2 408.739 254.367 408.739 253.2C408.739 252 409.006 251.167 409.539 250.7C410.106 250.2 411.023 249.95 412.289 249.95C413.556 249.95 414.473 250.2 415.039 250.7C415.606 251.167 415.889 252 415.889 253.2C415.889 254.333 415.606 255.167 415.039 255.7C414.473 256.2 413.556 256.45 412.289 256.45ZM409.239 282V259.6H415.339V282H409.239Z" fill="#FF0083"/>
<rect x="1" y="1" width="520" height="532" rx="9" stroke="#FF0083" stroke-width="2"/>
</svg>
