<svg width="258" height="181" viewBox="0 0 258 181" fill="none" xmlns="http://www.w3.org/2000/svg">
<rect width="258" height="181" rx="10" fill="#FFCC9C"/>
<path fill-rule="evenodd" clip-rule="evenodd" d="M189.941 59.5987C183.918 47.4827 169.213 42.5435 157.097 48.5668L180.738 96.1204C192.854 90.0971 197.793 75.3923 191.77 63.2763L189.941 59.5987ZM64 48.5668C76.116 42.5435 90.8208 47.4827 96.844 59.5987L118.233 102.623C124.256 114.739 119.317 129.444 107.201 135.467L64 48.5668ZM110.549 48.5668C122.665 42.5435 137.369 47.4827 143.393 59.5987L164.781 102.623C170.805 114.739 165.866 129.444 153.75 135.467L110.549 48.5668Z" fill="white" fill-opacity="0.2"/>
<path d="M74.0661 100.36C71.2061 100.36 69.1061 99.18 67.7661 96.82L70.7661 94.6C71.4661 95.9 72.3761 96.55 73.4961 96.55C74.2961 96.55 74.8961 96.31 75.2961 95.83C75.7161 95.33 75.9261 94.43 75.9261 93.13V80.44H80.3361V93.49C80.3361 95.39 79.8261 97.01 78.8061 98.35C77.8061 99.69 76.2261 100.36 74.0661 100.36ZM90.8898 100.36C89.6298 100.36 88.4398 100.06 87.3198 99.46C86.2198 98.84 85.3298 97.95 84.6498 96.79C83.9698 95.61 83.6298 94.2 83.6298 92.56C83.6298 90.92 83.9698 89.52 84.6498 88.36C85.3298 87.18 86.2198 86.29 87.3198 85.69C88.4398 85.07 89.6298 84.76 90.8898 84.76C92.1298 84.76 93.2998 85.07 94.3998 85.69C95.5198 86.29 96.4198 87.18 97.0998 88.36C97.7798 89.52 98.1198 90.92 98.1198 92.56C98.1198 94.2 97.7798 95.61 97.0998 96.79C96.4198 97.95 95.5198 98.84 94.3998 99.46C93.2998 100.06 92.1298 100.36 90.8898 100.36ZM90.8898 96.79C91.7898 96.79 92.4698 96.41 92.9298 95.65C93.3898 94.87 93.6198 93.84 93.6198 92.56C93.6198 91.28 93.3898 90.26 92.9298 89.5C92.4698 88.72 91.7898 88.33 90.8898 88.33C89.9698 88.33 89.2798 88.72 88.8198 89.5C88.3798 90.26 88.1598 91.28 88.1598 92.56C88.1598 93.84 88.3798 94.87 88.8198 95.65C89.2798 96.41 89.9698 96.79 90.8898 96.79ZM101.14 100V78.97H105.55V84.13L105.34 86.8C105.9 86.3 106.55 85.84 107.29 85.42C108.05 84.98 108.93 84.76 109.93 84.76C111.55 84.76 112.72 85.3 113.44 86.38C114.18 87.44 114.55 88.9 114.55 90.76V100H110.14V91.33C110.14 90.25 109.99 89.51 109.69 89.11C109.41 88.71 108.95 88.51 108.31 88.51C107.75 88.51 107.27 88.64 106.87 88.9C106.47 89.14 106.03 89.49 105.55 89.95V100H101.14ZM118.279 100V85.12H121.879L122.179 87.01H122.299C122.919 86.41 123.619 85.89 124.399 85.45C125.179 84.99 126.069 84.76 127.069 84.76C128.689 84.76 129.859 85.3 130.579 86.38C131.319 87.44 131.689 88.9 131.689 90.76V100H127.279V91.33C127.279 90.25 127.129 89.51 126.829 89.11C126.549 88.71 126.089 88.51 125.449 88.51C124.889 88.51 124.409 88.64 124.009 88.9C123.609 89.14 123.169 89.49 122.689 89.95V100H118.279ZM141.813 100V80.44H147.333C150.313 80.44 152.693 81.22 154.473 82.78C156.253 84.32 157.143 86.77 157.143 90.13C157.143 93.49 156.263 95.98 154.503 97.6C152.743 99.2 150.433 100 147.573 100H141.813ZM146.223 96.43H147.063C148.723 96.43 150.063 95.97 151.083 95.05C152.103 94.11 152.613 92.47 152.613 90.13C152.613 87.79 152.103 86.19 151.083 85.33C150.063 84.45 148.723 84.01 147.063 84.01H146.223V96.43ZM166.886 100.36C165.626 100.36 164.436 100.06 163.316 99.46C162.216 98.84 161.326 97.95 160.646 96.79C159.966 95.61 159.626 94.2 159.626 92.56C159.626 90.92 159.966 89.52 160.646 88.36C161.326 87.18 162.216 86.29 163.316 85.69C164.436 85.07 165.626 84.76 166.886 84.76C168.126 84.76 169.296 85.07 170.396 85.69C171.516 86.29 172.416 87.18 173.096 88.36C173.776 89.52 174.116 90.92 174.116 92.56C174.116 94.2 173.776 95.61 173.096 96.79C172.416 97.95 171.516 98.84 170.396 99.46C169.296 100.06 168.126 100.36 166.886 100.36ZM166.886 96.79C167.786 96.79 168.466 96.41 168.926 95.65C169.386 94.87 169.616 93.84 169.616 92.56C169.616 91.28 169.386 90.26 168.926 89.5C168.466 88.72 167.786 88.33 166.886 88.33C165.966 88.33 165.276 88.72 164.816 89.5C164.376 90.26 164.156 91.28 164.156 92.56C164.156 93.84 164.376 94.87 164.816 95.65C165.276 96.41 165.966 96.79 166.886 96.79ZM183.797 100.36C181.657 100.36 179.867 99.68 178.427 98.32C176.987 96.94 176.267 95.02 176.267 92.56C176.267 90.96 176.597 89.58 177.257 88.42C177.937 87.24 178.807 86.34 179.867 85.72C180.947 85.08 182.087 84.76 183.287 84.76C185.407 84.76 186.987 85.45 188.027 86.83C189.087 88.19 189.617 89.88 189.617 91.9C189.617 92.72 189.557 93.37 189.437 93.85H180.527C180.727 94.93 181.177 95.73 181.877 96.25C182.577 96.75 183.417 97 184.397 97C185.457 97 186.527 96.67 187.607 96.01L189.077 98.68C187.437 99.8 185.677 100.36 183.797 100.36ZM180.497 90.94H185.867C185.867 90.12 185.667 89.45 185.267 88.93C184.887 88.39 184.257 88.12 183.377 88.12C182.677 88.12 182.057 88.36 181.517 88.84C180.977 89.3 180.637 90 180.497 90.94Z" fill="#9E4C00"/>
</svg>
