<svg width="16" height="16" viewBox="0 0 16 16" fill="none" xmlns="http://www.w3.org/2000/svg">
<path d="M15.7829 14.3075L7.21089 6.50351L7.60989 6.10351C7.92454 5.78756 8.11301 5.3676 8.13989 4.92251C8.15571 4.91585 8.17107 4.90817 8.18589 4.89951L9.79489 3.89351C9.89998 3.76542 9.95437 3.6032 9.94773 3.43766C9.94109 3.27211 9.87389 3.11477 9.75889 2.99551L6.95989 0.189508C6.84106 0.0744516 6.68403 0.00718323 6.51876 0.000542978C6.35349 -0.00609727 6.19157 0.0483557 6.06389 0.153508L5.05989 1.76751L5.03789 1.81351C4.60789 1.84051 4.18589 2.01751 3.85989 2.34451L2.33789 3.87151C2.01089 4.19851 1.83489 4.62151 1.80789 5.05251C1.79208 5.05917 1.77671 5.06685 1.76189 5.07551L0.152892 6.08151C0.0478065 6.20959 -0.00658184 6.37181 5.46893e-05 6.53736C0.00669122 6.7029 0.0738905 6.86024 0.188892 6.97951L2.98789 9.78551C3.10672 9.90056 3.26375 9.96783 3.42902 9.97447C3.59429 9.98111 3.75622 9.92666 3.88389 9.82151L4.88789 8.20751L4.91089 8.16151C5.34089 8.13451 5.76289 7.95751 6.08889 7.63051L6.53089 7.18751L14.3139 15.7835C14.5399 16.0325 14.8869 16.0725 15.0869 15.8725L15.8739 15.0835C16.0729 14.8835 16.0329 14.5345 15.7849 14.3085L15.7829 14.3075Z" fill="white"/>
</svg>
