<svg width="30" height="30" viewBox="0 0 30 30" fill="none" xmlns="http://www.w3.org/2000/svg">
<rect x="0.5" y="0.5" width="29" height="29" rx="14.5" fill="white"/>
<path d="M15.3752 10.7428C16.4088 10.7428 17.2467 9.90498 17.2467 8.87142C17.2467 7.83786 16.4088 7 15.3752 7C14.3416 7 13.5037 7.83786 13.5037 8.87142C13.5037 9.90498 14.3416 10.7428 15.3752 10.7428Z" fill="#FF0083"/>
<path d="M15.375 23C15.9951 23 16.4977 22.4973 16.4977 21.8773C16.4977 21.2572 15.9951 20.7545 15.375 20.7545C14.7549 20.7545 14.2522 21.2572 14.2522 21.8773C14.2522 22.4973 14.7549 23 15.375 23Z" fill="#FF0083"/>
<path d="M10.7765 12.4601C11.7068 12.4601 12.461 11.7059 12.461 10.7756C12.461 9.84538 11.7068 9.09125 10.7765 9.09125C9.8462 9.09125 9.09204 9.84538 9.09204 10.7756C9.09204 11.7059 9.8462 12.4601 10.7765 12.4601Z" fill="#FF0083"/>
<path d="M19.9736 20.9076C20.4904 20.9076 20.9093 20.4886 20.9093 19.9718C20.9093 19.4551 20.4904 19.0361 19.9736 19.0361C19.4568 19.0361 19.0378 19.4551 19.0378 19.9718C19.0378 20.4886 19.4568 20.9076 19.9736 20.9076Z" fill="#FF0083"/>
<path d="M8.87159 16.8714C9.69826 16.8714 10.3684 16.2013 10.3684 15.3746C10.3684 14.548 9.69826 13.8779 8.87159 13.8779C8.04491 13.8779 7.37476 14.548 7.37476 15.3746C7.37476 16.2013 8.04491 16.8714 8.87159 16.8714Z" fill="#FF0083"/>
<path d="M21.878 16.1221C22.2912 16.1221 22.6261 15.7872 22.6261 15.374C22.6261 14.9609 22.2912 14.6259 21.878 14.6259C21.4648 14.6259 21.1299 14.9609 21.1299 15.374C21.1299 15.7872 21.4648 16.1221 21.878 16.1221Z" fill="#FF0083"/>
<path d="M9.85048 19.047C9.33858 19.5589 9.33858 20.3872 9.85048 20.899C10.3618 21.4109 11.1912 21.4109 11.7025 20.899C12.2144 20.3872 12.2144 19.5589 11.7025 19.047C11.1912 18.5346 10.3624 18.5297 9.85048 19.047Z" fill="#FF0083"/>
<path d="M19.9729 11.3367C20.2828 11.3367 20.534 11.0855 20.534 10.7756C20.534 10.4658 20.2828 10.2146 19.9729 10.2146C19.6631 10.2146 19.4119 10.4658 19.4119 10.7756C19.4119 11.0855 19.6631 11.3367 19.9729 11.3367Z" fill="#FF0083"/>
<rect x="0.5" y="0.5" width="29" height="29" rx="14.5" stroke="#EBEBEB"/>
</svg>
