<svg width="70" height="70" viewBox="0 0 70 70" fill="none" xmlns="http://www.w3.org/2000/svg">
<rect width="70" height="70" rx="35" fill="#FFF5FA"/>
<path d="M33.75 22.5H31.25C25 22.5 22.5 25 22.5 31.25V38.75C22.5 45 25 47.5 31.25 47.5H38.75C45 47.5 47.5 45 47.5 38.75V36.25" stroke="#FF0083" stroke-width="2" stroke-linecap="round" stroke-linejoin="round"/>
<path d="M40.0498 23.7749L30.1998 33.6249C29.8248 33.9999 29.4498 34.7375 29.3748 35.275L28.8373 39.0374C28.6373 40.3999 29.5998 41.35 30.9623 41.1625L34.7248 40.6249C35.2498 40.5499 35.9873 40.1749 36.3748 39.7999L46.2248 29.9499C47.9248 28.2499 48.7248 26.2749 46.2248 23.7749C43.7248 21.2749 41.7498 22.0749 40.0498 23.7749Z" stroke="#FF0083" stroke-width="2" stroke-miterlimit="10" stroke-linecap="round" stroke-linejoin="round"/>
<path d="M38.6377 25.1875C39.4752 28.175 41.8127 30.5125 44.8127 31.3625" stroke="#FF0083" stroke-width="2" stroke-miterlimit="10" stroke-linecap="round" stroke-linejoin="round"/>
</svg>
